<svg width="16" height="16" fill="none" xmlns="http://www.w3.org/2000/svg">

    <circle opacity=".15" cx="8" cy="8" r="8" fill="#E85BB5"/>
    <path fill-rule="evenodd" clip-rule="evenodd"
          d="M 7.889 9.4743 A 3 3 -45 1 0 7.8869 3.4745 A 3 3 -45 0 0 7.8897 9.4736 z m 0 -1.4991 a 1.5 1.5 -45 1 0 0 -3.001 a 1.5 1.5 -45 0 0 -0.0007 3.0003 z m -3.001 2.7492 a 0.75 0.75 -45 0 1 0.7502 -0.7502 L 7.877 9.9757 l 2.2627 0 a 0.75 0.75 -45 1 1 -0 1.4991 l -1.5132 -0 l -0 0.7495 a 0.75 0.75 -45 0 1 -1.4998 0.0007 l 0 -0.7495 l -1.4878 -0 a 0.75 0.75 -45 0 1 -0.7495 -0.7495 z"
          fill="#E85BB5"/>
</svg>