<svg xmlns="http://www.w3.org/2000/svg" xml:space="preserve" style="enable-background:new 0 0 512 512" viewBox="0 0 512 512"><path d="M0 85.331h512v341.337H0z"/><path d="M0 85.331h512v170.663H0z" style="fill:#d80027"/><path d="m232.598 221.069 14.469 10.5-5.513 17.005 14.456-10.516 14.47 10.499-5.536-16.999 14.458-10.518-17.877.012-5.535-17-5.515 17.006z" style="fill:#ffda44"/><path d="M298.666 182.094A84.776 84.776 0 0 0 256 170.69v22.255a62.663 62.663 0 0 1 31.536 8.427c30.119 17.389 40.476 56.039 23.086 86.158-17.388 30.119-56.04 40.476-86.158 23.087a62.657 62.657 0 0 1-21.08-19.882l-18.584 12.27c7.066 10.739 16.662 20.037 28.533 26.891 40.75 23.526 93.04 9.515 116.567-31.234 23.527-40.75 9.516-93.042-31.234-116.568z" style="fill:#ffda44"/><path d="M206.792 241.154c-5.9 10.786-1.939 24.313 8.846 30.214l72.299 39.506c-4.916 8.988-2.306 19.927 6.682 24.843L314.15 346.4c8.988 4.917 20.261 1.616 25.178-7.372l10.683-19.529-143.219-78.345z" style="fill:#ffda44"/></svg>