<svg xmlns="http://www.w3.org/2000/svg" xml:space="preserve" style="enable-background:new 0 0 512 512" viewBox="0 0 512 512"><path d="M0 83.923h512v341.326H0z" style="fill:#0052b4"/><path d="M512 108.546 59.699 258.293 512 408.038v20.039L0 258.293 512 88.508z" style="fill:#d80027"/><path d="M512 374.201v33.837L59.699 258.293 512 108.546v33.838" style="fill:#fff"/><path d="M493.301 253.493h-29.275c7.612-9.139 7.141-22.736-1.432-31.31 9.084-9.082 9.084-23.81 0-32.895l-.546.549c9.082-9.082 9.63-24.359.546-33.441L331.019 287.971c9.084 9.085 23.552 8.976 32.634-.108l2.532-2.314 63.003-5.728v27.097h21.37v-29.04l32.056-2.913 10.687-21.472z" style="fill:#a2001d"/><path d="m333.03 316.084-21.378-10.685 21.378-10.685h138.908v21.37z" style="fill:#ffda44"/></svg>