<svg xmlns="http://www.w3.org/2000/svg" xml:space="preserve" style="enable-background:new 0 0 512 512" viewBox="0 0 512 512"><path d="M.556 85.523H512v340.955H.556z" style="fill:#6da544"/><path d="M0 315.298h511.444V85.52H0" style="fill:#a2001d"/><path d="M100.065 315.298V85.52H0v340.962h511.444-411.379z" style="fill:#fff"/><path d="m68.564 243.647-18.531-33.619 18.531-33.091 18.529 33.091z" style="fill:#a2001d"/><path d="m31.502 243.647-18.53-33.619 18.53-33.091 18.531 33.091zm37.062 91.417-18.531-33.618 18.531-33.092 18.529 33.092zm-37.062 0-18.53-33.618 18.53-33.092 18.531 33.092zm37.062 91.418-18.531-33.619 18.531-33.092 18.529 33.092zm-37.062 0-18.53-33.619 18.53-33.092 18.531 33.092zM68.564 152.23l-18.531-33.619 18.531-33.093 18.529 33.093z" style="fill:#a2001d"/><path d="m31.502 152.23-18.53-33.619 18.53-33.093 18.531 33.093z" style="fill:#a2001d"/></svg>