<svg xmlns="http://www.w3.org/2000/svg" xml:space="preserve" style="enable-background:new 0 0 512 512" viewBox="0 0 512 512"><path d="M0 85.331h512v341.337H0z" style="fill:#6da544"/><path d="m347.323 330.198 4.683 9.792 10.576-2.444-4.736 9.767 8.504 6.745-10.588 2.385.029 10.856-8.468-6.791-8.468 6.791.029-10.856-10.588-2.385 8.504-6.745-4.736-9.767 10.575 2.444zm-43.568-103.885 4.684 9.794 10.576-2.446-4.737 9.768 8.505 6.744-10.589 2.387.029 10.855-8.468-6.792-8.468 6.792.029-10.855-10.588-2.387 8.504-6.744-4.737-9.768 10.576 2.446zm43.568-59.362 4.683 9.792 10.576-2.445-4.735 9.769 8.503 6.744-10.588 2.387.029 10.854-8.468-6.791-8.468 6.791.029-10.854-10.588-2.387 8.504-6.744-4.736-9.769 10.575 2.445zm38.055 44.522 4.684 9.792 10.576-2.444-4.736 9.768 8.503 6.744-10.588 2.386.029 10.855-8.468-6.791-8.468 6.791.029-10.855-10.589-2.386 8.505-6.744-4.736-9.768 10.576 2.444zm-27.212 51.942 3.684 11.338h11.921l-9.644 7.006 3.684 11.336-9.645-7.006-9.643 7.006 3.684-11.336-9.645-7.006h11.921z" style="fill:#ffda44"/><path d="M274.551 304.226c-26.638 0-48.233-21.594-48.233-48.232s21.594-48.232 48.233-48.232c8.306 0 16.12 2.1 22.943 5.797-10.703-10.467-25.341-16.927-41.495-16.927-32.784 0-59.362 26.577-59.362 59.362s26.577 59.362 59.362 59.362c16.155 0 30.792-6.46 41.495-16.927a48.012 48.012 0 0 1-22.943 5.797zm-81.894-152.115c-5.133-8.87-14.717-14.84-25.7-14.84s-20.568 5.971-25.7 14.84h51.4zm.099.171-25.799 25.799-25.799-25.799a29.544 29.544 0 0 0-3.882 14.669c0 16.393 13.289 29.682 29.682 29.682s29.682-13.289 29.682-29.682a29.566 29.566 0 0 0-3.884-14.669z" style="fill:#ffda44"/><path d="M159.536 170.661v25.036c2.372.61 4.858.935 7.421.935s5.049-.325 7.421-.935v-25.036h-14.842z" style="fill:#a2001d"/></svg>