<svg xmlns="http://www.w3.org/2000/svg" xml:space="preserve" style="enable-background:new 0 0 512 512" viewBox="0 0 512 512"><path d="M0 85.331h512v341.337H0z" style="fill:#0052b4"/><path d="M0 322.777h512v22.261H0z" style="fill:#d80027"/><path d="M0 300.516h512v22.261H0zm0 44.522h512v22.261H0z" style="fill:#fff"/><path d="m180.384 261.272 3.004 9.249h9.725l-7.867 5.715 3.005 9.248-7.867-5.715-7.867 5.715 3.005-9.248-7.866-5.715h9.724zm0 121.06 3.004 9.247h9.725l-7.867 5.715 3.005 9.248-7.867-5.715-7.867 5.715 3.005-9.248-7.866-5.715h9.724zm-56.351-40.943 3.004 9.249h9.725l-7.866 5.715 3.004 9.248-7.867-5.715-7.867 5.715 3.005-9.248-7.867-5.715h9.725zm21.524-68.011 3.004 9.248h9.725l-7.866 5.716 3.004 9.248-7.867-5.716-7.867 5.716 3.005-9.248-7.867-5.716h9.725zm-34.253 38.084 9.723.001 3.005-9.249 3.005 9.248 9.725-.001-7.867 5.716 3.005 9.25-7.868-5.716-7.866 5.713 3.004-9.247zm26.386 81.209 3.005-9.246-7.868-5.717h9.725l3.005-9.248 3.005 9.247h9.724l-7.867 5.716 3.004 9.249-7.867-5.716zm99.024-51.282-3.004 9.249h-9.724l7.865 5.715-3.004 9.248 7.867-5.715 7.867 5.715-3.005-9.248 7.867-5.715h-9.725zm-21.524-68.011-3.004 9.248h-9.725l7.866 5.716-3.004 9.248 7.867-5.716 7.867 5.716-3.005-9.248 7.867-5.716h-9.725zm34.253 38.084-9.722.001-3.006-9.249-3.005 9.248-9.724-.001 7.867 5.716-3.006 9.25 7.868-5.716 7.866 5.713-3.004-9.247zm-26.386 81.209-3.005-9.246 7.867-5.717h-9.724l-3.005-9.248-3.005 9.247h-9.724l7.867 5.716-3.004 9.249 7.867-5.716z" style="fill:#ffda44"/></svg>