<svg xmlns="http://www.w3.org/2000/svg" xml:space="preserve" style="enable-background:new 0 0 512 512" viewBox="0 0 512 512"><path d="M0 85.337h512v341.326H0z" style="fill:#fff"/><path d="M0 85.337h512v113.775H0z" style="fill:#d80027"/><path d="M0 312.888h512v113.775H0z"/><path d="M320 236.29h-48c0-8.836-7.164-16-16-16s-16 7.164-16 16h-48c0 8.836 7.697 16 16.533 16H208c0 8.836 7.164 16 16 16 0 8.836 7.164 16 16 16h32c8.836 0 16-7.164 16-16 8.836 0 16-7.164 16-16h-.533c8.836 0 16.533-7.163 16.533-16z" style="fill:#ff9811"/></svg>