<svg xmlns="http://www.w3.org/2000/svg" xml:space="preserve" style="enable-background:new 0 0 512 512" viewBox="0 0 512 512"><path d="M0 85.337h512v341.326H0z" style="fill:#fff"/><path d="M0 85.337h512v113.775H0z"/><path d="M0 312.888h512v113.775H0z" style="fill:#496e2d"/><path d="M256 256.006 0 426.668V85.331zm49.716-.006c0-19.892 13.98-36.51 32.649-40.587a41.66 41.66 0 0 0-8.904-.966c-22.95 0-41.553 18.603-41.553 41.553s18.603 41.553 41.553 41.553c3.058 0 6.035-.339 8.904-.966-18.669-4.077-32.649-20.695-32.649-40.587z" style="fill:#d80027"/><path d="m340.112 229.287 5.894 18.14h19.072l-15.43 11.211 5.894 18.139-15.43-11.21-15.431 11.21 5.895-18.139-15.431-11.211h19.072z" style="fill:#d80027"/></svg>