<svg xmlns="http://www.w3.org/2000/svg" xml:space="preserve" style="enable-background:new 0 0 512 512" viewBox="0 0 512 512"><path d="M0 85.337h512v341.326H0z" style="fill:#a2001d"/><path d="M256 256 44.522 382.141V129.859z" style="fill:#496e2d"/><path d="m256 256 211.478 126.141H44.522zm211.478-126.141L256 256 44.522 129.859z" style="fill:#ffda44"/><path d="M467.478 129.859v252.282L256 256z" style="fill:#496e2d"/><path d="m256 95.722 3.316 10.203h10.728l-8.679 6.306 3.316 10.204-8.681-6.307-8.68 6.307 3.316-10.204-8.68-6.306h10.728zm-85.906 0 3.316 10.203h10.727l-8.678 6.306 3.316 10.204-8.681-6.307-8.679 6.307 3.315-10.204-8.68-6.306h10.728zm171.812 0 3.316 10.203h10.728l-8.679 6.306 3.315 10.204-8.68-6.307-8.679 6.307 3.316-10.204-8.68-6.306h10.727zM256 389.565l3.316 10.203h10.728l-8.679 6.307 3.316 10.203-8.681-6.306-8.68 6.306 3.316-10.203-8.68-6.307h10.728zm-85.906 0 3.316 10.203h10.727l-8.678 6.307 3.316 10.203-8.681-6.306-8.679 6.306 3.315-10.203-8.68-6.307h10.728zm171.812 0 3.316 10.203h10.728l-8.679 6.307 3.315 10.203-8.68-6.306-8.679 6.306 3.316-10.203-8.68-6.307h10.727z" style="fill:#ffda44"/><circle cx="256" cy="256" r="37.988" style="fill:#a2001d"/><path d="m256 218.008 8.516 26.21h27.561l-22.296 16.202 8.515 26.211L256 270.432l-22.298 16.199 8.517-26.211-22.296-16.202h27.56zm-148.345 35.173c4.383 6.926 2.323 16.092-4.602 20.477s-16.092 2.324-20.477-4.602c-7.937-12.54-3.335-33.016-3.335-33.016s20.475 4.602 28.414 17.141z" style="fill:#ffda44"/><circle cx="99.083" cy="267.386" r="7.42" style="fill:#a2001d"/></svg>