<svg xmlns="http://www.w3.org/2000/svg" xml:space="preserve" style="enable-background:new 0 0 512 512" viewBox="0 0 512 512"><path d="M0 85.333h512V426.67H0z" style="fill:#fff"/><path d="M288 85.33h-64v138.666H0v64h224v138.666h64V287.996h224v-64H288z" style="fill:#d80027"/><path d="M123.13 143.534v-22.261h-22.26v22.261H78.609v22.261h22.261v22.261h22.26v-22.261h22.261v-22.261zm288 0v-22.261h-22.26v22.261h-22.261v22.261h22.261v22.261h22.26v-22.261h22.261v-22.261zm-288 202.663v-22.261h-22.26v22.261H78.609v22.261h22.261v22.261h22.26v-22.261h22.261v-22.261zm288 0v-22.261h-22.26v22.261h-22.261v22.261h22.261v22.261h22.26v-22.261h22.261v-22.261z" style="fill:#d80027"/></svg>