<svg xmlns="http://www.w3.org/2000/svg" viewBox="0 0 810 810" style="enable-background:new 0 0 810 810" xml:space="preserve"><path style="fill:#171796" d="M0 135h810v540H0z"/><path style="fill:#fff" d="M0 135h810v360H0z"/><path style="fill:red" d="M0 135h810v180H0zm405 409.7c57.7 0 105-47.2 105-105V315H300.1v124.7c0 57.7 47.2 105 104.9 105z"/><path style="fill:#fff" d="M405 543c56.6 0 103-46.3 103-103V317H302.1v123c0 56.7 46.3 103 102.9 103z"/><path style="fill:red" d="M345.5 320.9h-39.6v43.5h39.6v-43.5zm0 87h39.6v-43.5h-39.6v43.5zm-39.6 31.9c0 4 .2 7.9.7 11.7h38.9V408h-39.6v31.8zm118.9-31.9h-39.6v43.5h39.6v-43.5zm0 87.1h39.6v-43.5h-39.6V495zm39.6 23.8c8.8-6.6 16.4-14.7 22.6-23.8h-22.6v23.8zM345.5 495h39.6v-43.5h-39.6V495zm-22.6 0c6.2 9.1 13.9 17.2 22.7 23.8V495h-22.7zm89 43.5c4.4-.3 8.7-.9 12.9-1.8V495h-39.6v41.8c4.2.9 8.5 1.5 12.9 1.8 4.5.2 9.2.2 13.8-.1zm91.4-87c.5-3.8.7-7.8.7-11.7V408h-39.6v43.5h38.9zm-78.5-43.6h39.6v-43.5h-39.6v43.5zm0-87h-39.6v43.5h39.6v-43.5zm79.2 43.5v-43.5h-39.6v43.5H504z"/><path style="fill:#fff" d="m506.2 313.7 24.6-55.7-18.7-30.2-31 11.5-21.8-24.9-28.7 16.4-25.6-21-25.6 21-28.7-16.4-21.7 24.8-31-11.5-18.8 30.3 24.5 55.7c30.9-14 65.2-21.8 101.3-21.8 36 0 70.3 7.8 101.2 21.8z"/><path style="fill:#0093dd" d="m329.6 241.7-30.8-11.3-17.2 27.8 6.6 15 16.7 37.9c12.5-5.5 25.5-10 38.9-13.5l-14.2-55.9z"/><path style="fill:#fff;stroke:#000;stroke-width:.35;stroke-miterlimit:10" d="M327.9 269.2c1.1 2.1 1.7 4.5 1.7 7 0 8.3-6.8 15-15 15-7.3 0-13.4-5.2-14.8-12.2 2.6 4.6 7.5 7.7 13.2 7.7 8.3 0 15.1-6.8 15.1-15.1 0-.8-.1-1.6-.2-2.4z"/><path d="m314.1 248.4-.1.2-1 5.4 4.1 3.6.2.2-.2.1-5.2 1.8-1.1 5.4v.2l-.2-.1-4.2-3.7-5.2 1.8-.2.1v-.2l1.1-5.4-4.2-3.7-.1-.1.2-.1 5.2-1.8 1.1-5.4v-.2l.2.1 4.1 3.6 5.2-1.7z"/><path style="fill:#f7db17" d="m307.8 256 3.9 3.4 4.9-1.7-8.8-1.7zm.1-.1 8.7 1.7-3.9-3.4-4.8 1.7zm-9.4-1.9 8.7 1.7-3.9-3.4-4.8 1.7zm8.7 1.9-8.7-1.7 3.9 3.4 4.8-1.7zm.5-.3 5.8-6.7-4.9 1.7-.9 5zm-6.3 7.2 5.8-6.7-4.9 1.7-.9 5zm6-6.6-5.8 6.7 4.9-1.7.9-5zm6.3-7.2-5.8 6.7 4.9-1.7.9-5zm-6.4 6.6-2.9-8.4-1 5 3.9 3.4zm3.1 9-2.9-8.4-1 5 3.9 3.4zm-2.7-8.4 2.9 8.4 1-5-3.9-3.4zm-3.1-9.1 2.9 8.4 1-5.1-3.9-3.3z"/><path style="fill:#171796" d="M379.7 233.3 351.2 217l-21.5 24.6 14.2 55.9c13.2-3.4 26.7-5.6 40.6-6.8l-4.8-57.4z"/><path style="fill:red" d="M340.3 283.7c13.9-3.5 28.3-6 43-7.2l-1.2-14.5c-15.5 1.3-30.7 3.8-45.4 7.6l3.6 14.1zm-7.1-28.1c15.5-3.9 31.4-6.6 47.7-8l-1.2-14.3c-17.1 1.4-33.8 4.2-50 8.4l3.5 13.9z"/><path style="fill:#0093dd" d="M430.4 233.3 405 212.6l-25.3 20.7 4.8 57.5c6.8-.6 13.6-.9 20.6-.9 7 0 13.8.3 20.6.9l4.7-57.5z"/><path d="M404.9 259.2s-.1 0-.2.1c-.5.7-1 1.3-1.5 1.9-.5.2-.6.5-.4.9-.7-.1-.8.5-.8 1.2-.7-1-1.4-1.3-2.2-.8 0-.6-.5-.9-1.2-1-.5 0-.9-.2-1.2-.4-.2-.1-.3-.2-.5-.3-.3-.2-.6 0-.5.2.7 1.2 1.4 2.3 2.1 3.5 0 .2 0 .4.2.5.1.4.2.7.4 1.1 0 .1-.1.2-.1.3-.6-.3-1.2-.3-1.8-.4-.5 0-.8-.1-1-.4-.1-.2-.2-.1-.2.2 0 1.4.4 2.7 1.6 4-.6 0-1.2 0-1.9.1-.2 0-.3.1-.2.3.3.8.9 1.5 2.2 2-.6.3-.9.8-1 1.4 0 .6-.2 1-.6 1.2-.2.1-.2.2-.1.3.7.5 1.5.5 2.4.3-.4.7-.6 1.5-.5 2.3.6.1 1.1 0 1.6-.1-.1.2-.1.5-.1.8 0 .3-.1.6-.3.9-.1.1-.2.2 0 .3.9.2 1.7.1 2.4-.1 0 .6 0 1.3.2 1.9 0 .2.2.3.3.1.4-.6.9-1.1 1.4-1.4.1.2.2.4.4.6.3.1.4.5.4.9 0 .1 0 .2.1.2.4 0 1.4-1 1.6-1.6.5.3.8.7 1.2 1.2.1.2.3.1.3-.1.2-.6.2-1.3.2-1.9.7.3 1.5.4 2.4.1.2-.1.1-.2 0-.3-.2-.3-.3-.7-.3-1 0-.4 0-.6-.1-.8.5.2 1.1.3 1.6.1.1-.8-.1-1.5-.6-2.3.9.2 1.7.2 2.4-.3.2-.1.1-.2-.1-.3-.4-.2-.5-.6-.6-1.2-.1-.6-.4-1.1-1-1.4 1.3-.5 1.9-1.2 2.2-2 .1-.2 0-.3-.2-.3-.6 0-1.3-.1-1.9-.1 1.2-1.3 1.6-2.6 1.6-4 0-.3-.1-.4-.2-.2-.2.2-.5.4-.9.4-.6 0-1.2.1-1.7.3 0-.1-.1-.2-.1-.3.1-.4.3-.7.4-1 .2-.1.3-.3.2-.5.7-1.2 1.4-2.3 2.1-3.5.1-.2-.1-.4-.5-.2-.2.1-.3.2-.5.3-.3.2-.7.4-1.2.4-.7.1-1.1.4-1.1 1.1-.8-.5-1.5-.2-2.2.8 0-.6-.1-1.2-.8-1.2.2-.4 0-.8-.5-.9-.5-.7-1.2-1.3-1.7-1.9h.6z"/><path style="fill:#f7db17" d="M411.7 262.9c-.1-.1-.3 0-.4.3-.1.2-.1.5.1.5.1.1.2 0 .3-.1l.1-.1c0-.3 0-.5-.1-.6zm-13.4 0c.1-.1.3 0 .4.3.1.2.1.4 0 .5-.1.1-.3-.1-.4-.3 0-.2-.1-.4 0-.5zm12.1 2.4c-.1 0-.2.1-.2.2s.1.2.2.2.2-.1.2-.2-.1-.2-.2-.2zm-10.7 0c-.1 0-.2.1-.2.2s.1.2.2.2.2-.1.2-.2-.1-.2-.2-.2zm11.4-.8c-2-.2-4-.4-6-.4s-4 .1-6 .3c-.1 0-.1.2 0 .2 2-.2 4-.3 6-.3s4 .1 5.9.3c.2.1.2-.1.1-.1z"/><path style="fill:#f7db17" d="M399 264.3c2-.2 4.1-.3 6.1-.3s4 .1 6 .4l.3-.5h-.2c-.2-.1-.2-.4-.1-.7.1-.3.4-.5.6-.4.1.1.2.2.2.3l1.2-2c-.5.3-.9.6-1.5.7-.7.1-1.1.4-1 .8.1.4-.2.4-.5.1-.8-.5-1.4.2-1.7.9-.2.5-.4.5-.4 0v-.5c-.1-.6-.2-.8-.6-.6-.4.2-.5.1-.4-.2.1-.2.2-.3.2-.6 0-.2-.2-.2-.4-.3-.5-.7-1.2-1.3-1.7-1.9-.5.7-1 1.3-1.5 1.9-.2 0-.4.1-.4.3-.1.2.1.4.2.6.1.2.1.4-.4.2-.3-.2-.5 0-.6.6v.6c0 .5-.3.5-.4 0-.3-.8-.9-1.4-1.8-.9-.4.2-.5.3-.5-.1.1-.5-.3-.7-1-.8-.7-.1-1-.3-1.5-.7l1.1 1.8c0-.1.1-.1.1-.2.2-.1.5.1.6.4.1.3.1.6-.1.7h-.1l.2.4zm11.7 2.4c-.2.1-.3.2-.4.4-.2.2-.3.3-.6.5 0 0-.1.1-.1 0v-.1c.2-.2.4-.3.5-.5.1-.1.1-.2.2-.2-.3 0-.5-.1-.8-.1-.2.1-.4.1-.6.3-.2.1-.3.2-.4.3 0 0 0 .1-.1 0-.1 0-.1-.1 0-.1.1-.2.2-.3.4-.4.1-.1.2-.1.3-.1-.3 0-.6 0-.9-.1-.1 0-.1.1-.2.1-.1.1-.1.1-.1.2 0 0 0 .1-.1 0-.1 0 0-.1 0-.1l.2-.2h-.6c-.1 0-.1.1-.1.2s-.1.1-.1.2c0 0 0 .1-.1 0-.1 0-.1-.1 0-.1 0-.1.1-.1.1-.2 0 0 0-.1.1-.1h-.9c-.1 0-.1.1-.2.1s-.1.1-.1.2c0 0 0 .1-.1 0-.1 0-.1-.1 0-.1 0-.1.1-.1.2-.2l.1-.1h-2l.1.1.2.2v.1h-.1c0-.1-.1-.1-.1-.2-.1-.1-.1-.1-.2-.1h-.9l.1.1c.1.1.1.1.1.2v.1h-.1c0-.1-.1-.1-.1-.2s-.1-.1-.1-.2h-.6l.2.2v.1h-.1c0-.1-.1-.1-.1-.2-.1-.1-.1-.1-.2-.1-.3 0-.6 0-.9.1.1 0 .2.1.3.2.2.1.3.2.4.4v.1h-.1c-.1-.1-.2-.2-.4-.3-.2-.1-.4-.2-.7-.3-.2 0-.5 0-.7.1.1.1.1.2.2.3.1.2.3.3.5.5 0 0 .1.1 0 .1-.1.1-.1 0-.1 0-.2-.2-.4-.3-.6-.5l-.4-.4c-.5-.2-.9-.3-1.5-.4-.4 0-.8 0-1.2-.2l.3.6c.1.2.3.3.6.4 0 0 .1 0 .1.1.1.4.2.8.5 1 .1.2.3.3.5.4-.2-.2-.4-.4-.5-.7-.2-.4-.2-.8-.2-1.1 0 0 0-.1.1-.1s.1.1.1.1c0 .3 0 .7.2 1 .1.3.4.6.8.9.1.1 0 .2-.1.1-.4-.1-.8-.3-1-.6-.2-.3-.4-.6-.5-1.1-.3-.1-.4-.2-.6-.4-.1-.2-.2-.3-.3-.5.1 1.1.5 2.1 1.2 3 .2.2.4.5.7.6.2.1.3.3-.1.3h-.3l.6.3c.3.2.6.4.6.7 0 0 0 .1-.1.1s-.1 0-.1-.1c0-.2-.2-.4-.5-.6-.3-.2-.7-.3-1.1-.4h-1.2c.1.1.2.2.3.2.2.1.5.2.9.3.2.1.4.1.6.2.2.1.3.2.5.4 0 0 .1.1 0 .1h-.1l-.4-.4c-.2-.1-.4-.2-.6-.2-.4-.1-.7-.2-1-.3-.2-.1-.3-.2-.5-.3.5 1 1.2 1.5 2.2 1.8.1 0 .1 0 .2.1.2.1.5.1.7.1.2 0 .4.1.7.1 0 0 .1 0 .1.1s-.1.1-.1.1c-.3 0-.5-.1-.7-.1-.2 0-.3-.1-.5-.1h-.3c-.6 0-1.1.6-1.2 1.3.2-.2.5-.4.7-.6.3-.2.6-.3 1-.2 0 0 .1 0 .1.1s-.1.1-.1.1c-.3-.1-.6 0-.8.2-.3.2-.6.4-.8.7-.1.4-.2.8-.5 1 .2.1.3.2.4.1.2-.1.5-.2.7-.3.2-.1.5-.1.8-.2 0 0 .1 0 .1.1s0 .1-.1.1c-.2 0-.5.1-.7.1-.2.1-.4.2-.6.2.6.1 1.2 0 1.8-.2.2-.1.3-.1.4-.1.1-.1.3-.1.5-.2s.4-.1.5-.2c0 0 .1 0 .1.1s0 .1-.1.1c-.3 0-.3.1-.6.2 0 .1-.2.2-.3.3-.1.1-.2.1-.2.2-.3.2-.4.5-.5.8-.1.2-.1.4-.2.6.1-.3.3-.6.5-.8.3-.3.6-.5.9-.7h.1v.1c-.3.2-.6.4-.9.7l-.6.9-.1.2c.3-.3.6-.6.9-.8.4-.3.8-.4 1.1-.4 0 0 .1 0 .1.1s-.1.1-.1.1c-.3-.1-.7.1-1 .3-.3.2-.7.6-1 1 .5.1 1-.1 1.4-.2.2-.1.5-.4.6-.4l.2-.2.3-.3s.1-.1.1 0c.1.1 0 .1 0 .1l-.3.3c-.1.1-.2.2-.2.3h-.1c-.2.2-.4.4-.5.6-.2.6-.1 1-.3 1.5.2-.1.3-.2.5-.4.1-.2.3-.4.3-.6.1-.3.3-.5.4-.7.2-.2.4-.4.7-.5 0 0 .1 0 .1.1s0 .1-.1.1c-.2.1-.5.2-.6.4-.2.2-.3.4-.4.7-.1.3-.2.5-.4.7-.1.1-.3.2-.4.3h.3c.2 0 .6-.2.7-.3.2-.1.3-.3.4-.5 0 0 0-.1.1 0 .1 0 .1.1 0 .1-.1.3-.3.5-.5.6-.1.1-.3.2-.5.2.4 0 .8-.1 1.2-.3.2-.1.2-.4.3-.6.1-.2.2-.3.3-.4.1-.1.3-.3.4-.3h.1v.1c-.1.1-.3.2-.4.3-.1.1-.2.2-.3.4 0 .2-.1.6-.1.8 0 .5 0 1.1.1 1.6.1-.2.3-.4.4-.5 0-.3.1-.6.1-.9v-.9s0-.1.1-.1.1 0 .1.1v.9c0 .2 0 .5-.1.7.1-.1.1-.1.2-.3.1-.2.2-.4.2-.6v-.6s0-.1.1-.1.1 0 .1.1c.1.2.1.4 0 .7 0 .2-.1.4-.1.5.1-.1.3-.2.5-.3v-1.1c0-.1 0-.1.1-.1s.1.1.1.1v1.1c0 .2.1.5.3.6.3.2.4.4.5.7v-1.1c0-.4-.1-.7-.3-1v-.1h.1c.2.3.3.6.3 1v1.3c.3-.2 1-.7.9-1.6 0-.1 0-.1-.1-.2v-.1h.1c0 .1.1.2.1.3v.2l.1-.1c.1 0 .2.1.2.1-.1-.2-.1-.3-.1-.5v-.7s0-.1.1-.1.1.1.1.1c0 .2-.1.4 0 .6 0 .2.1.4.2.6v.1l.2.2c0-.2-.1-.5-.1-.7v-.9s0-.1.1-.1.1.1.1.1v.9c0 .3.1.6.1.9.1.2.3.3.4.5.1-.5.2-1.1.2-1.6 0-.2-.2-.6-.2-.8-.1-.1-.2-.3-.3-.4-.1-.1-.2-.2-.4-.3 0 0-.1 0 0-.1 0-.1.1-.1.1 0 .2.1.3.2.4.3.1.1.2.3.3.4.2 0 .2.5.4.6.4.2.8.3 1.2.3-.2-.1-.4-.1-.5-.2-.2-.2-.3-.4-.5-.6v-.1h.1c.1.2.2.4.4.5.2.2.8.3 1.1.3-.2-.1-.3-.2-.4-.3-.2-.2-.3-.4-.4-.7-.1-.3-.2-.5-.4-.7-.2-.2-.4-.3-.6-.4 0 0-.1 0-.1-.1s.1-.1.1-.1c.3.1.5.3.7.5.2.2.3.4.4.7.1.3.2.5.3.6.1.1.3.3.5.4-.3-.6-.2-1-.3-1.5-.1-.3-.6-.7-.5-.9.1-.1.4.2.7.3.5.2 1 .3 1.4.2-.3-.4-.7-.7-1-1-.3-.2-.6-.4-.9-.3 0 0-.1 0-.1-.1s0-.1.1-.1c.4-.1.7.1 1.1.4.3.2.5.5.8.8 0-.1 0 0-.1-.2-.2-.3-.3-.6-.6-.9-.2-.3-.5-.5-.9-.7 0 0-.1 0 0-.1 0-.1.1-.1.1 0 .4.2.7.4.9.7.2.2.4.5.5.8 0-.2-.1-.4-.2-.6-.1-.3-.2-.5-.5-.8-.2-.1-.6-.4-.6-.5-.1 0-.1 0-.2-.1-.2-.1-.3-.1-.4-.1 0 0-.1 0-.1-.1s.1-.1.1-.1c.1 0 .3.1.5.1.1 0 .2.1.3.2.1 0 .4.1.6.2.5.2 1.2.3 1.8.2-.2-.1-.4-.2-.6-.2-.2-.1-.5-.1-.7-.1 0 0-.1 0-.1-.1s0-.1.1-.1c.3 0 .5.1.8.2.2.1.5.2.7.3.2.1.3 0 .4-.1-.3-.2-.5-.6-.5-1-.3-.3-.6-.5-.8-.7-.3-.2-.6-.2-.8-.2 0 0-.1 0-.1-.1s0-.1.1-.1c.3-.1.7 0 1 .2.3.1.5.4.7.6 0-.7-.5-1.3-1.2-1.3-.2 0-.5.1-.5-.1s.3-.1.6-.2c1-.3 1.7-.8 2.2-1.8-.1.1-.3.2-.5.3-.2.1-.5.2-1 .3-.2.1-.4.1-.6.2-.2.1-.3.2-.4.4 0 0-.1.1-.1 0v-.1c.1-.2.3-.3.5-.4.2-.1.4-.2.6-.2.4-.1.7-.2.9-.3.1-.1.2-.1.3-.2h-1.2c-.4.1-.8.3-1.1.4-.3.2-.5.4-.5.6 0 0 0 .1-.1.1s-.1 0-.1-.1c0-.3.3-.5.6-.7l.6-.3h-.3c-.3 0-.3-.2-.1-.3.2-.1.5-.4.7-.6.7-.9 1.1-1.9 1.2-3-.1.2-.2.4-.3.5-.2.2-.3.3-.6.4-.1.4-.2.8-.5 1.1-.2.3-.6.5-1 .6-.1 0-.1-.1-.1-.1.4-.3.6-.6.7-.9.2-.3.2-.7.2-1 0 0 0-.1.1-.1s.1 0 .1.1c0 .4 0 .7-.2 1.1-.1.2-.3.5-.5.7.2-.1.4-.2.5-.4.2-.3.4-.6.5-1 0 0 0-.1.1-.1.2-.1.4-.2.6-.4l.3-.6c-.4.2-.8.2-1.2.2-.4.4-.8.5-1.3.7z"/><path style="fill:#f7db17" d="M410.6 266.2c-1.8-.2-3.6-.3-5.4-.3-1.8 0-3.6.1-5.5.3-.1 0 0 .1 0 .1 0 .1.1.1.3.1 1.7-.2 3.4-.2 5.2-.2 1.8 0 3.6.1 5.4.3 0 0 .1-.3 0-.3z"/><path style="fill-rule:evenodd;clip-rule:evenodd;fill:#f7db17" d="M399.7 266.1a48.863 48.863 0 0 1 10.8 0l.1-.3h-.2c-.2 0-.3-.1-.3-.3s.1-.3.3-.3c.1 0 .3.1.3.2l.2-.5a56.33 56.33 0 0 0-11.6 0l.2.4c.1-.1.2-.1.3-.1.2 0 .3.1.3.3s-.1.3-.3.3h-.1v.3zm8.2-1.2c-.2 0-.3.1-.3.3s.1.3.3.3.3-.1.3-.3-.2-.3-.3-.3zm0 .2c-.1 0-.2.1-.2.2s.1.2.2.2.2-.1.2-.2l-.2-.2zm-2.9-.2c-.2 0-.3.1-.3.3s.1.3.3.3.3-.1.3-.3-.1-.3-.3-.3zm0 .1c-.1 0-.2.1-.2.2s.1.2.2.2.2-.1.2-.2c-.1-.1-.1-.2-.2-.2zm-2.9-.1c-.2 0-.3.1-.3.3 0 .2.1.3.3.3.2 0 .3-.1.3-.3.1-.1-.1-.3-.3-.3zm0 .2c-.1 0-.2.1-.2.2s.1.2.2.2.2-.1.2-.2-.1-.2-.2-.2z"/><path d="M405.1 262.9c0-.2-.1-.3-.3-.5-.1-.1-.3-.2-.5-.2-.1 0-.1-.2 0-.2.2-.1.3-.2.4-.4.1-.2.2-.4.3-.7 0-.1.2-.1.2 0 0 .2.1.4.3.6.1.2.3.3.5.4.1 0 .1.2 0 .2-.2 0-.3.1-.4.2l-.3.6c0 .1-.2.1-.2 0zm.1-.3c.1-.1.1-.3.2-.4.1-.1.2-.2.3-.2-.1-.1-.3-.2-.4-.3-.1-.1-.1-.2-.2-.3-.1.2-.1.3-.2.4l-.3.3c.1.1.3.1.4.2 0 .1.1.2.2.3zm2.1 13.6-1.4.5s-.1 0-.1-.1 0-.1.1-.1l1.4-.5s.1 0 .1.1 0 .1-.1.1zm.2-.9-1.6.9h-.1v-.1l1.6-.9h.1c.1.1 0 .1 0 .1zm-4.9-.1 1.6.9s.1 0 0 .1c0 .1-.1.1-.1 0l-1.6-.9s-.1 0 0-.1c0-.1.1-.1.1 0zm.1.8 1.4.5s.1 0 .1.1-.1.1-.1.1l-1.4-.5s-.1 0-.1-.1.1-.1.1-.1zm.6 1.2c.4.1.7.1 1 .1.2 0 .4-.2.5-.4v-1.3c-.3 0-.6 0-.8-.1-.3-.1-.5-.3-.5-.5-.1-.3-.1-.6 0-.9 0 0 0-.1.1-.1s.1.1.1.1c-.1.2-.1.5 0 .8.1.2.2.3.4.4.2.1.5.1.8.1.3 0 .6 0 .8-.1.2-.1.4-.2.5-.3.1-.1.2-.3.2-.5 0-.1-.1-.2-.1-.2-.1-.1-.2-.1-.3-.1h-.6c-.1 0-.1 0-.1-.1s0-.1.1-.1h.2c.1 0 .3-.1.4 0 .2 0 .3 0 .4.1.1.1.2.2.2.3 0 .2 0 .4-.2.6-.1.2-.3.3-.6.4-.2.1-.5.1-.7.1v1.3c.1.2.3.3.5.4.3 0 .6 0 1-.1 0 0 .1 0 .1.1s0 .1-.1.1c-.4.1-.7.1-1 .1-.2 0-.4-.2-.6-.4-.1.2-.3.3-.6.4-.3.1-.6 0-1-.1 0 0-.1 0-.1-.1-.1 0 0 0 0 0zm1 .5h1.1c.1 0 .1 0 .1.1s0 .1-.1.1h-1.1c-.1 0-.1 0-.1-.1s0-.1.1-.1zm1.6-8.2c.4-.3.8-.6 1.1-.8.4-.2.7-.3 1-.3.1 0 .1 0 .1.1s-.1.1-.1.1c-.2 0-.5.1-.9.3-.3.2-.7.4-1.1.8 0 0-.1.1-.1 0-.1-.1-.1-.1 0-.2zm-1.6.2c-.4-.3-.8-.6-1.2-.8-.4-.2-.7-.3-1-.3-.1 0-.1 0-.1-.1s0-.1.1-.1c.3 0 .7.1 1.1.3.4.2.8.5 1.2.9 0 0 .1.1 0 .1h-.1zm-.6 2.7c.1-.2.2-.4.4-.6.1-.2.3-.3.5-.5 0 0 .1-.1.1 0 .1.1 0 .1 0 .1-.2.1-.3.3-.4.4-.1.2-.2.3-.3.5 0 0 0 .1-.1.1h-.2zm1-4.7.3.6c.1.2.1.5.1.7v.7c0 .2-.1.5-.3.7-.1.2-.3.3-.4.3h-.4c.1.3.1.6 0 .8 0 0-.1.1-.1 0-.1-.1-.2-.1-.3-.2s-.2-.1-.3-.1c-.3-.1-.5-.2-.6-.3-.2-.1-.3-.2-.4-.3-.1-.1-.2-.3-.2-.5 0-.1-.1-.3-.1-.5-.2-.1-.4-.2-.5-.3-.2-.1-.3-.2-.4-.3 0 0-.1-.1 0-.1.1-.1.1 0 .1 0 .1.1.2.2.4.3.2.1.3.2.5.3.3 0 .7.1 1 .3.3.1.6.3.8.5 0 0 .1 0 .1.1l.1.1c.1.1.3.1.4 0 .1 0 .2-.1.3-.2.1-.2.2-.4.2-.6v-.6c0-.3 0-.5-.1-.7-.1-.2-.2-.4-.3-.5 0 0-.1-.1 0-.1 0-.2.1-.1.1-.1zm-1 2.8c-.3-.2-.6-.4-.8-.5-.3-.1-.6-.2-.8-.3v.4c0 .1.1.3.2.4l.3.3.6.3c.1 0 .2.1.4.1.1 0 .2.1.2.1 0-.2 0-.5-.1-.8 0 .1 0 .1 0 0zm2-2.7c-.1.2-.2.3-.3.5-.1.2-.1.4-.1.7v.6c0 .2.1.4.2.6.1.1.2.2.3.2h.4l.1-.1.1-.1c.3-.2.6-.4.8-.5.3-.2.7-.3 1-.3.2-.1.4-.2.5-.3.2-.1.3-.2.4-.3 0 0 .1-.1.1 0 .1.1 0 .1 0 .1-.1.1-.3.2-.4.3-.2.1-.3.2-.5.3 0 .2 0 .3-.1.5 0 .2-.1.3-.2.5-.1.1-.2.2-.4.3l-.6.3c-.1 0-.2.1-.3.1-.1.1-.2.1-.3.2h-.1c-.1-.3-.1-.6 0-.8-.1 0-.3.1-.4 0-.2 0-.3-.1-.4-.3-.1-.2-.2-.4-.3-.7v-.7c0-.3 0-.5.1-.7l.3-.6s.1-.1.1 0c.1.2.1.2 0 .2zm2.6 2c-.3 0-.6.1-.8.3-.3.1-.6.3-.8.5v.1c-.1.2-.1.5-.1.7.1 0 .2-.1.2-.1.1-.1.2-.1.4-.1l.6-.3c.2-.1.3-.2.3-.3.1-.1.2-.2.2-.4-.1-.2-.1-.3 0-.4z"/><path style="fill-rule:evenodd;clip-rule:evenodd" d="M407.4 269.9c-.3 0-.6.3-.6.6s.3.6.6.6.6-.3.6-.6-.3-.6-.6-.6zm0 .2c-.2 0-.4.2-.4.4s.2.4.4.4.4-.2.4-.4-.2-.4-.4-.4zm0 .1c-.1 0-.2.1-.2.2s.1.2.2.2.2-.1.2-.2-.1-.2-.2-.2zm-4.5-.3c.3 0 .6.3.6.6s-.3.6-.6.6-.6-.3-.6-.6.2-.6.6-.6zm0 .2c.2 0 .4.2.4.4s-.2.4-.4.4-.4-.2-.4-.4.1-.4.4-.4zm0 .2c.1 0 .2.1.2.2s-.1.2-.2.2-.2-.1-.2-.2 0-.2.2-.2z"/><path d="M393.4 233.3s-.1 0-.2.1c-.5.7-.9 1.3-1.4 2-.5.2-.6.5-.4.9-.7 0-.8.5-.8 1.2-.7-1-1.4-1.2-2.2-.7-.1-.6-.5-.9-1.2-1-.5 0-.9-.1-1.2-.3-.2-.1-.3-.2-.5-.3-.3-.2-.6 0-.5.2.8 1.1 1.5 2.3 2.3 3.4 0 .2 0 .4.3.5.1.3.3.7.4 1 0 .1 0 .2-.1.3-.6-.3-1.2-.3-1.8-.3-.5 0-.8-.1-1-.3-.2-.2-.2-.1-.2.2 0 1.4.5 2.7 1.7 3.9-.6 0-1.2.1-1.8.1-.2 0-.2.1-.2.3.4.8 1 1.5 2.3 2-.5.3-.8.8-.9 1.4 0 .6-.2 1-.5 1.2-.2.1-.2.2-.1.3.7.5 1.5.5 2.4.2-.4.7-.5 1.5-.4 2.3.6.1 1.1 0 1.6-.2-.1.2-.1.5-.1.8 0 .3-.1.6-.2.9-.1.1-.2.2 0 .3.9.2 1.7.1 2.4-.2 0 .6.1 1.3.3 1.9.1.2.2.3.3.1.4-.6.8-1.1 1.4-1.4.1.2.2.4.4.6.3.1.4.4.4.9 0 .1 0 .2.1.2.4 0 1.3-1.1 1.5-1.6.6.3.8.6 1.2 1.2.2.2.3.1.3-.1.1-.7.1-1.3.1-1.9.7.2 1.6.3 2.4 0 .2-.1.1-.2 0-.3-.2-.3-.3-.7-.3-1 0-.4-.1-.6-.1-.8.5.2 1.1.2 1.6.1 0-.8-.2-1.5-.6-2.2.9.2 1.8.1 2.4-.4.1-.1.1-.2-.1-.3-.4-.2-.6-.6-.6-1.2-.1-.6-.4-1.1-1-1.3 1.3-.5 1.8-1.3 2.1-2.1.1-.2 0-.3-.2-.3h-1.9c1.1-1.3 1.5-2.6 1.5-4 0-.3-.1-.4-.3-.2-.2.2-.5.4-.9.4-.6.1-1.2.1-1.7.4 0-.1-.1-.2-.1-.3.1-.4.3-.7.4-1.1.2-.1.3-.3.2-.6.7-1.2 1.3-2.4 1.9-3.5.1-.2-.1-.4-.5-.2-.2.1-.3.2-.4.3-.3.2-.7.4-1.1.4-.7.2-1.1.5-1.1 1.1-.8-.4-1.5-.1-2.1.9-.1-.6-.2-1.2-.8-1.1.2-.5 0-.8-.5-.9-.5-.6-1.3-1.2-1.8-1.9h-.1z"/><path style="fill:#f7db17" d="M400.2 236.8c-.1-.1-.3.1-.4.3-.1.2-.1.5.1.5.1 0 .2 0 .3-.2l.1-.1c.1-.2.1-.5-.1-.5zm-13.3.5c.1-.1.3 0 .4.2.1.2.1.4 0 .5-.1.1-.3-.1-.4-.3-.1-.1-.1-.4 0-.4zm12.2 1.9c-.1 0-.2.1-.2.2s.1.2.2.2.2-.1.2-.2c-.1-.1-.1-.2-.2-.2zm-10.8.4c-.1 0-.2.1-.2.2s.1.2.2.2.2-.1.2-.2-.1-.2-.2-.2zm11.5-1.2c-2-.2-4-.2-6-.1s-4 .3-6 .5c-.1 0 0 .2 0 .2 2-.3 4-.5 6-.5 2-.1 4 0 5.9.1.1 0 .1-.2.1-.2z"/><path style="fill:#f7db17" d="M387.6 238.6c2-.3 4.1-.5 6.1-.5 2-.1 4 0 6 .1l.3-.5h-.2c-.2-.1-.3-.4-.1-.7.1-.3.4-.5.6-.4.1 0 .2.2.2.3l1.1-2c-.5.4-.9.6-1.5.7-.7.1-1.1.4-.9.9.1.4-.1.4-.5.2-.9-.4-1.4.2-1.7 1-.2.5-.4.5-.4 0v-.5c-.1-.6-.3-.8-.6-.6-.4.2-.5.1-.4-.1.1-.2.2-.3.2-.6 0-.2-.2-.2-.4-.2-.5-.6-1.3-1.2-1.8-1.9-.5.7-.9 1.3-1.4 2-.2 0-.4.1-.4.3 0 .2.2.4.2.6.1.2.1.4-.4.2-.3-.1-.5 0-.5.6v.6c0 .5-.2.5-.4.1-.3-.7-1-1.4-1.8-.9-.4.2-.5.3-.5-.1 0-.5-.3-.7-1.1-.8-.7-.1-1-.3-1.6-.6l1.2 1.8c0-.1.1-.1.1-.2.2-.1.5 0 .7.3.2.3.1.6-.1.7h-.1l.1.2zm11.8 2c-.2.1-.3.2-.4.4-.1.2-.3.3-.5.5 0 0-.1.1-.1 0v-.1c.2-.2.4-.3.5-.5.1-.1.1-.2.2-.3-.3 0-.5 0-.8-.1l-.6.3c-.2.1-.3.2-.4.3 0 0 0 .1-.1 0-.1 0-.1-.1 0-.1.1-.2.2-.3.4-.4.1-.1.2-.1.3-.2h-.9c-.1 0-.1.1-.2.1-.1.1-.1.1-.1.2 0 0 0 .1-.1 0-.1 0-.1-.1 0-.1 0-.1.1-.1.2-.2h-.6c-.1.1-.1.1-.1.2s-.1.1-.1.2c0 0 0 .1-.1.1s-.1-.1 0-.1c0-.1.1-.1.1-.2 0 0 0-.1.1-.1h-.9c-.1 0-.1.1-.2.1s-.1.1-.1.2c0 0 0 .1-.1 0-.1 0-.1-.1 0-.1 0-.1.1-.1.1-.2l.1-.1h-2l.1.1.2.2v.1h-.1c0-.1-.1-.1-.1-.2-.1 0-.1-.1-.2-.1-.3 0-.6 0-.9.1l.1.1c.1.1.1.1.1.2v.1h-.1c0-.1-.1-.1-.1-.2s-.1-.1-.2-.2c-.2 0-.4 0-.6.1l.2.2s.1.1 0 .1c-.1.1-.1 0-.1 0l-.2-.2c-.1 0-.1-.1-.2-.1-.3 0-.6.1-.9.1.1 0 .2.1.3.2.2.1.3.2.4.4v.1h-.1c-.1-.1-.2-.2-.4-.3-.2-.1-.4-.2-.7-.2-.2 0-.5.1-.7.1.1.1.1.2.2.3.2.1.3.3.6.5 0 0 .1 0 0 .1 0 .1-.1 0-.1 0-.2-.2-.4-.3-.6-.5l-.4-.4c-.5-.2-1-.3-1.5-.3-.4 0-.8 0-1.2-.2.1.2.2.4.4.6.1.2.3.3.6.4 0 0 .1 0 .1.1.1.4.3.8.5 1 .1.2.3.3.5.4-.2-.2-.4-.4-.5-.7-.2-.4-.3-.8-.2-1.1 0 0 0-.1.1-.1s.1 0 .1.1c0 .3 0 .7.2 1 .2.3.4.6.8.9.1 0 0 .2-.1.1-.4-.1-.8-.3-1-.6-.2-.3-.4-.6-.5-1-.3-.1-.4-.2-.6-.4-.1-.2-.2-.3-.3-.5.1 1.1.6 2.1 1.3 3 .2.2.5.5.7.5.2.1.3.3 0 .3h-.3l.6.3c.3.2.6.4.6.7 0 0 0 .1-.1.1s-.1 0-.1-.1c0-.2-.2-.4-.5-.6-.3-.2-.7-.3-1.1-.4-.4 0-.8 0-1.2.1.1.1.2.1.4.2s.5.2.9.3c.2 0 .4.1.6.2.2.1.4.2.5.4 0 0 .1.1 0 .1-.1.1-.1 0-.1 0-.1-.1-.3-.3-.4-.3-.2-.1-.4-.2-.6-.2-.4-.1-.7-.2-1-.3-.2-.1-.4-.2-.5-.3.5 1 1.3 1.5 2.3 1.8h.2c.2 0 .5.1.7.1.2 0 .4.1.7.1 0 0 .1 0 .1.1s0 .1-.1.1c-.3 0-.5 0-.7-.1-.2 0-.3 0-.5-.1h-.3c-.6.1-1.1.6-1.1 1.4.2-.2.5-.4.7-.6.3-.2.6-.3 1-.2 0 0 .1 0 .1.1s-.1.1-.1.1c-.3-.1-.6 0-.8.2-.3.2-.6.4-.8.7 0 .4-.2.8-.5 1 .2.1.3.2.4.1.2-.1.5-.2.7-.3.2-.1.5-.2.7-.2 0 0 .1 0 .1.1s0 .1-.1.1c-.2 0-.5.1-.7.2l-.6.3c.6.1 1.2 0 1.8-.3.2-.1.3-.1.4-.1.1-.1.3-.2.5-.2.2-.1.3-.1.5-.2 0 0 .1 0 .1.1s0 .1-.1.1c-.3 0-.3.1-.6.2 0 .1-.2.2-.3.3-.1.1-.2.1-.2.2-.2.2-.4.5-.5.8-.1.2-.1.4-.2.6.1-.3.3-.6.5-.8.2-.3.5-.6.9-.7h.1v.1c-.3.2-.6.4-.8.7-.2.3-.4.6-.5.9l-.1.2c.3-.3.5-.6.8-.9.3-.3.7-.4 1.1-.4 0 0 .1 0 .1.1s-.1.1-.1.1c-.3 0-.7.1-1 .4-.3.3-.6.6-.9 1 .5.1 1-.1 1.4-.3.2-.1.5-.4.6-.4 0-.1.1-.1.1-.2l.3-.3s.1-.1.1 0c.1.1 0 .1 0 .1-.1.1-.2.2-.2.3-.1.1-.2.2-.2.3h-.1c-.2.2-.4.4-.4.7-.1.6 0 1-.3 1.5.2-.1.3-.2.5-.4l.3-.6c.1-.3.2-.5.4-.7.2-.2.4-.4.7-.5h.1v.1c-.2.1-.4.2-.6.4-.2.2-.3.4-.4.7-.1.3-.2.5-.4.7-.1.1-.2.3-.4.4h.3c.2 0 .6-.2.7-.3.2-.1.3-.3.4-.6 0 0 0-.1.1 0 .1 0 .1.1 0 .1-.1.3-.2.5-.4.6-.1.1-.3.2-.5.3.4 0 .8-.1 1.2-.3.2-.1.2-.5.3-.6.1-.2.2-.3.3-.4.1-.2.3-.3.4-.4h.1v.1c-.1.1-.3.2-.4.3-.1.1-.2.3-.2.4 0 .2-.1.6-.1.8 0 .5 0 1.1.2 1.6.1-.2.3-.4.4-.5 0-.3.1-.6.1-.9v-.9s0-.1.1-.1.1 0 .1.1c0 .3.1.6.1.9 0 .2 0 .5-.1.7.1-.1.1-.1.2-.3.1-.2.1-.4.2-.6 0-.2 0-.4-.1-.6 0 0 0-.1.1-.1s.1 0 .1.1c.1.2.1.4.1.7 0 .2-.1.4-.1.5.1-.1.3-.2.5-.3V253c0-.1 0-.1.1-.1s.1.1.1.1v1.1c0 .2.1.5.4.6.3.2.4.4.5.7v-1.1c-.1-.4-.2-.7-.3-1v-.1h.1c.2.3.3.6.4 1 .1.4.1.8 0 1.3.3-.2 1-.7.9-1.6 0-.1 0-.1-.1-.2v-.1h.1c0 .1.1.2.1.3v.2l.1-.1c.1 0 .2.1.2.1-.1-.2-.1-.3-.1-.5v-.7s0-.1.1-.1.1.1.1.1v.6c0 .2.1.4.2.6v.1l.2.2c0-.2-.1-.5-.1-.7v-.9s0-.1.1-.1.1.1.1.1v.9c0 .3.1.6.1.9.1.2.3.3.4.5.1-.5.2-1.1.1-1.6 0-.2-.2-.6-.2-.8-.1-.1-.2-.3-.3-.4-.1-.1-.2-.2-.4-.3 0 0-.1 0-.1-.1s.1-.1.1-.1c.2.1.3.2.4.3.1.1.2.3.3.4.2 0 .2.5.4.6.4.1.8.2 1.2.2-.2 0-.4-.1-.5-.2-.2-.1-.4-.3-.5-.6v-.1h.1c.1.2.3.4.4.5.2.2.8.3 1.1.3-.2-.1-.3-.2-.4-.3-.2-.2-.3-.4-.4-.7-.1-.2-.2-.5-.4-.6-.2-.2-.4-.3-.6-.4 0 0-.1 0-.1-.1s.1-.1.1-.1c.3.1.5.2.7.4.2.2.4.4.5.7.1.2.2.4.4.6.1.1.3.3.5.3-.3-.5-.2-1-.4-1.5-.1-.3-.6-.7-.5-.8.1-.1.4.2.7.3.5.1 1 .3 1.4.2-.3-.4-.7-.7-1-.9-.3-.2-.6-.3-.9-.3 0 0-.1 0-.1-.1s0-.1.1-.1c.4-.1.7.1 1.1.3.3.2.6.4.9.8-.1-.1 0 0-.1-.2l-.6-.9c-.2-.3-.5-.5-.9-.6 0 0-.1 0 0-.1 0-.1.1-.1.1 0 .4.2.7.4.9.7.2.2.4.5.6.8 0-.2-.1-.4-.2-.6-.1-.3-.3-.5-.5-.7-.2-.1-.6-.4-.6-.5-.1 0-.1 0-.2-.1-.2-.1-.3-.1-.4-.1 0 0-.1 0-.1-.1s0-.1.1-.1.3.1.5.1c.1 0 .2.1.3.1.1 0 .4.1.6.2.6.2 1.2.3 1.8.1-.2-.1-.4-.2-.6-.2-.2-.1-.5-.1-.7-.1 0 0-.1 0-.1-.1s0-.1.1-.1c.3 0 .5 0 .8.1.2.1.5.2.7.3.2.1.3 0 .4-.1-.3-.2-.5-.6-.6-1-.3-.2-.6-.5-.9-.6-.3-.1-.6-.2-.8-.1 0 0-.1 0-.1-.1s0-.1.1-.1c.3-.1.7 0 1 .1.3.1.5.3.8.5-.1-.7-.6-1.3-1.2-1.3-.2 0-.5.1-.5-.1s.3-.1.6-.3c1-.3 1.7-.9 2.2-1.9-.1.1-.3.2-.5.3-.2.1-.5.3-.9.4-.2.1-.4.1-.6.2-.2.1-.3.2-.4.4 0 0-.1.1-.1 0-.1-.1 0-.1 0-.1.1-.2.3-.3.5-.4l.6-.3c.4-.1.7-.2.9-.4.1-.1.2-.2.3-.2h-1.2c-.4.1-.8.3-1.1.5-.3.2-.5.4-.5.6 0 0 0 .1-.1.1s-.1 0-.1-.1c0-.3.2-.5.6-.7l.6-.3h-.3c-.3 0-.3-.2-.1-.3.2-.1.5-.4.6-.6.7-.9 1-1.9 1.1-3.1-.1.2-.2.4-.3.5-.1.2-.3.4-.6.5-.1.4-.2.8-.4 1.1-.2.3-.6.5-1 .6-.1 0-.1-.1-.1-.1.3-.3.6-.6.7-.9.2-.4.2-.7.2-1 0 0 0-.1.1-.1s.1 0 .1.1c0 .4 0 .7-.2 1.1-.1.2-.2.5-.4.7.2-.1.4-.3.5-.4.2-.3.4-.6.4-1 0 0 0-.1.1-.1.2-.1.4-.2.5-.4l.3-.6c-.4.2-.8.2-1.2.3-1.7.1-2.1.3-2.6.5z"/><path style="fill:#f7db17" d="M399.2 240.1c-1.8-.2-3.6-.2-5.4-.1-1.8.1-3.6.2-5.5.5-.1 0 0 .1 0 .1 0 .1.1.1.3.1 1.7-.2 3.4-.4 5.1-.4 1.8-.1 3.6-.1 5.4.1.2 0 .3-.3.1-.3z"/><path style="fill-rule:evenodd;clip-rule:evenodd;fill:#f7db17" d="M388.4 240.4c1.8-.3 3.6-.4 5.4-.5 1.8-.1 3.6 0 5.4.1l.1-.3h-.2c-.2 0-.3-.1-.3-.3 0-.2.1-.3.3-.3.1 0 .3.1.3.2l.1-.5c-1.9-.2-3.9-.2-5.8-.1s-3.9.2-5.8.5l.2.4c.1-.1.2-.1.3-.2.2 0 .3.1.3.3 0 .2-.1.3-.3.3h-.1l.1.4zm8.1-1.4c-.2 0-.3.2-.3.3 0 .2.2.3.3.3.2 0 .3-.2.3-.3 0-.2-.1-.4-.3-.3zm0 .1c-.1 0-.2.1-.2.2s.1.2.2.2.2-.1.2-.2-.1-.2-.2-.2zm-2.9-.1c-.2 0-.3.2-.3.3 0 .2.2.3.3.3.2 0 .3-.2.3-.3 0-.2-.1-.3-.3-.3zm0 .2c-.1 0-.2.1-.2.2s.1.2.2.2.2-.1.2-.2c0-.2-.1-.2-.2-.2zm-2.8 0c-.2 0-.3.2-.3.3 0 .2.2.3.3.3.2 0 .3-.2.3-.3 0-.2-.1-.3-.3-.3zm0 .1c-.1 0-.2.1-.2.2s.1.2.2.2.2-.1.2-.2c-.1-.1-.1-.2-.2-.2z"/><path d="M393.7 237c0-.2-.1-.3-.3-.5-.1-.1-.3-.2-.5-.2-.1 0-.1-.2 0-.2.2-.1.3-.2.4-.4.1-.2.2-.4.2-.7 0-.1.2-.1.2 0 0 .2.2.4.3.5.2.2.3.3.5.3.1 0 .1.2 0 .2-.2 0-.3.1-.4.2-.1.2-.2.4-.2.6-.1.3-.2.3-.2.2zm0-.3c0-.1.1-.3.2-.4.1-.1.2-.2.3-.2-.1-.1-.3-.2-.4-.3-.1-.1-.1-.2-.2-.3 0 .2-.1.3-.2.4l-.3.3c.1 0 .3.1.4.2.1.1.2.2.2.3zm2.7 13.5-1.4.6s-.1 0-.1-.1 0-.1.1-.1l1.4-.6s.1 0 .1.1-.1.1-.1.1zm.1-.8-1.6.9s-.1.1-.1 0c-.1-.1 0-.1 0-.1l1.6-.9s.1-.1.1 0c.1 0 0 0 0 .1zm-4.9 0 1.6.8s.1 0 0 .1-.1.1-.1 0l-1.6-.8s-.1 0 0-.1c0-.1.1-.1.1 0zm.2.8 1.4.5s.1 0 .1.1-.1.1-.1.1l-1.4-.5s-.1 0-.1-.1.1-.1.1-.1zm.6 1.2c.4.1.7.1 1 0 .2-.1.4-.2.5-.4v-1.3c-.3 0-.6 0-.8-.1-.3-.1-.5-.2-.6-.5-.1-.3-.1-.6 0-.9 0 0 0-.1.1-.1s.1.1.1.1c0 .2-.1.5 0 .8.1.2.2.3.4.3.2.1.5.1.8.1.3 0 .6-.1.8-.1.2-.1.4-.2.5-.3s.2-.3.1-.5c0-.1-.1-.2-.1-.2-.1-.1-.2-.1-.3-.1-.1 0-.2 0-.4.1h-.2c-.1 0-.1 0-.1-.1s0-.1.1-.1h.2c.1 0 .3-.1.4-.1.2 0 .3 0 .5.1.1.1.2.2.2.3 0 .2 0 .4-.2.6-.1.2-.3.3-.6.4-.2.1-.5.1-.7.1v1.3c.1.2.3.3.5.4.3 0 .6 0 1-.1 0 0 .1 0 .1.1s0 .1-.1.1c-.4.1-.7.2-1 .1-.2 0-.4-.1-.6-.3-.1.2-.3.3-.6.4-.3.1-.6 0-1 0 0 0-.1 0-.1-.1s.1-.1.1 0zm1 .5 1.1-.1c.1 0 .1 0 .1.1s0 .1-.1.1l-1.1.1c-.1 0-.1 0-.1-.1s.1-.1.1-.1zm1.3-8.3c.4-.3.8-.6 1.1-.8.3-.2.7-.3.9-.3.1 0 .1 0 .1.1s0 .1-.1.1c-.2 0-.5.1-.8.3-.3.2-.7.5-1.1.8 0 0-.1.1-.1 0s-.1-.2 0-.2zm-1.6.2c-.4-.3-.8-.6-1.2-.8-.4-.2-.7-.3-1-.2-.1 0-.1 0-.1-.1s0-.1.1-.1c.3 0 .7.1 1.1.2.4.2.9.5 1.3.8 0 0 .1.1 0 .1-.2.2-.2.2-.2.1zm-.5 2.7.3-.6c.1-.2.3-.3.4-.5 0 0 .1-.1.1 0 .1.1 0 .1 0 .1-.2.1-.3.3-.4.4-.1.2-.2.3-.3.5 0 0 0 .1-.1.1 0 .1 0 .1 0 0zm.8-4.6.3.6c.1.2.1.5.1.7v.7c0 .2-.1.5-.2.7-.1.2-.3.3-.4.3h-.4c.1.3.2.5 0 .8l-.1.1c-.1-.1-.2-.1-.3-.2-.1 0-.2-.1-.3-.1-.3-.1-.5-.2-.6-.3-.2-.1-.3-.2-.4-.3-.1-.1-.2-.3-.3-.4 0-.1-.1-.3-.1-.5-.2-.1-.4-.2-.5-.3-.2-.1-.3-.2-.4-.3 0 0-.1-.1 0-.1h.1c.1.1.2.2.4.3.2.1.3.2.6.3.3 0 .7.1 1 .3.3.1.6.3.9.5 0 0 .1 0 .1.1h.1c.1.1.3.1.4 0 .1 0 .2-.1.3-.2.1-.2.2-.4.2-.6v-.6c0-.3-.1-.5-.1-.7-.1-.2-.2-.4-.3-.5 0 0-.1-.1 0-.1-.1-.3-.1-.3-.1-.2zm-.9 2.8c-.3-.2-.6-.4-.8-.5-.3-.1-.6-.2-.8-.2 0 .1 0 .2.1.4 0 .1.1.3.2.4.1.1.2.2.4.3l.6.3c.1 0 .2.1.4.1.1 0 .2.1.3.1-.2-.4-.3-.6-.4-.9zm2-2.8c-.1.2-.2.3-.3.5-.1.2-.1.4-.1.7v.6c0 .2.1.4.2.6.1.1.2.2.3.2.1 0 .3 0 .4-.1l.1-.1.1-.1c.3-.2.5-.4.8-.5.3-.2.6-.3 1-.3.2-.1.4-.2.5-.3s.3-.2.4-.3c0 0 .1-.1.1 0v.1l-.4.4c-.1.1-.3.2-.5.3v.5c0 .2-.1.3-.2.5-.1.1-.2.2-.4.3l-.6.3c-.1 0-.2.1-.3.1-.1.1-.2.1-.3.2h-.1c-.1-.3-.1-.6 0-.8-.1.1-.3.1-.4 0-.2 0-.3-.1-.5-.3-.2-.2-.2-.4-.3-.6v-.7c0-.3 0-.5.1-.7l.3-.6s.1-.1.1 0v.1zm2.6 1.8c-.3.1-.6.2-.8.3-.3.1-.5.3-.8.5v.1c-.1.2-.1.5-.1.7.1 0 .2-.1.2-.1.1-.1.2-.1.3-.2l.6-.3c.2-.1.3-.2.3-.3.1-.1.1-.2.2-.4.1 0 .1-.1.1-.3z"/><path style="fill-rule:evenodd;clip-rule:evenodd" d="M396.2 243.9c-.3 0-.6.3-.6.6s.3.6.6.6.6-.3.6-.6-.3-.6-.6-.6zm0 .2c-.2 0-.4.2-.4.4s.2.4.4.4.4-.2.4-.4-.2-.4-.4-.4zm0 .2c-.1 0-.2.1-.2.2s.1.2.2.2.2-.1.2-.2-.1-.2-.2-.2zm-4.5-.2c.3 0 .6.2.6.6s-.2.6-.6.6c-.3 0-.6-.2-.6-.6 0-.3.3-.6.6-.6zm0 .2c.2 0 .4.2.4.4s-.2.4-.4.4-.4-.2-.4-.4.2-.4.4-.4zm0 .1c.1 0 .2.1.2.2s-.1.2-.2.2-.2-.1-.2-.2.1-.1.2-.2z"/><path d="M416.6 233.3s-.1 0-.2.1c-.5.6-1 1.2-1.5 1.9-.5.1-.7.5-.5.9-.7-.1-.8.5-.8 1.1-.6-1-1.3-1.3-2.1-.9 0-.6-.5-.9-1.1-1.1-.5 0-.8-.2-1.1-.4-.2-.1-.3-.2-.4-.3-.3-.2-.6 0-.5.2.7 1.2 1.3 2.4 2 3.5 0 .2 0 .4.2.6.1.4.2.7.3 1.1 0 .1-.1.2-.1.3-.6-.3-1.2-.4-1.8-.4-.5 0-.8-.2-.9-.4-.1-.2-.2-.1-.3.2-.1 1.4.3 2.7 1.4 4h-1.9c-.2 0-.3.1-.2.3.3.8.8 1.6 2.1 2.1-.6.3-.9.7-1 1.3 0 .6-.2 1-.6 1.2-.2.1-.2.2-.1.3.7.5 1.5.6 2.4.4-.4.7-.7 1.5-.6 2.2.5.2 1.1.1 1.6-.1-.1.2-.1.5-.2.8 0 .3-.1.6-.3.9-.1.1-.2.2 0 .3.9.3 1.7.2 2.4 0 0 .6 0 1.3.1 1.9 0 .2.2.3.3.1.4-.6.9-1 1.5-1.3.1.2.2.5.4.6.3.2.4.5.4.9 0 .1 0 .2.1.2.4 0 1.4-1 1.6-1.5.5.3.7.7 1.1 1.3.1.2.3.1.3-.1.2-.6.2-1.3.2-1.9.7.3 1.5.4 2.4.2.2 0 .1-.2 0-.3-.2-.3-.3-.7-.3-1 0-.4 0-.6-.1-.8.5.2 1.1.3 1.6.2.1-.8-.1-1.5-.5-2.3.9.2 1.7.3 2.4-.2.2-.1.1-.2-.1-.3-.4-.2-.5-.6-.5-1.2-.1-.6-.4-1.1-.9-1.4 1.3-.4 1.9-1.2 2.3-2 .1-.2 0-.3-.2-.3-.6-.1-1.3-.1-1.9-.1 1.2-1.2 1.7-2.5 1.8-3.9 0-.3-.1-.4-.2-.2-.2.2-.5.3-.9.4-.6 0-1.2 0-1.8.3 0-.1 0-.2-.1-.3.1-.3.3-.7.4-1 .2-.1.3-.3.3-.5.8-1.1 1.5-2.3 2.2-3.4.2-.2-.1-.4-.4-.2-.2.1-.3.2-.5.3-.3.2-.7.3-1.2.3-.7.1-1.1.4-1.2 1-.8-.5-1.5-.3-2.2.7 0-.6-.1-1.2-.8-1.2.2-.4.1-.8-.4-1-.5-.7-1.2-1.3-1.6-2 .3-.1.2-.1.2-.1z"/><path style="fill:#f7db17" d="M423.2 237.3c-.1-.1-.3 0-.4.2s-.1.4 0 .5c.1.1.2 0 .3-.1l.1-.1c.1-.2.1-.5 0-.5zm-13.4-.5c.1-.1.3.1.4.3s.1.4-.1.5c-.1.1-.3-.1-.4-.3s0-.5.1-.5zm12 2.8c-.1 0-.2.1-.2.2s.1.2.2.2.2-.1.2-.2-.1-.2-.2-.2zm-10.7-.4c-.1 0-.2.1-.2.2s.1.2.2.2.2-.1.2-.2c-.1-.1-.1-.2-.2-.2zm11.5-.3c-2-.3-4-.5-6-.6s-4 0-6.1.1c-.1 0-.1.2 0 .2 2-.1 4-.1 6-.1 2 .1 4 .3 5.9.6.2 0 .2-.2.2-.2z"/><path style="fill:#f7db17" d="M410.4 238.2c2.1-.1 4.1-.2 6.1-.1s4 .3 6 .6l.3-.5h-.2c-.2-.1-.2-.4-.1-.7.2-.3.5-.4.7-.3.1.1.2.2.2.3l1.3-1.9c-.6.3-.9.5-1.6.6-.8.1-1.1.3-1 .8.1.4-.2.3-.5.1-.8-.5-1.4.1-1.8.9-.2.5-.4.5-.4-.1v-.5c0-.6-.2-.8-.6-.6-.4.2-.5 0-.4-.2.1-.2.2-.3.2-.6 0-.2-.2-.3-.4-.3-.5-.7-1.2-1.3-1.7-2-.5.6-1 1.2-1.6 1.9-.2 0-.4.1-.4.2-.1.2.1.4.2.6.1.2 0 .4-.4.1-.3-.2-.5 0-.6.6 0 .2 0 .4-.1.6 0 .5-.3.5-.4 0-.3-.8-.9-1.4-1.7-1-.4.2-.6.3-.5-.2.1-.5-.3-.7-1-.9-.7-.1-1-.4-1.5-.7l1 1.9c0-.1.1-.1.1-.1.2-.1.5.1.6.4.1.3.1.6-.1.7h-.1l.4.4zM422 241c-.2.1-.3.2-.4.3-.2.2-.4.3-.6.5h-.1v-.1c.2-.2.4-.3.6-.5l.2-.2c-.3 0-.5-.1-.8-.1-.2.1-.4.1-.6.2-.2.1-.3.2-.4.3 0 0 0 .1-.1 0-.1 0 0-.1 0-.1.1-.2.3-.3.4-.4.1 0 .2-.1.3-.1-.3 0-.6-.1-.9-.1-.1 0-.1.1-.2.1s-.1.1-.2.2c0 0-.1.1-.1 0-.1-.1 0-.1 0-.1l.2-.2c-.2 0-.4 0-.6-.1-.1 0-.1.1-.2.2 0 .1-.1.1-.1.2 0 0 0 .1-.1 0-.1 0-.1-.1 0-.1 0-.1.1-.1.1-.2l.1-.1c-.3 0-.6 0-.9-.1-.1 0-.1.1-.2.1s-.1.1-.1.2c0 0 0 .1-.1 0-.1 0-.1-.1 0-.1 0-.1.1-.1.2-.2h.1-2l.1.1c.1.1.1.1.1.2v.1h-.1c0-.1-.1-.1-.1-.2s-.1-.1-.2-.1h-.9l.1.1c0 .1.1.1.1.2v.1c-.1 0-.1 0-.1-.1s-.1-.1-.1-.2-.1-.1-.1-.2h-.6l.2.2v.1h-.1c0-.1-.1-.1-.1-.2-.1-.1-.1-.1-.2-.1h-.9c.1.1.2.1.3.2.2.1.3.2.4.4v.1h-.1c-.1-.1-.2-.2-.4-.3l-.6-.3h-.7c.1.1.1.2.2.3.1.2.3.3.5.5 0 0 .1.1 0 .1h-.1l-.5-.5c-.1-.1-.3-.3-.3-.4-.5-.3-.9-.4-1.5-.4-.4-.1-.8-.1-1.2-.3l.3.6c.1.2.3.3.5.4 0 0 .1 0 .1.1.1.4.2.8.4 1 .1.2.3.3.5.4-.2-.2-.3-.5-.4-.7-.2-.4-.2-.8-.2-1.1 0 0 0-.1.1-.1s.1.1.1.1c0 .3 0 .7.2 1 .1.3.4.6.7 1 .1.1 0 .2-.1.1-.4-.1-.8-.4-1-.7-.2-.3-.4-.6-.4-1.1-.2-.1-.4-.3-.6-.5l-.3-.6c0 1.1.4 2.2 1.1 3.1.2.2.4.5.7.6.2.1.2.3-.1.3h-.3l.6.3c.3.2.6.5.6.7 0 0 0 .1-.1.1s-.1 0-.1-.1c0-.2-.2-.4-.5-.6-.3-.2-.7-.3-1.1-.5h-1.2c.1.1.2.2.3.2.2.1.5.2.9.4l.6.3c.2.1.3.3.5.4 0 0 .1.1 0 .1h-.1c-.1-.1-.2-.3-.4-.4-.2-.1-.3-.2-.6-.2-.4-.1-.7-.2-.9-.4-.2-.1-.3-.2-.5-.3.4 1.1 1.1 1.6 2.2 1.9.1 0 .1 0 .2.1.2.1.5.1.7.2.2 0 .4.1.7.1 0 0 .1 0 .1.1s-.1.1-.1.1c-.3 0-.5-.1-.7-.1-.2 0-.3-.1-.5-.1h-.3c-.6 0-1.1.6-1.2 1.3.2-.2.5-.4.7-.5.3-.2.6-.3 1-.1 0 0 .1 0 .1.1s-.1.1-.1.1c-.3-.1-.6 0-.8.1l-.9.6c-.1.4-.2.8-.6 1 .2.1.3.2.4.1.2-.1.5-.2.7-.3.2-.1.5-.1.8-.1 0 0 .1 0 .1.1s0 .1-.1.1c-.2 0-.5 0-.7.1-.2.1-.4.1-.6.2.6.1 1.2 0 1.8-.1.2-.1.3-.1.4-.1.1-.1.3-.1.5-.2s.4-.1.5-.1c0 0 .1 0 .1.1s0 .1-.1.1c-.3 0-.3 0-.6.2 0 .1-.2.1-.3.2-.1.1-.2.1-.2.2-.3.2-.4.5-.5.7-.1.2-.2.4-.2.6.2-.3.3-.5.6-.8.3-.3.6-.5.9-.7h.1v.1c-.3.1-.6.4-.9.6-.3.3-.5.6-.6.9l-.1.2c.3-.3.6-.6.9-.8.4-.3.8-.4 1.1-.3 0 0 .1 0 .1.1s-.1.1-.1.1c-.3-.1-.7.1-1 .3-.3.2-.7.6-1 .9.5.1 1 0 1.5-.2.2-.1.5-.3.7-.4l.2-.2.3-.3s.1-.1.1 0c.1.1 0 .1 0 .1-.1.1-.2.2-.3.2l-.3.3h-.1c-.2.2-.4.4-.5.6-.2.6-.1 1-.4 1.5.2-.1.3-.2.5-.3.1-.2.3-.4.4-.6.1-.3.3-.5.5-.7.2-.2.5-.3.7-.4 0 0 .1 0 .1.1s0 .1-.1.1c-.2.1-.5.2-.6.4-.2.2-.3.4-.4.6-.1.3-.2.5-.4.7-.1.1-.3.2-.4.3h.3c.2 0 .6-.2.8-.3.2-.1.3-.3.4-.5 0 0 0-.1.1 0 .1 0 .1.1 0 .1-.1.3-.3.5-.5.6-.2.1-.3.2-.5.2.4 0 .8-.1 1.3-.2.2-.1.2-.4.4-.5.1-.2.2-.3.3-.4.1-.1.3-.3.4-.3 0 0 .1 0 .1.1v.1c-.1.1-.3.1-.4.3-.1.1-.2.2-.3.4 0 .2-.2.6-.2.8 0 .5 0 1.1.1 1.6.1-.2.3-.3.5-.5.1-.3.1-.6.1-.9v-.9s0-.1.1-.1.1 0 .1.1v.9c0 .2-.1.5-.1.7.1-.1.1-.1.2-.3.1-.2.2-.4.2-.6v-.6s0-.1.1-.1.1 0 .1.1v.7c0 .2-.1.3-.2.5.2-.1.3-.2.5-.3v-.6c0-.2 0-.4.1-.5 0-.1 0-.1.1-.1s.1.1.1.1c0 .1 0 .3-.1.5v.6c0 .2.1.5.3.6.3.2.4.5.5.7.1-.4.1-.7 0-1.1 0-.4-.1-.7-.3-1v-.1h.1c.2.3.3.7.3 1.1 0 .4 0 .8-.1 1.3.3-.2 1-.6 1-1.5 0-.1 0-.1-.1-.2v-.1h.1c0 .1.1.2.1.3v.2l.1-.1c.1 0 .2.1.2.2 0-.2-.1-.3-.1-.5s0-.5.1-.7c0 0 0-.1.1-.1s.1.1.1.1c-.1.2-.1.4-.1.6 0 .2.1.4.2.6v.1l.2.2v-.7c0-.3 0-.6.1-.9 0 0 0-.1.1-.1s.1.1.1.1c0 .3-.1.6 0 .9 0 .3 0 .6.1.9.1.2.2.3.4.5.2-.5.2-1.1.2-1.6 0-.2-.2-.6-.1-.8-.1-.1-.2-.3-.3-.4-.1-.1-.2-.2-.4-.3 0 0-.1 0 0-.1 0-.1.1-.1.1 0 .2.1.3.2.4.4.1.1.2.3.3.4.2 0 .2.5.4.6.4.2.8.3 1.2.3-.2-.1-.4-.1-.5-.3-.2-.2-.3-.4-.4-.6v-.1h.1c.1.2.2.4.4.6.2.2.8.4 1.1.4-.2-.1-.3-.2-.4-.4-.2-.2-.3-.4-.4-.7-.1-.3-.2-.5-.4-.7-.2-.2-.4-.3-.6-.4 0 0-.1 0 0-.1 0-.1.1-.1.1 0 .3.1.5.3.7.5.2.2.3.5.4.7.1.3.2.5.3.6.1.1.3.3.5.4-.2-.6-.1-1-.3-1.5-.1-.3-.6-.8-.5-.9.1-.1.3.2.6.4.5.2.9.3 1.4.3-.3-.4-.6-.7-.9-1-.3-.3-.6-.4-.9-.4 0 0-.1 0-.1-.1s0-.1.1-.1c.4-.1.7.1 1.1.4.3.2.5.5.8.8 0-.1 0 0-.1-.2-.1-.3-.3-.7-.6-.9-.2-.3-.5-.5-.8-.7 0 0-.1 0 0-.1 0-.1.1-.1.1 0 .4.2.7.4.9.7.2.3.4.5.5.8 0-.2-.1-.4-.2-.6-.1-.3-.2-.5-.5-.8-.2-.2-.5-.4-.5-.5-.1 0-.1 0-.2-.1-.2-.1-.3-.1-.4-.2 0 0-.1 0-.1-.1s.1-.1.1-.1c.1 0 .3.1.5.2.1 0 .2.1.3.2.1 0 .4.1.5.2.5.2 1.2.4 1.8.3l-.6-.3c-.2-.1-.5-.1-.7-.2 0 0-.1 0-.1-.1s0-.1.1-.1c.3 0 .5.1.7.2.2.1.5.2.7.3.2.1.3 0 .4-.1-.3-.3-.5-.6-.5-1-.3-.3-.5-.5-.8-.7-.3-.2-.6-.3-.8-.2 0 0-.1 0-.1-.1s0-.1.1-.1c.3-.1.7 0 1 .2.2.2.5.4.7.6 0-.7-.5-1.3-1.1-1.4-.2 0-.5 0-.5-.1 0-.2.3-.1.6-.2 1-.3 1.8-.7 2.3-1.8-.1.1-.3.2-.5.3-.2.1-.5.2-1 .3-.2 0-.4.1-.6.2-.2.1-.3.2-.4.3 0 0-.1.1-.1 0-.1-.1 0-.1 0-.1.1-.1.3-.3.5-.4.2-.1.4-.2.6-.2.4-.1.7-.2.9-.3.1-.1.3-.1.4-.2-.4 0-.8 0-1.2-.1-.4.1-.8.2-1.1.4-.3.2-.5.3-.5.6 0 0 0 .1-.1.1s-.1-.1-.1-.1c0-.3.3-.5.6-.7l.6-.3h-.3c-.3 0-.3-.2 0-.3.2-.1.5-.4.7-.5.8-.9 1.2-1.9 1.3-3-.1.2-.2.4-.3.5-.2.2-.4.3-.6.4-.1.4-.3.8-.5 1-.3.3-.6.5-1 .6-.1 0-.1-.1-.1-.1.4-.3.6-.6.8-.9.2-.3.2-.7.2-1 0 0 0-.1.1-.1s.1 0 .1.1c0 .4-.1.7-.3 1.1-.1.2-.3.4-.5.7.2-.1.4-.2.5-.4.2-.3.4-.6.5-1 0 0 0-.1.1-.1.2-.1.4-.2.6-.4.1-.2.3-.4.4-.6-.4.2-.8.1-1.2.2-1.7.5-2.2.6-2.7.8z"/><path style="fill:#f7db17" d="M421.9 240.6c-1.8-.3-3.6-.4-5.4-.5-1.8-.1-3.7 0-5.5.1-.1 0 0 .1 0 .1 0 .1.1.1.3.1 1.7-.1 3.4-.1 5.2-.1 1.8.1 3.6.2 5.4.5 0 0 .2-.2 0-.2z"/><path style="fill-rule:evenodd;clip-rule:evenodd;fill:#f7db17" d="M411 240c1.8-.1 3.6-.2 5.4-.1 1.8.1 3.6.2 5.4.5l.1-.3h-.2c-.2 0-.3-.2-.3-.3 0-.2.2-.3.3-.3.1 0 .2.1.3.2l.2-.4c-1.9-.3-3.8-.5-5.8-.5-1.9-.1-3.9 0-5.9.1l.1.4c.1-.1.2-.1.3-.1.2 0 .3.2.3.3 0 .2-.2.3-.3.3h-.1l.2.2zm8.3-.8c-.2 0-.3.1-.3.3 0 .2.1.3.3.3s.3-.1.3-.3c0-.2-.2-.3-.3-.3zm0 .1c-.1 0-.2.1-.2.2s.1.2.2.2.2-.1.2-.2l-.2-.2zm-2.9-.3c-.2 0-.3.1-.3.3 0 .2.1.3.3.3s.3-.1.3-.3c0-.2-.1-.3-.3-.3zm0 .2c-.1 0-.2.1-.2.2s.1.2.2.2.2-.1.2-.2c-.1-.2-.1-.2-.2-.2zm-2.9-.3c-.2 0-.3.1-.3.3 0 .2.1.3.3.3.2 0 .3-.1.3-.3.1-.1-.1-.3-.3-.3zm0 .2c-.1 0-.2.1-.2.2s.1.2.2.2.2-.1.2-.2-.1-.2-.2-.2z"/><path d="M416.6 237c0-.2-.1-.3-.2-.5-.1-.1-.3-.2-.5-.3-.1 0-.1-.2 0-.2.2 0 .3-.2.4-.3.1-.2.2-.4.3-.7 0-.1.2-.1.2 0 0 .2.1.4.2.6.1.2.3.3.5.4.1 0 .1.2 0 .2-.2 0-.3.1-.4.2l-.3.6c-.1.1-.2.1-.2 0zm.1-.3c.1-.1.1-.3.2-.4.1-.1.2-.2.3-.2-.1-.1-.3-.2-.4-.3-.1-.1-.1-.2-.2-.3-.1.2-.1.3-.2.4l-.3.3c.1.1.2.1.3.2l.3.3zm1.6 13.7-1.4.5s-.1 0-.1-.1 0-.1.1-.1l1.4-.5s.1 0 .1.1-.1.1-.1.1zm.2-.9-1.6.8h-.1v-.1l1.6-.8h.1v.1zm-4.9-.3 1.6.9s.1.1 0 .1c-.1.1-.1.1-.1 0l-1.6-.9s-.1-.1 0-.1c0-.1.1 0 .1 0zm.1.8 1.4.6s.1 0 .1.1-.1.1-.1.1l-1.4-.6s-.1 0-.1-.1.1-.1.1-.1zm.6 1.2c.4.1.7.2 1 .1.2 0 .4-.1.5-.4v-1.3c-.3 0-.6-.1-.8-.1-.3-.1-.4-.3-.5-.5-.1-.3 0-.6 0-.9 0 0 0-.1.1-.1s.1.1.1.1c-.1.2-.1.5 0 .8.1.2.2.3.4.4.2.1.5.1.8.1.3 0 .6 0 .8-.1.2-.1.4-.2.5-.3s.2-.3.2-.5c0-.1-.1-.2-.1-.2-.1-.1-.2-.1-.3-.1h-.6c-.1 0-.1 0-.1-.1s0-.1.1-.1h.6c.2 0 .3.1.4.2.1.1.2.2.2.4s-.1.4-.2.6c-.1.2-.4.3-.6.4-.2.1-.5.1-.7.1v1.3c.1.2.3.3.5.4.3.1.6 0 1 0 0 0 .1 0 .1.1s0 .1-.1.1c-.4.1-.7.1-1 0-.2-.1-.4-.2-.6-.4-.1.2-.3.3-.6.3s-.6 0-1-.1c0 0-.1 0-.1-.1-.1-.1-.1-.1 0-.1zm.9.6h1.1c.1 0 .1 0 .1.1s-.1.1-.1.1h-1.1c-.1 0-.1 0-.1-.1s.1-.1.1-.1zm1.9-8.1c.4-.3.8-.6 1.2-.7.4-.2.7-.3 1-.2.1 0 .1 0 .1.1s-.1.1-.1.1c-.2 0-.5.1-.9.2-.3.2-.7.4-1.1.7 0 0-.1.1-.1 0-.2-.2-.1-.2-.1-.2zm-1.6.1c-.4-.4-.8-.7-1.2-.9-.4-.2-.7-.3-1-.3-.1 0-.1 0-.1-.1s0-.1.1-.1c.3 0 .7.1 1.1.3.4.2.8.5 1.2.9 0 0 .1.1 0 .1l-.1.1zm-.7 2.6c.1-.2.2-.4.4-.6.1-.2.3-.3.5-.4 0 0 .1-.1.1 0 .1.1 0 .1 0 .1-.2.1-.3.3-.5.4-.1.2-.3.3-.4.5 0 0 0 .1-.1 0 0 .1 0 .1 0 0zm1.2-4.6.3.6c.1.2.1.5.1.7v.7c0 .2-.1.4-.3.6-.1.2-.3.2-.5.3h-.4c.1.3.1.6 0 .8 0 0-.1.1-.1 0-.1-.1-.2-.1-.3-.2-.1-.1-.2-.1-.3-.1-.2-.1-.5-.2-.6-.3-.2-.1-.3-.2-.4-.3-.1-.1-.2-.3-.2-.5v-.5c-.2-.1-.4-.2-.5-.3-.2-.1-.3-.2-.4-.4 0 0-.1-.1 0-.1.1-.1.1 0 .1 0 .1.1.2.2.4.3.2.1.3.2.5.3.3 0 .7.2 1 .3.3.1.6.3.8.5l.1.1.1.1c.1.1.3.1.4.1.1 0 .2-.1.3-.2.1-.2.2-.4.2-.6v-.6c0-.3 0-.5-.1-.7-.1-.2-.1-.4-.3-.5 0 0-.1-.1 0-.1 0-.1 0 0 .1 0zm-1.1 2.8c-.3-.2-.5-.4-.8-.5-.3-.1-.6-.2-.8-.3v.4c0 .1.1.3.2.4l.3.3c.2.1.3.2.6.3.1 0 .2.1.3.2.1 0 .2.1.2.1.1-.3 0-.6 0-.9zm2.1-2.6c-.1.2-.2.3-.3.5-.1.2-.1.4-.1.7v.6c0 .2.1.4.2.6.1.1.2.2.3.2h.5l.1-.1c.3-.2.6-.4.9-.5.3-.1.7-.2 1-.3l.6-.3c.2-.1.3-.2.4-.3 0 0 .1-.1.1 0 .1.1 0 .1 0 .1-.1.1-.3.2-.4.3-.2.1-.3.2-.5.3 0 .2 0 .3-.1.5 0 .2-.1.3-.3.4-.1.1-.2.2-.4.3l-.6.3c-.1 0-.2.1-.3.1-.1 0-.2.1-.3.2 0 0-.1 0-.1-.1-.1-.3 0-.6 0-.8h-.4c-.2 0-.3-.2-.4-.3-.1-.2-.2-.4-.2-.7v-.7c0-.3.1-.5.1-.7l.3-.6s.1-.1.1 0c-.1.2-.1.3-.2.3zm2.5 2c-.3 0-.6.1-.8.2-.3.1-.6.3-.8.5v.1c-.1.2-.2.5-.1.7.1 0 .2-.1.3-.1.1 0 .2-.1.4-.1l.6-.3c.2-.1.3-.2.4-.3.1-.1.2-.2.2-.4-.3-.1-.2-.2-.2-.3z"/><path style="fill-rule:evenodd;clip-rule:evenodd" d="M418.6 244.1c-.3 0-.6.2-.6.6 0 .3.2.6.6.6.3 0 .6-.2.6-.6 0-.3-.3-.6-.6-.6zm0 .2c-.2 0-.4.2-.4.4s.2.4.4.4.4-.2.4-.4-.2-.4-.4-.4zm0 .1c-.1 0-.2.1-.2.2s.1.2.2.2.2-.1.2-.2c0 0-.1-.2-.2-.2zm-4.5-.5c.3 0 .6.3.6.6s-.3.6-.6.6-.6-.3-.6-.6.3-.6.6-.6zm0 .2c.2 0 .4.2.4.4s-.2.4-.4.4-.4-.2-.4-.4.2-.4.4-.4zm0 .2c.1 0 .2.1.2.2s-.1.2-.2.2-.2-.1-.2-.2c-.1-.1 0-.2.2-.2z"/><path style="fill:#171796" d="M480.5 241.7 458.8 217l-28.4 16.3-4.8 57.5c13.9 1.2 27.5 3.4 40.6 6.8l14.3-55.9z"/><path d="M436 245.3c1-.2 2-.3 2.9.3.4.2.7.4.9.7.4-.3.9-.7 1.3-.9.6-.5 1.3-.9 2-1.1 1-.5 2-.8 3.1-.9 1.1-.2 2.2-.2 3.2-.1.9.1 1.8.3 2.6.8.8.4 1.5.7 2.3 1.1l2.4 1.2c1 .4 2.1.5 3.3.6.6 0 1.2 0 1.7-.1s.7.2.2.5c-3.7 2.3-6.7.3-9.2-.7.9.6 1.7 1.3 2.4 1.9.9.9 2 1.8 3.9 2.7 1.1.5 2.4.9 4 .9.5 0 1.1 0 1.7-.1.3-.1.5 0 .5.1s0 .3-.2.5c-1 .6-1.9.8-2.9.9-1.9.1-4-.5-5.9-1.5-1.5-.8-2.5-1.8-3.7-2.7-1.2-.9-2.2-1.4-3.3-1.6-1.1-.2-2.3-.2-3.3.1.3.1.6.2.7.4.5.3 1.2.4 2.1.5.5.1.3.4-.4.8-.5.6-1.1.9-1.9.8-1.1.7-1.5.3-1.9-.2 0 .3-.1.6-.3.9 0 .2.1.3 0 .5.2.3.3.5.2.8 0 .2.1.3.2.4.2.2.4.4.4.7 0 .2.1.4.3.5.2.2.5.3.7.6.7.2 1 .7 1.1 1.4.5.2.7.5.8 1 .3.1.5.3.7.5 1 0 2 0 3 .1.9.1 1.6.6 2.2 1.3.4.1.9.1 1.3 0 .5-.2.9-.4 1.5-.4.9-.1 1.8-.1 2.6.1.6.1 1 .4 1.4.8.5.6 1.3.5 2 .2.9-.4 1.7-.4 2.7 0 .4-.2.8-.2 1.2-.2.3-.4.7-.5 1.1-.5.6 0 1.1.1 1 .9 0 .2-.2.4-.3.5-.3.6-.8.8-1.5.7-.1.4-.2.7-.5.9.3 1 0 1.4-.7 1.4-.2.3-.4.5-.8.4-.3.3-.6.5-1 .6 0 .3.2.4.3.7.5.7-.2 1-.9 1.1.2.5.2 1 .1 1.5.7.4.8.9.1 1.3.5.8.3 1.4-.6 1.9 0 .5-.1.9-.4 1.2-.2.2-.5.2-.3.5.4.6.3 1.3-.2 1.3-.1 0-.2 0-.2.2 0 .1-.1.1-.2.2-.6.3-1.2.7-1.8 1.2-.1.1-.2.1-.2 0-.4.9-1.1 1.7-1.9 2.6-.1.6-.5 1.1-1.1 1.3 0 .2-.2.3-.4.4.3.4.5.7.1 1.1-.4.4-.9.9-1.5 1-1.1.3-1.8.2-2.3-.2-.4-.4-.2-.7 0-.8-.7.1-.8-.3-.8-.8 0-.2.1-.2.4-.2.4 0 .7-.2 1.1-.3.1-.2.3-.4.5-.6.1-.8.6-1.2 1.3-1.5.5-.2 1.1-.7 1.6-1.4.3-.5.6-1.1.9-1.6-.2-.3-.3-.6-.3-.9-.3-.2-.5-.4-.6-.6-.5 0-.7-.3-.8-.6h-.4c-.2.2-.5.3-.8.3-.4.4-.8.7-1.2 1-.1.4-.4.6-.8.6-1 .1-1.6 1.4-2.2 1.9-.2.2-.4.5-.5.8 0 .7-.2 1.2-.5 1.2s-.4 0-.4-.1h-.4c.3.3.3.7.1 1-.3.3-.6.4-1 .5-.7 0-1.3 0-1.8-.2s-.6-.5-.6-.8c-.4-.2-.4-.4-.4-.5.1-.2.3-.3.5-.3.2-.1.4-.2.7-.2.7-.7 1.3-1.3 2.1-1.6.2-.3.5-.5.8-.7.1-.6.5-1.1 1-1.6 0-.2.1-.5.2-.7v-.3c-.2-.4-.3-.8-.2-1.2-.1-.2-.1-.4-.1-.6-1.2.7-1.6.5-1.7-.1-.4.4-.9.5-1.2 0-.4.1-.9.3-1.3.1-.3.1-.6.2-.9.2-.1.3-.3.5-.5.8 0 .5-.2 1.1-.6 1.6-.2.6-.5 1.2-.8 1.7 0 .2 0 .4-.1.6.1.7-.1 1-.5 1.2-.1.3-.2.5-.5.8v.3c.1.4.2.8-.2 1.2-.3.2-.7.4-1 .6-.4.2-.8.1-1.1 0-.6-.2-.5-.4-.5-.6-.2.1-.4.1-.6 0-.1-.1-.2-.2-.4-.3-.1-.2-.2-.4.1-.6.4-.2.7-.3 1-.6.1-.2.2-.4.4-.5.2-.4.4-.7.7-.8.2-.5.5-1.1.8-1.7.1-.2.2-.3.1-.5 0-.1 0-.3.1-.4.1-.1.2-.1 0-.2-.1-.5-.1-.9.2-1.3.3-.5.7-1.6.3-2.2-.1-.3-.1-.7-.1-1-.1 0-.2 0-.3-.1-.3-.2-.5 0-.7.3-.1.4-.3.7-.4.7-.1.9-.6 1.6-1.1 1.8-.1.4-.2.8-.1 1.3 0 .5 0 .8-.2.8-.2.1-.5.2-.6.6 0 .1-.1.2-.1.4.3.3.2.8-.1 1.1-.7.7-1.6.6-2.5.3-.7-.3-.8-.5-.8-.8-.9-.1-.8-.8 0-1 .8-.2 1.5-.8 2.1-1.6.1-.9.3-1.5.8-1.6 0-.6.2-1.1.5-1.5.2-.4.4-.9.3-1.5-.5-.3-.5-.7-.1-1 .2-.1.1-.2-.1-.3-.3 0-.3-.3-.3-.6 0-.1-.1-.2-.2-.2-.7-.1-.5-.4-.2-.7.1-.1.2-.4.1-.4-.1-.1-.2-.3-.2-.5-.4-.3-.2-.7 0-1-.2-.2-.4-.5-.4-.9-.8 0-1.1-.4-.7-1 .2-.3.4-.5.7-.7.2-.3.4-.6.3-.9-.2-.6.5-1 1.1-1.5-.1-.2-.1-.3-.1-.5-.4-.3-.3-.7.1-1-.1-.2-.1-.3-.1-.5-.9.2-.9-.4-.5-1.2-.5-.3-.4-.8.6-1.6 0-.2 0-.3.1-.4-.4 0-.8.1-1.1.3-.4.2-.7.2-1.1.1-.1-.2-.3-.3-.5-.5s-.3-.5-.2-.7c-1 .1-1.2-.7-.6-1.2.3-.3.6-.6.7-.9.3-.7.9-1.2 1.5-1.7 0-.2 0-.4.1-.6-.3-.2-.5-.3-.8-.3-.1-.3-.3-.6-.6-.7-.2-.1-.3-.2-.1-.5.1-.8.2-1.1.3-1.4z"/><path style="fill:#f7db17" d="M455 272.2h-.2c-.3.3-.6.5-.9.8-.3-.3-.6 0-.3.2-.1 0-.1.1-.2.1-.1.3-.2.5-.6.5h-.2v-.4c0-.2 0-.3.1-.5v-.1h-.1c0 .2-.1.3-.1.5v.4c-.9.3-1.4 1.2-2.1 1.9-.3.2-.4.6-.5.9-.1.2-.1 1-.3 1h-.3c-.1-.1-.2-.2-.4 0h-1.1c-.2.3.4.2.7.4.2.1.2.3.2.5-.3.7-2.1.5-2.6.2-.3-.1-.3-.3-.3-.5h.4c.2 0 .4-.1.6-.2.1 0 .1-.1.1-.2-.1-.1-.1-.1-.2-.1-.2.1-.3.1-.5.2h-.5c-.1-.1-.2-.1-.1-.2 0-.1.2 0 .2 0 .3-.1.5-.2.8-.3.6-.7 1.2-1.3 2.1-1.6.3-.3.5-.5.9-.8.1-.7.5-1.1 1-1.6.1-.3.1-.5.3-.8v-.4c-.2-.4-.3-.7-.2-1.1-.1-.3-.1-.5 0-.8v-.2c.2-.1.3-.3.5-.4.2-.1.3-.2.5-.3v.9c-.1.1-.2.2-.2.3-.1.1-.1.2-.1.3 0 0 0 .1.1.1s.1 0 .1-.1 0-.2.1-.3c0-.1.1-.2.2-.3.3 0 .6-.2.8-.4l.7-.7v1.2c-.2.2-.4.5-.6.8v.1h.1c.1-.3.3-.5.5-.7.1 0 .1 0 .1-.1l.1-.1c.3-.2.6-.4.9-.5-.1.4-.1.7 0 1 0 .7.1 1.1.5 1.4z"/><path style="fill:#f7db17" d="M437.6 262c0-.1.2-.2.2-.2.1-.2.3-.5.4-.7.2-.3.4-.5.6-.7h.1v.1c-.2.2-.4.4-.5.7-.1.2-.3.4-.4.6 0 .1.1.1 0 .2 0 .4.1.6.3.8h.1c.1-.2.2-.3.3-.4.1-.2.3-.3.5-.4.1-.1.3-.2.3-.4.1-.1.2-.2.2-.4 0 0 0-.1.1 0 .1 0 0 .1 0 .1-.1.1-.1.3-.2.4-.1.1-.2.3-.4.4-.2.1-.4.2-.5.4-.1.1-.2.2-.2.4.1.1.1.2 0 .3-.2.3-.5.6-.1.9 0 .2.1.4.2.6.1.1.1.5-.2.8-.2.2-.1.2.2.2h.1c.1-.2.2-.3.3-.5.1-.1.2-.3.4-.4.2-.2.3-.4.4-.6.1-.2.2-.4.2-.6 0 0 0-.1.1-.1s.1 0 .1.1c0 .2-.1.4-.2.6-.1.2-.3.4-.4.6-.1.1-.2.3-.4.4-.1.1-.2.3-.3.5.3.2.2.5.2.8h.2c.1-.1.1-.2.2-.3l.3-.4s0-.1.1 0c.1 0 0 .1 0 .1l-.3.4c-.1.1-.1.2-.2.3.2.1.2.4 0 .6-.4.3-.3.4.1.7.1.4.1.7 0 1v.6s0 .1-.1.1-.1 0-.1-.1v-.4c0 .1 0 .1-.1.2-.3.7-.6 1.2-.7 1.9-.7.2-.6.9-.7 1.5-.6.8-1.2 1.4-2.1 1.7-.2.1-.6.2-.6.4 0 .1.3.2.5.1.5-.5.8-.2.2.3 0 .1 0 .2.1.3.5.5 1.8.6 2.4.2.4-.3.7-.6.3-1 0-.6.3-1.2.9-1.3.1-.1.1-.4 0-.5-.1-.5 0-1 .1-1.5 0-.1.1-.1.2-.1.2 0 .7-.7.8-1.4 0-.1.1-.3.1-.4 0-.2.1-.3.2-.1.1-.1.1-.2.2-.4.2-.3.6-.6 1-.4-.1-.3-.2-.6-.2-.9 0-.4 0-.8.1-1.2 0-.1 0-.1.1-.1.1-.3.2-.6.3-.8.1-.3.2-.6.4-.8 0 0 0-.1.1 0s0 .1 0 .1c-.1.3-.2.6-.4.8-.1.3-.2.6-.3.8.1 0 0 .1 0 .1-.1.3-.1.7-.1 1.1 0 .4.1.8.3 1.1v.1c.2.1.2.1.2.4 0 .2 0 .4.1.6.4.7 0 1.9-.4 2.5-.2.3-.2.6-.2.9.2.2.1.5-.1.6v.2c0 .2-.1.4-.2.6-.3.6-.6 1.2-.8 1.8-.5.1-.5.4-.7.8-.3.1-.3.2-.4.4-.3.3-.6.5-1 .7-.3.1 0 .3.2.4.2.2.5-.2.6-.4.2-.3.4-.2.3 0-.1.2-.2.6-.2.8-.1.2.7.3.8.3.4 0 1-.4 1.4-.6.3-.3.2-.6.1-.9-.2 0-.4 0-.5-.1-.2 0-.4-.1-.6-.2 0 0-.1 0 0-.1 0-.1.1 0 .1 0 .2.1.4.2.6.2.2 0 .3.1.5.1v-.3c.2-.3.4-.6.5-.9.5-.2.5-.5.4-1 .1-.2.1-.3.1-.6.3-.6.6-1.2.8-1.8.4-.5.6-1 .5-1.6 0-.2.1-.4.3-.4l.3-.6h.1c0-.1.1-.3.1-.4 0-.1.1-.2.2-.3.1-.2.1-.3.1-.5s-.1-.3-.2-.5c-.1-.1-.1-.1-.1-.2s0-.2.1-.2h.1v.1s-.1.1 0 .1c0 .1.1.1.1.2.1.2.2.4.2.6 0 .2 0 .4-.1.6-.1.1-.1.1-.1.2s-.1.2-.1.3c.3 0 .5-.1.8-.2.1-.1.3-.3.4-.5.1-.2.2-.4.2-.6 0 0 0-.1.1 0 .1 0 .1 0 0 .1 0 .3-.1.5-.2.7-.1.2-.2.3-.3.4.4.1.8 0 1.2-.1-.1-.6-.1-1 0-1.3.1-.4.2-.6.3-.8h.1v.1c-.1.2-.3.4-.3.8-.1.3-.1.7 0 1.3.2.3.3.5.6.3.1-.1.3-.2.4-.3 0 0 0-.1.1-.1.3-.4.7-.7 1-1 .3-.3.7-.5 1-.8h.1v.1c-.3.2-.7.5-1 .7-.3.3-.6.5-.9.8v.3c0 .4.1.6.7.4.3-.1.3-.1.6-.3.1-.1.3-.2.3-.2.2-.1.4-.3.5-.4.2-.1.4-.2.5-.3 0-.2.1-.4.1-.6.2-.5.5-1 .8-1.4.3-.2.6-.4.7-.6.2-.2.3-.5.5-.7 0 0 0-.1.1 0 .1 0 0 .1 0 .1-.1.3-.3.5-.5.8-.2.2-.5.4-.8.6-.4.4-.6.9-.8 1.4-.1.2-.1.3-.1.5v1c.2 0 .5-.1.8-.4.3-.2.5-.5.8-.8l.3-.6c.1-.2.3-.3.4-.4h.1v.1c-.2.1-.3.2-.4.3-.1.1-.2.3-.3.5v1.2c.3-.2.7-.4 1-.6 0 0 .1 0 .1.1-.1.4-.1.7 0 1.1.1.3.2.6.5.9.1-.2.2-.4.4-.5 0-.1.1-.1.1-.2l.3-.3c.1-.1.2-.2.3-.2.1-.1.2-.2.3-.2h.1v.1c-.1.1-.2.2-.3.2-.1.1-.2.2-.3.2l-.3.3v.5c.2.1.4.1.6.1.1.5.1.6.6.6v-.5c0-.2.1-.4.1-.6 0 0 0-.1.1 0 .1 0 0 0 0 .1-.1.2-.1.3-.1.5v.5c.2.4.4.5.7.7.1-.2.2-.3.2-.5.1-.2.1-.4.1-.5 0 0 0-.1.1-.1s.1 0 .1.1c0 .2 0 .4-.1.6l-.3.6c0 .2.1.4.1.5.1-.1.1-.2.2-.3.1-.2.2-.3.3-.4h.1v.1c-.1.1-.2.2-.3.4-.1.1-.1.3-.2.4 0 .1.1.1.1.2-.7 1.2-1.4 2.8-2.8 3.3-.7.3-1 .6-1.1 1.4-.3.2-.4.4-.6.7-.5.2-.9.4-1.3.4 0 .3.1.5.4.5.6-.3.7-.4.8-.3.1.1-.1.5-.6.9-.1 0-.1.1 0 .2.4.7 1.5.4 2.1.3.4-.1 1.2-.6 1.4-1 .1-.2-.1-.5-.3-.7-.9.1-.7-.7 0-.3.2-.1.3-.1.3-.4.7-.3.9-.5 1.1-1.2.7-.7 1.3-1.4 1.8-2.3.1-.2.2-.4.2-.6.1-.1.2-.3.2-.5s.1-.3.1-.5c0 0 0-.1.1-.1s.1 0 .1.1c0 .2 0 .4-.1.5 0 .1-.1.3-.1.4 0 .1.1.2.2.2.6-.5 1.1-.8 1.8-1.2 0-.3.2-.4.5-.4.1 0 .1 0 .2-.1.1-.4 0-.6-.2-.9-.2-.4.1-.6.4-.8.3-.2.3-.8.3-1.1v-.2c0-.1-.1-.2-.1-.4v-.1h.1c0 .1.1.3.1.4v.1c.3-.1.6-.3.7-.6.1-.4-.1-.7-.3-1-.1 0-.1.1-.2.1-.1.1-.3.1-.4.2h-.1v-.1c.2-.1.3-.1.4-.2.1-.1.2-.1.3-.2.1-.1.3-.2.4-.3.2-.3-.3-.6-.5-.7-.3-.3-.6-.5-.8-.8v-.1h.1c.3.2.5.5.8.7 0-.4 0-.9-.1-1.3 0-.1-.1-.3-.1-.4-.2-.1-.4-.3-.5-.4-.1-.2-.2-.4-.2-.6 0 0 0-.1.1-.1s.1 0 .1.1c0 .2.1.4.2.5.1.2.2.3.5.4.2.1.7.1 1-.1.4-.2-.1-.7-.2-.9-.1-.2-.1-.4-.1-.6h.1l-.2-.2c-.1-.1-.1-.1-.2-.1 0 0-.1 0 0-.1 0-.1 0 0 .1 0s.2.1.2.1l.2.2h.1c.4-.1.6-.3.8-.6-.1-.2-.3-.3-.4-.4-.2-.1-.3-.3-.5-.4v-.1c0-.1.1 0 .1 0 .2.1.3.3.5.4.2.1.3.3.4.5v.1c.4 0 .4 0 .6-.4 0-.2-.1-.3-.2-.5s-.2-.3-.4-.4v-.1h.1c.1.1.3.3.4.5.1.2.2.3.2.5.2 0 .3 0 .5-.1.3-.2 0-.8 0-1.1l-.1-.1c-.1 0-.1-.1-.2-.1v-.1c0-.1.1 0 .1 0 .1 0 .1.1.2.1s.1.1.2.1l.1-.1c.2-.2.3-.4.4-.7.1-.4.1-.2.6-.3.5-.1.7-.1 1-.7.1-.1.2-.1.3-.3 0-.3 0-.5-.4-.5-.5 0-.9.1-1.2.4 0 .1.1.1.1.2v.1h-.1c0-.1-.1-.1-.1-.2-.5 0-.9 0-1.3.2 0 0-.1 0-.1-.1.1.1.2.3.2.4.1.2.1.3.1.5 0 0 0 .1-.1.1s-.1 0-.1-.1 0-.3-.1-.4c-.1-.2-.2-.3-.3-.5-.4-.1-.7-.2-1.1-.2l.2.2c.1.1.2.1.2.2v.1h-.1c-.1-.1-.2-.1-.2-.2-.1-.1-.2-.1-.2-.2-.3 0-.6.1-1 .2-.2.1-.4.2-.7.2.2.2.3.3.4.5.1.2.2.4.3.7v.1h-.1c-.1-.2-.1-.5-.2-.6-.1-.2-.2-.4-.4-.5v-.1h-.6l.2.4v.1h-.1l-.2-.5c-.2 0-.4-.1-.5-.2.1.2.1.4.1.7 0 .3.1.7.1 1 0 0 0 .1-.1.1s-.1 0-.1-.1c0-.4 0-.7-.1-1 0-.3-.1-.6-.2-.8-.1-.1-.2-.1-.2-.2-.2-.2-.4-.4-.6-.5v.3c0 .2-.1.4-.2.5h-.1v-.1c.1-.2.2-.3.2-.5v-.3c-.4-.2-.8-.3-1.2-.3.1.1.2.3.3.4.1.2.2.4.3.5.2.1.3.3.3.5s.1.4.1.6c0 0 0 .1-.1.1s-.1 0-.1-.1c0-.2 0-.4-.1-.5 0-.2-.1-.3-.3-.4-.1-.2-.2-.4-.3-.5-.1-.2-.2-.3-.4-.5h-.4s0 .1.1.1c.1.1.1.2.1.3 0 0 0 .1-.1.1s-.1 0-.1-.1 0-.2-.1-.2c0-.1-.1-.1-.1-.2-.3 0-.6 0-.9.1.3.4.5.8.7 1.2.2.4.3.9.4 1.4v.1h-.1c-.1-.5-.2-.9-.4-1.3s-.4-.8-.7-1.2c-.2 0-.5.1-.7.1.1.1.2.1.3.2.1.1.2.2.3.2v.1c0 .1-.1 0-.1 0-.1-.1-.1-.2-.2-.2-.1-.1-.2-.2-.3-.2-.1 0-.2.1-.3.1-.1 0-.1 0-.2.1.2.1.4.3.6.5.2.2.4.4.6.7v.1h-.1c-.2-.3-.4-.5-.6-.7-.2-.2-.4-.4-.6-.5-.2.1-.5.1-.7.1.1.3.3.6.4.9.1.3.2.7.2 1 0 0 0 .1-.1.1s-.1 0-.1-.1c0-.3-.1-.6-.2-1-.1-.3-.2-.6-.4-.9h-.4c.1.3.2.6.2.8.1.3.1.7.2 1 0 0 0 .1-.1.1s-.1 0-.1-.1c0-.3-.1-.7-.2-1-.1-.3-.2-.6-.2-.9-.4-.5-.9-.9-1.5-1.1.1.1.2.3.3.5.1.3.2.5.1.8 0 0 0 .1-.1.1s-.1 0-.1-.1c0-.3 0-.5-.1-.8-.1-.2-.2-.4-.4-.6-.1 0-.3-.1-.4-.1-.4 0-.7-.1-1.1-.1.3.3.5.5.5.8 0 0 0 .1-.1.1s-.1 0-.1-.1c0-.3-.2-.5-.6-.8h-.7c.1.1.2.3.3.4.1.2.2.3.2.5 0 .3.1.5.2.7.1.2.3.3.5.4 0 0 .1 0 0 .1s-.1 0-.1 0c-.2-.1-.4-.3-.6-.5-.1-.2-.2-.5-.2-.7 0-.2-.1-.3-.2-.5-.1-.1-.2-.3-.4-.4h-.7c.1.3.2.6.2.9.1.4.1.8.1 1.2 0 0 0 .1-.1.1s-.1 0-.1-.1c0-.4 0-.8-.1-1.1-.1-.3-.1-.6-.2-.9h-.1c-.2-.3-.3-.4-.5-.5v.1c0 .1-.1.2-.1.2h-.1v-.1c0-.1.1-.1.1-.2v-.1s-.1 0-.1-.1c-.1-.5-.2-.7-.6-.9v.4c0 .2-.1.4-.2.5 0 0 0 .1-.1 0-.1 0 0-.1 0-.1.1-.2.2-.3.2-.5v-.5h-.1c-.1-.7-.2-1.1-1-1.4v.3c0 .2 0 .3-.1.5 0 0 0 .1-.1 0-.1 0 0 0 0-.1.1-.2.1-.3.1-.4v-.4c-.2-.2-.4-.3-.6-.5 0 .3 0 .5-.1.8-.1.3-.2.6-.4.9 0 0 0 .1-.1 0-.1 0 0-.1 0-.1.2-.3.3-.6.4-.9.1-.3.1-.6.1-.9-.1-.1-.2-.2-.2-.3 0 .1-.1.1-.1.2 0 0 0 .1-.1 0-.1 0 0-.1 0-.1 0-.1.1-.1.1-.2s0-.1.1-.2v-.1c0-.2-.1-.4-.3-.5 0 .1 0 .1-.1.2s-.1.2-.2.3h-.1v-.1c.1-.1.1-.2.2-.3 0-.1.1-.2.1-.3-.1-.1-.1-.2-.2-.3 0 .1-.1.1-.1.2l-.2.2h-.1v-.1l.2-.2c.1-.1.1-.1.1-.2s.1 0 0-.2c.1-.3-.1-.5-.2-.8-.1 0-.2 0-.4.1s-.3.2-.5.3h-.1v-.1c.2-.1.4-.2.5-.3.2-.1.3-.1.4-.1v-.3c-.5.2-1 .3-1.3.3-.4 0-.6 0-.9-.1 0 0-.1 0 0-.1 0-.1.1 0 .1 0 .2.1.5.1.8.1.3 0 .7-.1 1.3-.3.1-.2.2-.4.2-.6-.2.1-.4 0-.6 0 0 0-.1 0-.1-.1s0-.1.1-.1c.2 0 .4 0 .6-.1v-.2c0-.2.3-.3.5-.1.2.2.3.4.5.4.3.2.7 0 .9-.2-.1 0-.2-.1-.2-.1s-.1 0 0-.1c0-.1 0 0 .1 0s.2.1.3.1l.1-.1c.7.1 1.1-.1 1.5-.5h-1c-.3 0-.6-.1-.8-.2 0 0-.1 0 0-.1 0-.1.1 0 .1 0 .2.1.4.2.7.2h1.1l.1-.1c.2-.1.4-.2.5-.3-.8-.1-1.5-.2-2.2-.6-.2-.2-.5-.3-.8-.4-.6-.1-1.1.1-1.5.3l-.3-.3c-.2 0-.3-.1-.5-.1h-.7s-.1 0-.1-.1 0-.1.1-.1h.7c.2 0 .4.1.7.2.8-.3 1.4-.4 1.9-.4.6-.2 1.3-.3 1.9-.2-.1-.1 0-.1 0-.2.4-.4.4-.7.3-1-.1-.3-.4-.6-.9-.9-.5.1-.9-.1-1.4 0-.3 0-.6.1-.9.2.3.1.5.2.7.5.2.3.4.6.5 1.1 0 .1 0 .1-.1.1s-.1 0-.1-.1c-.1-.4-.2-.7-.4-1-.2-.3-.7-.4-.8-.5-.5.1-1 .1-1.4.2-.3.1-.6.2-.8.4.3-.1.7-.1 1 .1.3.1.5.4.7.8 0 .1 0 .1-.1.1s-.1 0-.1-.1c-.1-.4-.3-.6-.6-.7-.5-.2-1.4 0-1.8.3-.2.2-.5.4-.7.7 0 .1-.1.1-.2 0s-.1-.1 0-.2c.2-.3.5-.5.7-.7.2-.2.5-.3.8-.4.3-.3.7-.5 1.1-.6.4-.1 1-.2 1.5-.2-.2-.3-.3-.5-.6-.6-.2-.1-.5-.1-.8-.1-.6.2-1.2.5-1.7.9h.5c.1 0 .1 0 .1.1s-.4 0-.5 0h-.6c-.6.4-1.1.8-1.7 1.3h-.1c-.5 0-.8 0-1 .2-.2.1-.2.3-.2.6-.1.3-.2.6-.2.9-.6.5-1.2 1-1.5 1.7-.1.2-.2.4-.3.5.1 0 .2.1.3.1 0 0 .1 0 .1.1 0-.1 0-.2.1-.4 0-.2.1-.3.2-.4h.1c.1 0 0 .1 0 .1-.1.1-.1.3-.2.4 0 .2-.1.4-.1.6 0 .1-.1.1-.1 0s-.1-.2-.1-.2c-.1-.1-.2-.1-.3-.1-.1.1-.3.2-.4.4-.1.1-.2.2-.2.3 0 .3.3.3.6.3.7 0 .1.4.5.8.2.1.3.3.5.5.3.1.4.1.6 0 0-.5 0-.7.2-.7v-.2c0-.1.1-.2.2-.3h.1c.1 0 0 .1 0 .1-.1.1-.1.2-.1.2v.6c.4-.2.7-.2 1.1-.3.7-.9 1.1-.6.4 0 0 .1-.1.1-.1.2-.1.2-.2.4-.2.7-.2.2-1.1.9-.8 1.2.2 0 .4 0 .3.2-.1.2-.5.7-.3 1 0 .1.2.1.3.1.2-.2.5-.4.7-.7.2-.3.5-.6.6-.9 0 0 0-.1.1-.1.1-.3.2-.5.3-.8.1-.3.2-.6.3-.8h.1c.1.1.2.3.3.3.1.1.2.1.3.1.1 0 .2 0 .3-.1l.3-.3h.1v.1c-.1.1-.2.3-.3.3-.1.1-.2.1-.3.1-.1 0-.2 0-.3-.1l-.3-.3c-.1.2-.2.5-.3.7-.1.3-.2.5-.3.8.1.1 0 .1 0 .1-.2.4-.4.7-.7.9l-.6.6c0 .2.1.4.2.6.4-.3.8-.7 1.1-1.1.3-.4.6-.7.8-1.1 0 0 0-.1.1 0 .1 0 0 .1 0 .1-.1.2-.3.4-.4.6v.1s-.1.2-.1.4v.8s0 .1-.1.1-.1 0-.1-.1v-1l-.3.3c-.3.4-.7.7-1.1 1.1v.1c-.4.3-.6.3-.2.7.1-.1.3-.2.4-.3l.4-.3h.1v.1l-.4.3c-.1.1-.3.2-.4.3 0 .2 0 .3.1.4h.1c.3-.2.6-.4.9-.7h.1c.1 0 0 .1 0 .1l-.9.6-.1.1c-.3.2-1.3.8-1.2 1.3.2-.1.5-.2.7-.3.2-.1.5-.3.7-.5h.1v.1c-.2.2-.5.4-.7.5v.2s0 .1-.1.1-.1 0-.1-.1v-.2c-.2.1-.4.2-.6.2.1.4-.1.8-.3 1.1-.1.1-1.1.9-.7 1.2-.3-.1-.2-.1 0-.1zm.4-14.4c-.2-.1-.5-.3-.8-.3-.1-.3-.3-.5-.6-.6-.2-.1-.2-.1-.1-.3.2 0 .3-.1.3-.1h.3c.1 0 .2.1.2.2h.1v-.1c-.1-.1-.2-.2-.3-.2-.1 0-.3-.1-.4-.1-.1 0-.2-.1-.4-.1-.2-.1-.3-.3-.2-.5.1 0 .2.1.3.1.1 0 .2.1.2.1h.1v-.1c-.1-.1-.2-.1-.3-.2-.1 0-.2-.1-.3-.1.9-.2 1.7-.2 2.5.3.4.2.6.4.8.7l-.2.2c-.5 0-.9.1-1.1.2 0 .3 0 .6-.1.9z"/><path d="M455.5 272c-.2.1-.3.2-.5.2.1-.2.2-.4.4-.6l.1-.1v.5zm2.2 4.7c-.1.2-.3.3-.4.5-.2.1-.3.3-.5.4h-.1v-.1c.2-.1.4-.3.5-.4.2-.2.3-.3.5-.4 0-.1 0-.1 0 0 .1-.1.1 0 0 0zm1.5-1.7c-.1.1-.1.2-.2.3h-.1v-.1c0-.1.1-.2.3-.2-.1-.1-.1-.2 0 0 0-.1 0-.1 0 0zm-.8-.2c0 .2-.1.3-.2.5-.1.1-.3.3-.5.4h-.1v-.1c.2-.1.3-.2.4-.3.1-.1.2-.3.2-.4.1-.1.1-.1.2-.1zm1.4-1.7-.2.2c0 .1-.1.2-.1.2s0 .1-.1 0c-.1 0 0 0 0-.1s.1-.2.1-.3c.1.1.2 0 .3 0 0-.1 0-.1 0 0 .1 0 0 0 0 0zm1.2.1c-.1.2-.1.3-.2.5s-.1.3-.2.5c0 0 0 .1-.1 0-.1 0 0-.1 0-.1.1-.2.2-.3.2-.5.1-.2.1-.3.2-.5l.1.1zm-.5-6.8c.4.5.4 1.1.5 1.6 0-.2.1-.4.1-.6.2-.2.2-.4.3-.6v-.7h.1v.7c-.1.2-.1.4-.3.7-.1.4-.2.7-.2 1.1v.1c0 .1-.1 0-.1 0v-.1c-.1-.8-.1-1.5-.4-2.2-.1 0-.2 0 0 0-.1-.1 0 0 0 0zm-.9 1.1v.2s0 .1-.1.1-.1 0-.1-.1v-.2h.2zm-.3 1.6c.1.3.2.6.2.9 0 .2.1.4.1.6l.1-.1c.1-.1.2-.2.4-.3h.1v.1c-.1.1-.3.2-.3.3-.1.1-.1.2-.2.4 0 .1-.1 0-.1 0 0-.3 0-.6-.1-.9 0-.3-.1-.6-.2-.9-.1-.1-.1-.1 0-.1 0-.1 0-.1 0 0zm1.3.5c.1.2.1.5.1.7v.6s0 .1-.1.1-.1 0-.1-.1v-.6c0-.2 0-.4-.1-.7h.2zm1-.2c0 .2.1.4.1.6 0 .2-.1.4-.1.6-.1.2-.1.4 0 .7 0 .2.1.4.2.7v.1h-.1c-.1-.2-.2-.5-.2-.7v-.7c.1-.2.1-.4.1-.6 0-.2 0-.4-.1-.6 0-.1 0-.1.1-.1zm.5-1.7c0 .1-.1.2-.1.3 0 .1-.1.2-.1.3 0 0 0 .1-.1 0-.1 0-.1 0 0-.1 0-.1.1-.2.1-.3 0-.1.1-.2.1-.3l.1.1c.1-.1.1-.1 0 0zm-.5-3c0 .1.1.2.1.3v.1h-.1c0-.1-.1-.2-.1-.3 0 0 0-.1.1-.1zm.3-2.2v.9c-.1.1-.2.3-.3.4 0 .2-.1.4 0 .7v.1h-.1c-.1-.3 0-.5 0-.7.1-.2.2-.4.3-.5v-.8c0-.1 0-.1.1-.1zm-2.2-.7c.3.2.6.5.8.8.2.3.3.6.3 1 0 0 0 .1-.1.1-.2-.1-.4-.2-.6-.2.1.8.1 1.5-.1 2s-.5.9-1.1 1.1c0 0-.1 0-.1-.1.1-.3.2-.6.2-.9v-1h.1c.1.3.1.6 0 1 0 .3-.1.6-.1.8.4-.2.7-.5.9-1 .2-.5.2-1.2.1-2 0 0 0-.1.1-.1l.6.3c0-.3-.1-.6-.3-.9-.2-.4-.5-.6-.7-.9-.1 0-.1 0 0 0-.1-.1 0-.1 0 0zm5.8-1.2v.2s0 .1-.1 0 0 0 0-.1v-.2l.1.1zm-1.4 0c.1 0 .2.1.3.2.1.1.1.2.2.3v.1h-.1c0-.1-.1-.2-.2-.2l-.2-.2c-.1-.1-.1-.1 0-.2-.1 0 0 0 0 0zm-2 .6.3.6c.1.2.1.4 0 .7 0 0 0 .1-.1.1s-.1 0-.1-.1v-.7c0-.2-.1-.4-.1-.6-.1 0-.1 0 0 0-.1-.1 0-.1 0 0zm-6.8.6v.4s0 .1-.1.1-.1 0-.1-.1v-.4h.2zm1.2-.6c0 .1.1.2.1.3v.2h-.1v-.1c0-.1-.1-.2-.1-.3 0-.1 0-.2.1-.1 0-.1 0-.1 0 0zm2.6 1.7v.2s0 .1-.1.1-.1 0-.1-.1v-.2h.2c0-.1 0 0 0 0zm.9-2c.1.1.1.1.1.2v.2s0 .1-.1 0c-.1 0 0-.1 0-.1v-.3c-.1.1-.1.1 0 0zm-6.2.3c0 .1 0 .3.1.4 0 .1.1.2.2.4s.2.3.2.5v.4s0 .1-.1.1-.1 0-.1-.1v-.4c0-.1-.1-.3-.2-.4-.1-.1-.2-.3-.2-.4-.1-.1-.1-.3-.1-.4.1-.1.1-.1.2-.1zm2.5 1.7c.1.3.2.5.2.8v.8c-.1.3 0 .6.2.9.2.3.4.5.7.8-.1-.3-.2-.7-.1-1 0-.4.1-.8.4-1.1.1-.1.2-.3.2-.5.1-.2.1-.3.1-.5 0 0 0-.1.1-.1s.1 0 .1.1c0 .2-.1.3-.1.5-.1.2-.1.3-.3.5-.3.3-.4.7-.4 1 0 .4.1.7.2 1.1 0 .1 0 .1-.1.1-.4-.3-.7-.6-.9-.9-.2-.3-.3-.6-.2-1 0-.3.1-.5 0-.7s-.1-.5-.2-.7c0 0 0-.1.1-.1zm-1 1.6c0 .3-.1.6-.2.8-.1.2-.3.4-.4.7.1 0 .2-.1.3-.1.2-.1.3-.2.5-.3l.3-.3c.1-.1.2-.2.3-.4h.1v.1c-.1.2-.2.3-.3.4l-.3.3v.5h-.1v-.3c-.1.1-.3.2-.4.2-.2.1-.3.1-.5.2-.1 0-.1-.1-.1-.1.2-.3.4-.5.5-.8.1-.3.2-.5.2-.8 0-.2 0-.2.1-.1 0-.1 0-.1 0 0zm-1.2-.1v.3s0 .1-.1.1-.1 0-.1-.1v-.3c.1-.1.1-.1.2 0 0-.1 0-.1 0 0z"/><path d="M453.3 262.9c.2.4.2.8.1 1.1-.1.3-.2.7-.5 1-.2.2-.4.4-.5.7-.1.2-.2.4-.2.6.1-.1.1-.2.2-.2.2-.2.3-.3.6-.3.2-.1.5-.3.7-.5l.6-.6h.1v.1l-.6.6c-.2.2-.5.3-.7.5-.2.1-.4.2-.5.3s-.3.3-.4.5h-.1c.1-.3.1-.6.3-.9.1-.3.3-.5.6-.7.2-.3.4-.6.4-.9.1-.3 0-.7-.1-1-.1-.3-.1-.4 0-.3 0-.1 0-.1 0 0zm2.5 4c0 .1 0 .2.2.4l.1.1c.2.3.3.6.3.9 0 .3-.1.7-.1 1 0 .1-.1.1-.1 0-.1-.4-.2-.7-.4-1-.2-.3-.5-.5-.9-.8v-.1h.1c.4.2.7.5.9.8.2.2.3.5.4.7 0-.2.1-.5.1-.7 0-.3-.1-.6-.3-.9 0-.1-.1-.1-.1-.1-.2-.2-.3-.4-.2-.5-.1.1-.1.1 0 .2 0-.1 0-.1 0 0zm1.1-.1.1.1.1.1v.1h-.1l-.1-.1s-.1-.1 0-.2c-.1 0-.1 0 0 0-.1-.1 0 0 0 0zm1.3.4c-.1.3-.2.5-.2.8-.1.3-.2.5-.2.8 0 0 0 .1-.1 0-.1 0 0 0 0-.1.1-.3.2-.5.2-.8.1-.3.2-.5.2-.8l.1.1c0-.1 0 0 0 0zm.7 4.4v.3h-.1v-.3c0-.1 0-.1.1 0 0-.1 0-.1 0 0zm-.8-1.3c0 .1-.1.3-.1.4 0 .1-.1.3-.1.4 0 0 0 .1-.1 0-.1 0-.1 0 0-.1 0-.1.1-.3.1-.4 0-.1.1-.3.1-.4l.1.1c.1-.1.1 0 0 0zm-1.1 0 .1.1v.1h-.1v-.2c-.1 0-.1 0 0 0 0-.1 0 0 0 0zm-1.3-.6c0 .1-.1.2-.1.2 0 .1-.1.2-.1.2s0 .1-.1 0c-.1 0 0 0 0-.1s.1-.2.1-.2c0-.1.1-.2.1-.2l.1.1c0-.1 0-.1 0 0zm-1.8 1.9c-.1.1-.1.2-.2.3 0 .1-.1.2-.1.3 0 0 0 .1-.1 0-.1 0-.1 0 0-.1 0-.1 0-.2.1-.3 0-.1.1-.2.3-.2-.1-.1-.1-.1 0 0zm-5.4 5.3c0 .1-.1.1-.1.2s-.1.1-.2.2h-.1v-.1l.2-.2c0-.1.1-.1.1-.1 0-.1 0-.1.1 0 0-.1 0 0 0 0zm.8-.5c0 .1-.1.1-.1.2 0 0-.1.1-.2.1h-.1v-.1c.1 0 .1-.1.1-.1l.1-.1c.1 0 .1-.1.2 0 .1 0 0 0 0 0zm1.1-.6c-.1.1-.1.2-.2.2h-.1v-.1l.1-.1c.1 0 .1-.1.2 0 0-.1 0-.1 0 0 .1-.1.1-.1 0 0zm1.7-4.4c-.1.2-.1.3-.1.5v.6h-.1v-.5c0-.2.1-.3.1-.5s0-.2.1-.1c0-.1 0 0 0 0zm1.2-11.6c0 .1 0 .3-.1.4s-.1.3-.3.4h-.1v-.1c.1-.1.2-.2.2-.3.1-.1.1-.2.1-.3 0-.1 0-.2.2-.1 0-.1 0 0 0 0zm-1.2-1c.1.2.2.4.2.5v.5s0 .1-.1.1-.1 0-.1-.1v-.5c0-.2-.1-.3-.2-.5h.2c0-.1 0-.1 0 0zm-1.5 1.9c-.2-.2-.4-.3-.5-.5-.1-.2-.1-.3-.1-.5 0 0 0-.1.1 0 .1 0 .1 0 0 .1 0 .1 0 .3.1.4.1.1.2.2.4.5 0-.1.1-.1 0 0zm1.7 2.9v.2s0 .1-.1.1-.1 0-.1-.1v-.2s0-.1.2 0c0-.1 0 0 0 0zm-2.2-2.2c.3.3.5.7.7 1.2.1.3.1.6.1.9.2-.1.3-.2.4-.4.1-.2.1-.6.1-1 .1-.2.2-.4.2-.6.1-.2.1-.4.1-.6 0-.1.1-.1.1 0 .2.3.4.6.5.9.1.3.2.6.3 1 0 0 0 .1-.1.1s-.1 0-.1-.1c0-.3-.1-.7-.3-1-.1-.3-.2-.5-.4-.7 0 .2 0 .3-.1.5s-.1.4-.3.6c0 .4-.1.8-.1 1-.1.3-.2.4-.4.5h-.1v.4s0 .1-.1.1-.1 0-.1-.1c0-.5 0-.9-.1-1.4.1-.5-.1-.9-.3-1.3-.1.1-.1 0 0 0-.1-.1 0 0 0 0zm1.3 5.5c0 .2 0 .3-.1.5 0 .2 0 .3-.1.5 0 0 0 .1-.1 0-.1 0-.1 0 0-.1 0-.2 0-.3.1-.5 0-.2 0-.3.1-.5-.1 0 0 0 .1.1 0-.1 0-.1 0 0zm-2.5 1c0 .1 0 .2.1.3v.1h-.1c0-.1 0-.2-.1-.3 0-.1 0-.1.1-.1 0-.1 0 0 0 0zm2.1-2.8c0 .2-.1.5-.2.7-.1.2-.2.4-.4.6-.2.2-.3.5-.3.7 0 .2 0 .5.1.8v.1h-.1c-.1-.3-.1-.5-.1-.8 0-.3.1-.5.4-.8.2-.2.3-.4.4-.6.1-.2.1-.4.2-.6-.1-.2-.1-.2 0-.1 0-.1 0 0 0 0zm-.5-.8c0 .2 0 .4-.1.7-.1.2-.2.4-.4.7-.2.2-.3.4-.5.5l-.3.6s0 .1-.1 0c-.1 0 0 0 0-.1l.3-.6c.1-.2.3-.4.5-.6.2-.2.3-.4.4-.6.1-.2.1-.4.1-.6-.1-.1-.1-.1.1 0 0-.1 0-.1 0 0zm-2.7 1.2c.1.4 0 .8-.2 1.2-.2.3-.4.6-.8.9h-.1v-.1c.3-.2.6-.5.7-.8s.2-.7.2-1.1c0-.1 0-.1.2-.1zm-3.5 2c0 .1.1.1.1.2s.1.1.1.2v.1h-.1c0-.1-.1-.1-.1-.2s-.1-.1-.1-.2 0-.1.1-.1c0-.1 0-.1 0 0zm-1.4 0c0 .3 0 .5.1.8.1.3.2.5.3.7.1.2.1.4.2.5v.4c.2-.2.3-.4.4-.5.1-.2.2-.4.2-.7 0 0 0-.1.1-.1s.1 0 .1.1c0 .3-.1.5-.2.7-.1.2-.3.5-.5.7h-.1c0-.2 0-.3-.1-.5 0-.2-.1-.3-.2-.5-.2-.2-.3-.5-.4-.8-.1-.3-.1-.5-.1-.8.1 0 .1-.1.2 0 0-.1 0 0 0 0zm.2 4.7c0-.1 0-.3.1-.4 0-.1.1-.3.1-.4 0 0 0-.1.1 0 .1 0 0 0 0 .1-.1.1-.1.3-.1.4 0 .1-.1.3-.1.4 0-.1 0-.1-.1-.1zm-.2 1.3c0-.2 0-.3.1-.5 0 0 0-.1.1-.1s.1 0 .1.1c0 .2 0 .3-.1.5 0 0 0 .1-.2 0zm-.8 2.2c.1-.1.2-.2.2-.3.1-.1.2-.2.2-.4 0 0 0-.1.1 0 .1 0 0 .1 0 .1-.1.1-.2.3-.2.4-.1.1-.2.2-.3.2 0 .1 0 .1 0 0-.1 0-.1 0 0 0zm-1.3-7.4v.2s0 .1-.1.1-.1 0-.1-.1v-.2h.2zm-2.2 5.1v-.4s0-.1.1-.1.1 0 .1.1v.4h-.2zm5.5-9c-.1.4-.2.8-.2 1.1 0 .3.1.6.3.8.3.2.4.5.5.7 0-.1.1-.3.1-.4v-.6h.1v.5c0 .2-.1.4-.1.6 0 0-.1.1-.1 0s-.1-.1-.1-.2c-.1-.2-.2-.5-.5-.7-.3-.2-.4-.5-.4-.9s.1-.8.2-1.2c.1.2.1.2.2.3 0-.1 0 0 0 0zm-.4-1.5v.9c-.1.3-.1.6-.3.9-.1.4-.2.7-.2 1.1 0 .4.1.8.3 1.1v.1h-.1c-.2-.4-.3-.8-.3-1.2 0-.4 0-.8.2-1.2.1-.3.2-.6.3-.8.1-.3.1-.5 0-.8 0-.1 0-.1.1-.1 0-.1 0 0 0 0zm-2.6 3.7c-.1.2-.1.4-.1.5 0 .2.1.4.2.5v.1h-.1c-.1-.2-.2-.4-.2-.6 0-.2 0-.4.1-.6l.1.1c0-.1 0-.1 0 0zm-1.1-.4v.3c0 .1 0 .2-.1.3-.1.1-.1.2 0 .3 0 .1.1.2.1.3v.1h-.1c-.1-.1-.1-.2-.2-.4 0-.1 0-.2.1-.4 0-.1.1-.2.1-.3v-.3l.1.1c0-.1 0-.1 0 0zm6.5-9.7v.9c.1.3.2.5.3.8v.1h-.1c-.1-.3-.3-.5-.3-.8-.1-.3-.1-.6 0-.9 0-.2 0-.2.1-.1 0-.1 0 0 0 0zm-.8.8c.2.3.3.6.4.9s.2.7.2 1.1c0 0 0 .1-.1.1s-.1 0-.1-.1c0-.4-.1-.7-.2-1s-.2-.6-.4-.9c.1-.1.1-.1.2-.1 0-.1 0-.1 0 0zm-4 .1c-.4.6-.6 1-.6 1.4 0 .4.1.7.2 1 .1.3.2.6.1.9 0 .3-.1.6-.2.9 0 0 0 .1-.1 0-.1 0 0 0 0-.1.1-.3.2-.6.2-.9 0-.3 0-.6-.1-.9-.2-.3-.3-.7-.2-1.1 0-.2.2-.7.7-1.2-.1-.1-.1-.1 0 0zm3.7-1.6c0 .2 0 .3-.1.5s-.2.3-.4.4c-.2.1-.3.3-.3.5-.1.2 0 .5 0 .8v.1h-.1c-.1-.3-.1-.6 0-.8.1-.2.2-.5.4-.6.2-.1.3-.3.3-.4.1-.1.1-.3.1-.4 0-.1 0-.1.1-.1 0-.1 0 0 0 0zm-4 .3c.1.2.1.5 0 .7-.1.2-.2.5-.4.7-.2.2-.3.4-.4.6-.1.3-.1.5-.1.8 0 0 0 .1-.1.1s-.1 0-.1-.1c0-.3 0-.6.1-.9.1-.3.2-.5.5-.7.2-.2.3-.4.4-.7.1-.2.1-.4 0-.7 0 .2 0 .2.1.2zm2.3.2v.3c0 .1 0 .2.1.2v.1h-.1c-.1-.1-.1-.2-.1-.3v-.3c0-.1 0-.1.1 0 0-.1 0-.1 0 0zm-.1-.6c-.2.1-.4.2-.5.5-.1.2-.2.5-.2.8.1.2.2.3.2.5.1.2.1.5.1.7 0 0 0 .1-.1.1s-.1 0-.1-.1c0-.3 0-.5-.1-.7 0-.2-.1-.3-.2-.5-.4.4-.6.9-.7 1.3 0 .5.2 1.1.6 1.7v.1h-.1c-.4-.6-.6-1.2-.6-1.7s.2-1 .7-1.4c0-.4.1-.7.2-.9.1-.2.3-.4.5-.5.3-.1.3-.1.3.1.1-.1.1-.1 0 0zm-.6-.9v.1c0 .3-.1.6-.3.8-.1.1-.2.2-.2.4-.1.1-.1.3-.1.4 0 0 0 .1-.1.1s-.1 0-.1-.1c0-.2.1-.3.1-.5.1-.1.1-.3.3-.4.2-.2.2-.4.2-.7v-.1c.1 0 .1-.1.2 0zm6.3 6.8c.1.1.1.3.2.4s.1.3 0 .5c0 0 0 .1-.1.1s-.1 0-.1-.1v-.4c0-.1-.1-.3-.2-.4.1-.1.1-.1.2-.1zm.1 2.1c.1.2.1.5 0 .7 0 .2-.1.5-.3.7l-.3.6s0 .1-.1 0 0-.1 0-.1l.3-.6c.1-.2.2-.5.3-.7v-.7c-.1.1-.1.1.1.1-.1-.1 0 0 0 0zm-1.4-1.9c.4.4.6.9.7 1.3.1.5.1 1 0 1.5 0 0 0 .1-.1 0-.1 0 0 0 0-.1.1-.5.2-1 0-1.4s-.3-.9-.6-1.3c-.1 0-.1 0 0 0 0-.1 0-.1 0 0zm-.1 2.3c-.1.2-.2.5-.4.7s-.3.5-.6.7c-.1.1-.2.3-.3.5l-.3.6c0 .1-.1 0-.1 0 0-.2 0-.4-.1-.5 0-.2-.1-.4-.2-.5-.2-.3-.3-.6-.3-.9 0-.3.1-.6.4-.9.1-.2.2-.4.3-.7.1-.2.1-.4.1-.7 0 0 0-.1.1-.1s.1 0 .1.1c0 .2 0 .5-.1.7-.1.2-.2.5-.3.7-.2.3-.3.6-.3.9 0 .3.1.6.3.9.1.2.2.4.2.6 0 .1 0 .2.1.3.1-.1.1-.2.2-.3.1-.2.2-.3.4-.5s.4-.5.6-.7c-.1-.5 0-.7.2-.9-.1-.1-.1-.1 0 0 0-.1 0 0 0 0zm-3.5-1.1c0 .3 0 .6.1.8.1.3.2.5.3.7v.1h-.1c-.1-.2-.2-.5-.3-.7-.1-.3-.1-.5-.1-.8 0-.2 0-.2.1-.1 0-.1 0 0 0 0zm-1.9 1v.4s0 .1-.1.1-.1 0-.1-.1v-.4h.2zm.6-1.8c0 .2 0 .4-.1.6-.1.2-.2.4-.3.5h-.1v-.1c.1-.2.2-.3.3-.5.1-.2.1-.4.1-.5h.1zm-1.8 3.5c-.3-.8-.4-1.4-.3-1.9.1-.5.3-.9.6-1.2.2-.2.4-.4.5-.7s.2-.6.1-1c0 0 0-.1.1-.1s.1 0 .1.1c0 .5 0 .8-.1 1.1-.1.3-.3.5-.5.7-.3.3-.5.7-.6 1.2-.1.5 0 1.1.3 1.9-.1-.1 0 0-.2-.1.1.1 0 .1 0 0zm-1-1.3c0 .1-.1.3-.1.4 0 .1.1.3.1.4v.1h-.1c-.1-.1-.1-.3-.2-.4 0-.1 0-.3.1-.4.1-.1.1-.2.2-.1zm5.1-3.6c.2.3.3.6.4.9 0 .3 0 .7-.2 1 0 0 0 .1-.1 0-.1 0 0-.1 0-.1.2-.3.2-.6.2-.9-.1-.2-.2-.5-.3-.9-.2.1-.2.1 0 0-.1 0-.1 0 0 0zm1.5-1.2c.1.3.2.6.2.9 0 .3 0 .6-.1.9 0 .1-.1 0-.1 0 0-.3-.1-.6-.2-.8-.1-.2-.3-.4-.5-.6v-.1c0-.1.1 0 .1 0 .2.2.4.4.5.6.1.2.1.3.2.5 0-.2.1-.4 0-.6 0-.3-.1-.6-.2-.9 0 .1 0 .1.1.1 0-.1 0 0 0 0zm1-1.3c.2.2.4.5.4.8.1.3.1.7.1 1.2v.5c0 .2.1.3.2.5v.1h-.1c-.1-.2-.2-.3-.2-.5v-.6c0-.4 0-.8-.1-1.1-.1-.4-.2-.6-.3-.9-.1.1-.1.1 0 0-.1 0 0 0 0 0zm-2.5-.2-.3.6v.8h-.1v-.8c.1-.3.1-.5.4-.6-.1-.1-.1-.1 0 0 0-.1 0-.1 0 0zm-4.9 3.3c0 .5-.2.9-.4 1.2-.2.3-.5.6-.9.8h-.1v-.1c.3-.2.6-.5.9-.8.2-.3.3-.7.4-1.1 0-.1 0-.1.1 0 0-.1 0-.1 0 0zm-.1-1.7v.5c0 .2-.1.3-.2.5 0 0 0 .1-.1 0-.1 0 0-.1 0-.1.1-.2.2-.3.2-.5v-.5c0 .1 0 0 .1.1 0-.1 0 0 0 0zm3.3-.3v.2c0 .3 0 .6.1.9v.1s0 .1-.1.1-.1 0-.1-.1v-1.1s0-.1.1-.1c0-.1 0-.1 0 0z"/><path d="M444.5 258c-.2.3-.3.6-.3.8 0 .3.1.5.2.8.3.4.4.9.3 1.3 0 .4-.2.9-.4 1.3 0 0 0 .1-.1 0-.1 0 0-.1 0-.1.2-.4.3-.9.4-1.3 0-.4-.1-.8-.3-1.3-.1-.3-.2-.6-.2-.9-.1-.1 0-.4.4-.6-.1-.1-.1-.2 0 0 0-.1 0-.1 0 0zm-5.1-9.2c.4-.3.8-.5 1.2-.5.4 0 .8 0 1.2.3h.9s.1 0 .1.1 0 .1-.1.1h-.9c-.5.4-.9.6-1.2.7-.4.1-.7 0-1-.2 0 0-.1 0 0-.1 0-.1.1 0 .1 0 .3.2.5.3.9.2.3-.1.7-.3 1.1-.6-.4-.2-.7-.2-1.1-.2-.4 0-.7.2-1.1.5-.1-.1-.1-.1-.1-.3-.1.1-.1 0 0 0z"/><path d="M440.5 248.6c.2 0 .3.1.3.3 0 .2-.1.3-.3.3-.2 0-.3-.1-.3-.3s.1-.3.3-.3zm2 1.8c.2-.1.4-.2.5-.3.1-.1.2-.2.3-.4h.1v.1c-.1.1-.2.3-.3.4-.1.1-.3.2-.5.4-.1-.1-.1-.1-.1-.2zm4.2-1.8h.3c.1 0 .2.1.3.2v.1c0 .1-.1 0-.1 0-.1-.1-.2-.1-.3-.1h-.3c.1 0 .1 0 .1-.2-.1.1 0 .1 0 0zm-2.4.1c.1-.2.2-.4.4-.5.2-.1.4-.1.7-.1 0 0 .1 0 .1.1s0 .1-.1.1c-.3 0-.5 0-.7.1-.2.1-.3.2-.4.4.1 0 .1 0 0-.1 0 .1 0 .1 0 0zm.3.4c0-.1.1-.2.1-.3.1-.1.2-.1.3-.2h.1v.1c-.1 0-.2.1-.2.1-.1.1-.1.1-.1.2-.1.2-.1.2-.2.1 0 .1 0 .1 0 0zm-4 1.4c-.1.1-.1.2-.2.3 0 .1-.1.2-.1.4 0 0 0 .1-.1.1s-.1 0-.1-.1c0-.2 0-.3.1-.4 0-.1.1-.2.2-.3.1-.1.1-.2.2 0 0-.1 0-.1 0 0zm1.1.5v.2s0 .1-.1.1-.1 0-.1-.1v-.2c.1-.1.1-.1.2 0 0-.1 0-.1 0 0zm-.7-1.3c.1 0 .2.1.3.1h.5v.1h-.4c-.1 0-.3 0-.4-.1-.1 0-.1 0 0-.1zm.7-2.1c-.1 0-.2 0-.2.1-.1.1-.1.1-.1.2 0 0 0 .1-.1 0-.1 0 0 0 0-.1s.1-.2.2-.3c.1-.1.2-.1.3-.1l-.1.2c.1 0 .1 0 0 0zm-1.1.1c-.1 0-.2.1-.2.1l-.1.1s0 .1-.1 0c-.1 0 0 0 0-.1s.1-.1.1-.2c.1-.1.1-.1.2-.1 0 .1.1.1.1.2zm-.8 0-.2.2c-.1.1-.1.1-.1.2 0 0 0 .1-.1 0-.1 0 0 0 0-.1s.1-.2.1-.2.2-.1.3-.1c0-.1 0-.1 0 0 .1 0 .1 0 0 0zm-.9.8c-.1.1-.2.1-.2.2-.1.1-.1.2-.2.2h-.1v-.1c.1-.1.1-.2.2-.3.1 0 .1-.1.3 0-.1-.2 0-.2 0 0 0-.1 0-.1 0 0zm.1 1-.2.2-.2.2h-.1v-.1l.2-.2c.1-.1.1-.1.3-.1-.1-.1-.1-.1 0 0 0-.1 0 0 0 0zm-1 .3v.4s0 .1-.1.1-.1 0-.1-.1v-.4c.1-.1.1-.1.2 0 0-.1 0-.1 0 0zm1.3 1.6c0 .2 0 .4-.1.6v.1s0 .1-.1.1-.1 0-.1-.1v-.1c0-.2 0-.4.1-.6 0-.1 0-.1.2 0 0-.1 0-.1 0 0zm-.8-.6v.4s0 .1-.1.1-.1 0-.1-.1v-.4h.2zm-.6-5c.1 0 .2.1.3.2.1.1.2.2.2.3v.1h-.1c0-.1-.1-.2-.2-.3-.1-.1-.2-.1-.3-.2l.1-.1c-.1 0 0 0 0 0zm5.8 7.5c.1.3.2.5.2.8 0 .3 0 .5-.2.8 0 0 0 .1-.1 0-.1 0 0-.1 0-.1.1-.2.1-.5.1-.7 0-.2-.1-.5-.2-.7.1 0 .1-.1.2-.1zm-1.9 2.2c.1-.3.2-.5.3-.8.1-.2.3-.4.5-.6.2-.2.3-.5.4-.8.1-.3.1-.6 0-.9v-.1h.1c.1.3.1.6 0 .9-.1.3-.2.5-.4.8-.2.2-.3.4-.4.6-.1.2-.3.5-.3.7-.1.3-.1.3-.2.2 0 .1 0 .1 0 0zm-2.4-.6c0-.1.1-.2.2-.3.1-.1.2-.2.3-.2h.1v.1c-.1.1-.2.1-.3.2-.1.1-.1.2-.2.2 0 .1-.1.1-.1 0-.1 0-.1 0 0 0zm-.5-.2.3-.3c.1-.1.2-.2.4-.2h.1v.1c-.1.1-.2.1-.3.2-.2.1-.3.2-.5.2.1.1 0 .1 0 0-.1.1 0 0 0 0zm2.5-2.5c.1 0 .2.1.3.1h.4v.1h-.3c-.1 0-.2 0-.3-.1-.2 0-.2 0-.1-.1zm-1.2-.1.1-.1h.1v.1h-.2c0 .1 0 .1 0 0-.1 0-.1 0 0 0zm27.1 7.8c.1.1.1.1.1.2s.1.1.1.2v.1h-.1c0-.1-.1-.1-.1-.2v-.3c-.1 0-.1 0 0 0 0-.1 0 0 0 0zM437.2 274c.1.1.3.2.4.3.1.1.3.1.5.1 0 0 .1 0 .1.1s0 .1-.1.1c-.2 0-.4-.1-.5-.1-.2-.1-.4-.3-.4-.5-.1.1-.2.1 0 0-.1 0-.1 0 0 0z"/><path style="fill:red" d="M459.9 247c.7 0 1.3 0 1.9-.1-.6.4-1.3.7-2.1.8.2-.1.3-.3.3-.4 0 0 0-.1-.1-.3zm-1.6-.1c.4.1.9.1 1.3.2.1.1.1.2.1.3 0 .1-.1.2-.3.3 0 0-.1.1 0 .2-.3 0-.6.1-.9 0h-.5c.2-.2.3-.3.3-.5.1-.3.1-.4 0-.5zm-11.8-3.4c.8-.1 1.5-.1 2.3-.1.3.1.4.3.6.5.1.2.2.5.1.9 0 .1 0 .1.1.1s.1 0 .1-.1c.1-.4 0-.8-.1-1l-.3-.3h.2c.9 0 1.6.3 2.4.7.2.2.2.4.2.5 0 .2-.1.4-.3.6 0 0-.1.1 0 .2s.1 0 .2 0c.2-.2.3-.5.4-.7v-.4c.7.3 1.3.6 2 1 .1.2 0 .3-.1.5-.1.1-.3.3-.5.4-.1 0-.1 0-.1.1s.1.1.1.1c.3-.1.5-.3.6-.4.1-.2.1-.3.1-.5.4.2.9.5 1.3.7.1.2.1.3 0 .4-.1.1-.2.3-.5.4 0 0-.1 0-.1.1s.1.1.1.1c.3-.1.5-.3.6-.5.1-.1.1-.3 0-.4.2.1.3.1.5.2.4.2.9.3 1.5.4.1.1.1.3.1.4 0 .1-.1.3-.2.4 0 0-.1.1 0 .2-1.7-.2-3.1-1-4.7-1.6-.2-.1-.4-.1-.6-.2-.6-.2-1.2-.5-1.7-.7h-.3c-.5-.2-1.1-.3-1.6-.4-.6-.1-1.2-.1-1.8 0h-.1c.1-.3 0-.6-.2-.9.1-.4 0-.6-.3-.7z"/><path style="fill:red" d="M443.8 244.2c.8-.3 1.5-.5 2.3-.7.4.1.6.3.7.5.1.2.2.4.1.7h-1c-.4 0-.7.1-1.1.2-.2-.4-.4-.6-.7-.7 0 .1-.2 0-.3 0zm8.4 4.3c-.2-.1-.4-.3-.6-.4-1-.6-2.2-.9-3.4-1 .4-.4.5-.8.4-1.2-.1-.3-.4-.6-.7-.8.4 0 .8 0 1.2.1.6.1 1.3.3 2 .6.2.4.2.7.1 1-.1.3-.3.5-.6.7 0 0-.1.1 0 .1.1.1.1.1.1 0 .4-.2.7-.5.8-.9.1-.3.1-.6-.1-.9.5.2.9.5 1.2.7.4.3.8.5 1.1.8 0 .5-.1.7-.4.9-.2.1-.6.2-1 .1-.1 0-.1 0-.1.2z"/><path style="fill:red" d="M454.5 250.2c-.7-.5-1.4-1.1-2.1-1.6.4 0 .8 0 1-.2.3-.2.4-.4.5-.9.4.3.9.7 1.3 1.1l.6.6c0 .2.1.3.1.4 0 .1-.1.2-.1.3-.1.1-.2.1-.3.2-.2.1-.4.1-.8 0-.2 0-.2 0-.2.1z"/><path style="fill:red" d="M456.9 251.7c-.2-.1-.5-.3-.7-.4-.5-.3-1-.7-1.5-1.1h.8c.2 0 .3-.1.4-.2.1-.1.2-.3.2-.4v-.2c.5.4 1 .8 1.5 1.1.3.2.6.3.9.5v.1c0 .2-.1.4-.3.4-.4.1-.8.1-1.3.2z"/><path style="fill:red" d="M459.4 252.7c-.8-.2-1.6-.5-2.3-.9.4 0 .8-.1 1-.2.3-.1.5-.3.5-.6.5.2.9.4 1.4.6.1.2.1.3 0 .5s-.3.3-.6.4v.2zm5.3-.5c.1 0 .5-.1.3 0-1.6 1-3.6 1-5.4.5.3-.1.5-.3.6-.5.1-.1.1-.3.1-.5.6.2 1.2.3 1.8.4 0 .1 0 .2-.1.3-.1.1-.3.2-.5.4-.1 0-.1 0-.1.1s.1.1.1.1c.3-.1.5-.3.6-.4.1-.1.1-.3.1-.4.9.1 1.7.1 2.5 0zm-10.8 27c-.1.1-.2.3-.3.4-.5.2-.9.4-1.3.4 0 .3.1.5.4.5.6-.3.7-.4.8-.3.1.1-.1.5-.6.9-.1 0-.1.1 0 .2.4.7 1.5.4 2.1.3.4-.1 1.2-.6 1.4-1 .1-.2-.1-.5-.3-.7-.5.1-.6-.1-.6-.3-.5-.4-1-.4-1.6-.4zm-17.1-5.4c-.3.3-.7.5-1.2.7-.2.1-.6.2-.6.4 0 .1.3.2.5.1.5-.5.8-.2.2.3 0 .1 0 .2.1.3.5.5 1.8.6 2.4.2.4-.3.7-.6.3-1v-.3l-.7-.1-.4-.3-.6-.3zm11.3 3.9h-.1c-.2.3.4.2.7.4.2.1.2.3.2.5-.3.7-2.1.5-2.6.2-.3-.1-.3-.3-.3-.5h.4c.2 0 .4-.1.6-.2.1 0 .1-.1.1-.2-.1-.1-.1-.1-.2-.1-.2.1-.3.1-.5.2h-.5c-.1-.1-.2-.1-.1-.2 0-.1.2 0 .2 0 .3-.1.5-.2.8-.3l.1-.1c.3.1.8.2 1.2.3zm-8.1-.4c-.1.1-.1.2-.2.3-.3.3-.6.5-1 .7-.3.1 0 .3.2.4.2.2.5-.2.6-.4.2-.3.4-.2.3 0-.1.2-.2.6-.2.8-.1.2.7.3.8.3.4 0 1-.4 1.4-.6.3-.3.2-.6.1-.9-.2 0-.4 0-.5-.1-.2 0-.4-.1-.6-.2 0 0-.1 0 0-.1l-.9-.2zm3.1-29.7h.4c.2 0 .4.1.7.2.8-.3 1.4-.4 1.9-.4.6-.2 1.3-.3 1.9-.2-.1-.1 0-.1 0-.2.4-.4.4-.7.3-1-.1-.3-.4-.6-.9-.9-.5.1-.9-.1-1.4 0-.3 0-.6.1-.9.2.3.1.5.2.7.5.2.3.4.6.5 1.1 0 .1 0 .1-.1.1s-.1 0-.1-.1c-.1-.4-.2-.7-.4-1-.2-.3-.7-.4-.8-.5-.5.1-1 .1-1.4.2-.3.1-.6.2-.8.4.3-.1.7-.1 1 .1.3.1.5.4.7.8 0 .1 0 .1-.1.1s-.1 0-.1-.1c-.1-.4-.3-.6-.6-.7-.5-.2-1.4 0-1.8.3-.2.2-.5.4-.7.7l-.1.1c.6 0 1.5 0 2.1.3zm-2.5-.5v-.1c.2-.3.5-.5.7-.7.2-.2.5-.3.8-.4.3-.3.7-.5 1.1-.6.4-.1 1-.2 1.5-.2-.2-.3-.3-.5-.6-.6-.2-.1-.5-.1-.8-.1-.6.2-1.2.5-1.7.9h.5c.1 0 .1 0 .1.1s-.4 0-.5 0h-.6c-.6.3-1 .7-1.4 1.1.4.3.7.5.9.6z"/><path style="fill:#0093dd" d="m505.1 311 23.3-52.9-17.2-27.8-30.7 11.4-14.2 55.9c13.4 3.4 26.3 7.9 38.8 13.4z"/><path style="fill:#fff" d="M475.3 262.1c15.4 3.9 30.3 9.1 44.5 15.4l-9 20.4c-13.2-5.8-26.9-10.6-41-14.2l5.5-21.6z"/><path style="fill:red" d="m512.3 294.7 6-13.6c-14.1-6.2-28.8-11.3-43.9-15.2l-3.5 13.9c14.4 3.7 28.3 8.5 41.7 14.4l-.3.5z"/><path d="M478.7 276.5c.4-.3.8-.2 1.3-.1.3-.1.8-.2 1.2-.2.2-.1.4-.2.6-.2.1-.1.1-.2 0-.3-.1-.1-.2-.3-.2-.4-.7-.4-.9-1-1.2-1.6-.4-.1-.6-.2-.6-.4-.2 0-.4 0-.6-.1-.9.1-1.1-.2-1.5-.4-.3-.1-.5-.2-.6-.5-.1-.1-.2-.2-.3-.4-.2-.3-.2-.7.2-.7.3 0 .5 0 .8-.1.3-.1.7-.1 1-.1.4 0 .6-.3 1-.6v-.4c-.1-.2 0-.2.2-.2.5 0 .8.2 1 .6.6.1 1 .4 1.3.8.8 0 1.3.3 1.3.6 0 .2-.2.4-.5.7v.2c.2.2.3.4.4.5.4.2.8.4 1.2.7 1.1-.1 2.9.7 5.4 2.2 1.6.3 3.1.7 4.6 1.4h.9c2.7-.4 5.3-.1 7.7 1.7.9.1 1.7.4 2.5.7.6.2 1.2.3 1.8.4 1 .1 2 .3 2.9.8 1.1.2 2.1.6 2.8 1.4.5.5.3 1-.2 1.3-.3.7-1 .8-2.1.4-.7.1-1.5-.4-2.2-1-1-.3-1.9-.9-2.8-1.5-.5-.3-.9-.6-1.4-.7-.4-.1-.7-.1-.9 0-.1.1-.1.1 0 .2.3.2.4.5.5.9.1.3 0 .7 0 1.1 0 .4.3.7.7 1 .3.2.6.4 1.2.4.2 0 .3.2.3.4.1.7.3 1.3.5 1.9.1.2.2.2.4.4.7.5.3 1-.3 1.1-.5.5-1 .8-1.5.9-.4.1-.6 0-.7-.2-.3 0-.4-.1-.5-.3-.5-.4-.1-1.1 1.2-.8 0-.1.1-.2.2-.2-.1-.3-.1-.7 0-1-.1-.1-.2-.2-.4-.2-.5-.1-.9-.4-1.2-.7-.6-.6-1.6-1.1-2.6-1.6-.8 0-1.4-.4-2-.7h-.8c-.2-.1-.5 0-.6.2-.3.3-.5.3-.9.2H496c-.2 0-.4.1-.6.1-.4 0-.9 0-1.2.2-.2.3-.5.2-.7.1-.2-.1-.3-.2-.4-.3-.3-.1-.5-.1-.6-.2-.5-.1-.7-.3-.6-.4-.7-.2-.4-.7.1-.7s1 .1 1.5.2c.4.1 1 .1 1.3-.3.2-.2.3-.4.6-.5-.9-.1-1.6-.2-2-.5-1.3-.8-2.4-1-3.2-.3-.2.1-.4.2-.6.1-.2-.1-.5-.1-.7 0-.5.1-.9 0-1.4-.1-.7.2-1.4.2-2.1.1-.6.3-1 .3-1.3.1-.3-.1-.5-.3-.7-.4-.4-.1-.5-.1-.5-.3-.5-.1-.5-.2-.5-.4-.2-.2-.1-.4.1-.5.4-.1.7-.2 1.1 0l.6.3c.3 0 .5 0 .7.1.1-.2.6-.2 1-.2.2-.2.5-.3.9-.3v-.2c-.5-.1-.7-.5-.9-.8-.7 0-1.2-.3-1.7-.6-.4 0-.8-.1-1.1-.3h-.8c-.6.2-1.1.1-1.6 0h-.9c-.3.4-.7.4-1.1.3-.2-.3-.5-.5-.9-.6-.3-.1-.4-.2-.4-.4-.4-.2-.3-.5.1-.6.3-.1.6-.2 1.1.1-.3-.4-.1-.4.1-.3z"/><path style="fill:#fff" d="M496.3 281.8c0-.1-.1-.2-.4-.1-.8 0-1.8 0-2.5-.4s-1.5-.9-2.3-.8c.2-.2.5-.4.9-.5.5-.1 1-.1 1.6 0 .9.1 1.6.3 2.2.5.6.2 1 .5 1.1.8v.1c.2.1.4.3.6.4.1.1.2.2.3.4h-.8c-.2-.2-.5-.3-.7-.4z"/><path d="M498.2 241.5v.3l1.1 5.4-4.2 3.6-.2.2.2.1 5.2 1.8 1.1 5.4.1.3.2-.2 4.2-3.6 5.2 1.8.2.1v-.3l-1.1-5.4 4.2-3.6.2-.2-.2-.1-5.2-1.8-1.1-5.4-.1-.3-.2.2-4.2 3.6-5.2-1.8-.2-.1z"/><path style="fill:#f7db17" d="m495.6 250.8 3.9-3.4 4.9 1.7-8.8 1.7zm9.5-1.8 3.9-3.4 4.9 1.7-8.8 1.7zm8.8-1.6-3.9 3.4-4.9-1.7 8.8-1.7zm-9.4 1.9-3.9 3.4-4.9-1.7 8.8-1.7zm-5.8-7.3 4.9 1.7 1 5.1-5.9-6.8zm6.4 7.3 4.9 1.7 1 5.1-5.9-6.8zm5.7 6.9-4.9-1.7-1-5.1 5.9 6.8zm-6.3-7.3-4.9-1.7-1-5.1 5.9 6.8zm3.4-8.6 1 5.1-3.9 3.4 2.9-8.5zm-3.1 9.2 1 5.1-3.9 3.4 2.9-8.5zm-3.1 8.4-1-5.1 3.9-3.4-2.9 8.5zm3.1-9.1-1-5.1 3.9-3.4-2.9 8.5z"/></svg>