<svg xmlns="http://www.w3.org/2000/svg" xml:space="preserve" style="enable-background:new 0 0 512 512" viewBox="0 0 512 512"><path d="M0 85.334h512v341.337H0z" style="fill:#fff"/><path d="M461.664 283.341c-4.016 0-13.378-5.315-20.212-9.197-10.958-6.223-21.308-12.1-31.204-12.1s-20.246 5.877-31.204 12.1c-6.835 3.881-16.196 9.197-20.212 9.197s-13.378-5.315-20.211-9.197c-10.958-6.223-21.308-12.1-31.204-12.1s-20.246 5.877-31.204 12.1c-6.835 3.881-16.196 9.197-20.212 9.197-4.016 0-13.378-5.315-20.212-9.197-10.958-6.223-21.308-12.1-31.204-12.1s-20.246 5.877-31.204 12.1c-6.834 3.881-16.195 9.197-20.211 9.197-4.016 0-13.378-5.315-20.212-9.197-10.958-6.223-21.308-12.1-31.204-12.1s-20.246 5.877-31.204 12.1c-6.835 3.881-16.196 9.197-20.212 9.197s-13.378-5.315-20.211-9.197C19.565 268.147 9.57 262.487 0 262.083v22.332c4.437.746 12.847 5.516 19.131 9.086 10.958 6.223 21.308 12.1 31.204 12.1s20.246-5.877 31.204-12.1c6.835-3.881 16.196-9.197 20.212-9.197s13.378 5.315 20.212 9.197c10.958 6.223 21.308 12.1 31.204 12.1s20.246-5.877 31.204-12.1c6.834-3.881 16.195-9.197 20.211-9.197 4.016 0 13.378 5.315 20.212 9.197 10.958 6.223 21.308 12.1 31.204 12.1s20.246-5.877 31.204-12.1c6.835-3.881 16.196-9.197 20.212-9.197 4.016 0 13.378 5.315 20.211 9.197 10.958 6.223 21.308 12.1 31.204 12.1s20.246-5.877 31.204-12.1c6.835-3.881 16.196-9.197 20.212-9.197s13.378 5.315 20.212 9.197c10.958 6.223 21.308 12.1 31.204 12.1s20.246-5.877 31.204-12.1c6.284-3.57 14.694-8.34 19.131-9.086v-22.332c-9.57.404-19.565 6.064-30.125 12.061-6.83 3.881-16.19 9.197-20.207 9.197zM0 117.459c4.437.746 12.847 5.516 19.131 9.086 10.958 6.223 21.308 12.1 31.204 12.1s20.246-5.877 31.204-12.1c6.835-3.881 16.196-9.197 20.212-9.197s13.378 5.315 20.212 9.197c10.958 6.223 21.308 12.1 31.204 12.1s20.246-5.877 31.204-12.1c6.834-3.881 16.195-9.197 20.211-9.197 4.016 0 13.378 5.315 20.212 9.197 10.958 6.223 21.308 12.1 31.204 12.1s20.246-5.877 31.204-12.1c6.835-3.881 16.196-9.197 20.212-9.197 4.016 0 13.378 5.315 20.211 9.197 10.958 6.223 21.308 12.1 31.204 12.1s20.246-5.877 31.204-12.1c6.835-3.881 16.196-9.197 20.212-9.197s13.378 5.315 20.212 9.197c10.958 6.223 21.308 12.1 31.204 12.1s20.246-5.877 31.204-12.1c6.284-3.57 14.694-8.34 19.131-9.086V95.126c-9.57.404-19.565 6.064-30.125 12.061-6.834 3.881-16.195 9.197-20.211 9.197s-13.378-5.315-20.212-9.197c-10.958-6.223-21.308-12.1-31.204-12.1s-20.246 5.877-31.204 12.1c-6.835 3.881-16.196 9.197-20.212 9.197-4.016 0-13.378-5.315-20.211-9.197-10.958-6.223-21.308-12.1-31.204-12.1s-20.246 5.877-31.204 12.1c-6.835 3.881-16.196 9.197-20.212 9.197-4.016 0-13.378-5.315-20.212-9.197-10.958-6.223-21.308-12.1-31.204-12.1s-20.246 5.877-31.204 12.1c-6.834 3.881-16.195 9.197-20.211 9.197-4.016 0-13.378-5.315-20.212-9.197-10.958-6.223-21.308-12.1-31.204-12.1s-20.246 5.877-31.204 12.1c-6.835 3.881-16.196 9.197-20.212 9.197s-13.378-5.315-20.211-9.197C19.565 101.19 9.57 95.53 0 95.126v22.333zm461.664 54.577c-4.016 0-13.378-5.315-20.212-9.197-10.958-6.223-21.308-12.1-31.204-12.1s-20.246 5.877-31.204 12.1c-6.835 3.881-16.196 9.197-20.212 9.197s-13.378-5.315-20.211-9.197c-10.958-6.223-21.308-12.1-31.204-12.1s-20.246 5.877-31.204 12.1c-6.835 3.881-16.196 9.197-20.212 9.197-4.016 0-13.378-5.315-20.212-9.197-10.958-6.223-21.308-12.1-31.204-12.1s-20.246 5.877-31.204 12.1c-6.834 3.881-16.195 9.197-20.211 9.197-4.016 0-13.378-5.315-20.212-9.197-10.958-6.223-21.308-12.1-31.204-12.1s-20.246 5.877-31.204 12.1c-6.835 3.881-16.196 9.197-20.212 9.197s-13.378-5.315-20.211-9.197C19.565 156.842 9.57 151.182 0 150.778v22.332c4.437.746 12.847 5.516 19.131 9.086 10.958 6.223 21.308 12.1 31.204 12.1s20.246-5.877 31.204-12.1c6.835-3.881 16.196-9.197 20.212-9.197s13.378 5.315 20.212 9.197c10.958 6.223 21.308 12.1 31.204 12.1s20.246-5.877 31.204-12.1c6.834-3.881 16.195-9.197 20.211-9.197 4.016 0 13.378 5.315 20.212 9.197 10.958 6.223 21.308 12.1 31.204 12.1s20.246-5.877 31.204-12.1c6.835-3.881 16.196-9.197 20.212-9.197 4.016 0 13.378 5.315 20.211 9.197 10.958 6.223 21.308 12.1 31.204 12.1s20.246-5.877 31.204-12.1c6.835-3.881 16.196-9.197 20.212-9.197s13.378 5.315 20.212 9.197c10.958 6.223 21.308 12.1 31.204 12.1s20.246-5.877 31.204-12.1c6.284-3.57 14.694-8.34 19.131-9.086v-22.332c-9.57.404-19.565 6.064-30.125 12.061-6.83 3.882-16.19 9.197-20.207 9.197zM512 206.431c-9.57.404-19.565 6.064-30.125 12.061-6.834 3.881-16.195 9.197-20.211 9.197s-13.378-5.315-20.212-9.197c-10.958-6.223-21.308-12.1-31.204-12.1s-20.246 5.877-31.204 12.1c-6.835 3.881-16.196 9.197-20.212 9.197-4.016 0-13.378-5.315-20.211-9.197-10.958-6.223-21.308-12.1-31.204-12.1s-20.246 5.877-31.204 12.1c-6.835 3.881-16.196 9.197-20.212 9.197-4.016 0-13.378-5.315-20.212-9.197-10.958-6.223-21.308-12.1-31.204-12.1s-20.246 5.877-31.204 12.1c-6.834 3.881-16.195 9.197-20.211 9.197s-13.378-5.315-20.212-9.197c-10.958-6.223-21.308-12.1-31.204-12.1s-20.246 5.877-31.204 12.1c-6.835 3.881-16.196 9.197-20.212 9.197s-13.378-5.315-20.211-9.197C19.565 212.494 9.57 206.835 0 206.431v22.332c4.437.746 12.847 5.516 19.131 9.086 10.958 6.223 21.308 12.1 31.204 12.1s20.246-5.877 31.204-12.1c6.835-3.881 16.196-9.197 20.212-9.197s13.378 5.315 20.212 9.197c10.958 6.223 21.308 12.1 31.204 12.1s20.246-5.877 31.204-12.1c6.834-3.881 16.195-9.197 20.211-9.197 4.016 0 13.378 5.315 20.212 9.197 10.958 6.223 21.308 12.1 31.204 12.1s20.246-5.877 31.204-12.1c6.835-3.881 16.196-9.197 20.212-9.197 4.016 0 13.378 5.315 20.211 9.197 10.958 6.223 21.308 12.1 31.204 12.1s20.246-5.877 31.204-12.1c6.835-3.881 16.196-9.197 20.212-9.197s13.378 5.315 20.212 9.197c10.958 6.223 21.308 12.1 31.204 12.1s20.246-5.877 31.204-12.1c6.284-3.57 14.694-8.34 19.131-9.086v-22.332H512zm-50.336 132.562c-4.016 0-13.378-5.315-20.212-9.197-10.958-6.223-21.308-12.1-31.204-12.1s-20.246 5.877-31.204 12.1c-6.835 3.881-16.196 9.197-20.212 9.197s-13.378-5.315-20.211-9.197c-10.958-6.223-21.308-12.1-31.204-12.1s-20.246 5.877-31.204 12.1c-6.835 3.881-16.196 9.197-20.212 9.197-4.016 0-13.378-5.315-20.212-9.197-10.958-6.223-21.308-12.1-31.204-12.1s-20.246 5.877-31.204 12.1c-6.834 3.881-16.195 9.197-20.211 9.197-4.016 0-13.378-5.315-20.212-9.197-10.958-6.223-21.308-12.1-31.204-12.1s-20.246 5.877-31.204 12.1c-6.835 3.881-16.196 9.197-20.212 9.197s-13.378-5.315-20.211-9.197C19.565 323.799 9.57 318.139 0 317.735v22.332c4.437.746 12.847 5.516 19.131 9.086 10.958 6.223 21.308 12.1 31.204 12.1s20.246-5.877 31.204-12.1c6.835-3.881 16.196-9.197 20.212-9.197s13.378 5.315 20.212 9.197c10.958 6.223 21.308 12.1 31.204 12.1s20.246-5.877 31.204-12.1c6.834-3.881 16.195-9.197 20.211-9.197 4.016 0 13.378 5.315 20.212 9.197 10.958 6.223 21.308 12.1 31.204 12.1s20.246-5.877 31.204-12.1c6.835-3.881 16.196-9.197 20.212-9.197 4.016 0 13.378 5.315 20.211 9.197 10.958 6.223 21.308 12.1 31.204 12.1s20.246-5.877 31.204-12.1c6.835-3.881 16.196-9.197 20.212-9.197s13.378 5.315 20.212 9.197c10.958 6.223 21.308 12.1 31.204 12.1s20.246-5.877 31.204-12.1c6.284-3.57 14.694-8.34 19.131-9.086v-22.332c-9.57.404-19.565 6.064-30.125 12.061-6.83 3.881-16.19 9.197-20.207 9.197zM512 373.387c-9.57.404-19.565 6.064-30.125 12.061-6.834 3.881-16.195 9.197-20.211 9.197s-13.378-5.315-20.212-9.197c-10.958-6.223-21.308-12.1-31.204-12.1s-20.246 5.877-31.204 12.1c-6.835 3.881-16.196 9.197-20.212 9.197-4.016 0-13.378-5.315-20.211-9.197-10.958-6.223-21.308-12.1-31.204-12.1s-20.246 5.877-31.204 12.1c-6.835 3.881-16.196 9.197-20.212 9.197-4.016 0-13.378-5.315-20.212-9.197-10.958-6.223-21.308-12.1-31.204-12.1s-20.246 5.877-31.204 12.1c-6.834 3.881-16.195 9.197-20.211 9.197s-13.378-5.315-20.212-9.197c-10.958-6.223-21.308-12.1-31.204-12.1s-20.246 5.877-31.204 12.1c-6.835 3.881-16.196 9.197-20.212 9.197s-13.378-5.315-20.211-9.197C19.565 379.451 9.57 373.791 0 373.387v22.332c4.437.746 12.847 5.516 19.131 9.086 10.958 6.223 21.308 12.1 31.204 12.1s20.246-5.877 31.204-12.1c6.835-3.881 16.196-9.197 20.212-9.197s13.378 5.315 20.212 9.197c10.958 6.223 21.308 12.1 31.204 12.1s20.246-5.877 31.204-12.1c6.834-3.881 16.195-9.197 20.211-9.197 4.016 0 13.378 5.315 20.212 9.197 10.958 6.223 21.308 12.1 31.204 12.1s20.246-5.877 31.204-12.1c6.835-3.881 16.196-9.197 20.212-9.197 4.016 0 13.378 5.315 20.211 9.197 10.958 6.223 21.308 12.1 31.204 12.1s20.246-5.877 31.204-12.1c6.835-3.881 16.196-9.197 20.212-9.197s13.378 5.315 20.212 9.197c10.958 6.223 21.308 12.1 31.204 12.1s20.246-5.877 31.204-12.1c6.284-3.57 14.694-8.34 19.131-9.086v-22.332H512z" style="fill:#0052b4"/><path d="M256 85.329h-.029.029zm-.456 170.668H256v-.456l-.456.456z" style="fill:#fff"/><path d="M278.261 255.997v-.001z" style="fill:#496e2d"/><path d="M350.609 168.809h66.782L384 202.2z" style="fill:#6da544"/><path d="M376.576 194.779h14.84v40.812h-14.84zm0 107.598h14.84v40.812h-14.84z" style="fill:#a2001d"/><path d="M428.522 280.113c0-12.295-9.966-22.261-22.261-22.261a22.173 22.173 0 0 0-14.84 5.672v-13.093h7.421v-14.84h-7.421v-7.421h-14.84v7.421h-7.421v14.84h7.421v13.093a22.175 22.175 0 0 0-14.84-5.672c-12.295 0-22.261 9.966-22.261 22.261 0 6.591 2.867 12.512 7.421 16.589v13.093h74.203v-13.094c4.551-4.076 7.418-9.997 7.418-16.588z" style="fill:#ffda44"/><path d="M406.261 272.692a7.31 7.31 0 0 0-4.943 1.889l-9.898 8.861h-14.84l-9.898-8.861a7.31 7.31 0 0 0-4.942-1.889c-4.092 0-7.421 3.329-7.421 7.421 0 2.882 1.554 4.703 2.48 5.533l4.941 4.424v4.883h44.522v-4.884l4.941-4.424c.926-.829 2.48-2.651 2.48-5.533-.002-4.091-3.331-7.42-7.422-7.42z" style="fill:#d80027"/><path d="M0 85.334h256v170.663H0z" style="fill:#fff"/><path d="M144 85.329h-32v69.334H0v32h112v69.334h32v-69.334h112v-32H144z" style="fill:#d80027"/><path d="M0 85.329v15.082l57.377 38.252H80z" style="fill:#d80027"/><path d="M0 107.951v30.712h46.069zm96-22.62v48.913L22.628 85.331z" style="fill:#2e52b2"/><path d="M256 85.329v15.082l-57.377 38.252H176z" style="fill:#d80027"/><path d="M256 107.951v30.712h-46.069zm-96-22.62v48.913l73.372-48.913z" style="fill:#2e52b2"/><path d="M0 85.329v15.082l57.377 38.252H80z" style="fill:#d80027"/><path d="M0 107.951v30.712h46.069zm96-22.62v48.913L22.628 85.331z" style="fill:#2e52b2"/><path d="M256 85.329v15.082l-57.377 38.252H176z" style="fill:#d80027"/><path d="M256 107.951v30.712h-46.069zm-96-22.62v48.913l73.372-48.913z" style="fill:#2e52b2"/><path d="M0 255.997v-15.082l57.377-38.252H80z" style="fill:#d80027"/><path d="M0 233.376v-30.713h46.069zm96 22.618v-48.912l-73.372 48.912z" style="fill:#2e52b2"/><path d="M256 255.997v-15.082l-57.377-38.252H176z" style="fill:#d80027"/><path d="M256 233.376v-30.713h-46.069zm-96 22.618v-48.912l73.372 48.912z" style="fill:#2e52b2"/></svg>