<svg xmlns="http://www.w3.org/2000/svg" xml:space="preserve" style="enable-background:new 0 0 512 512" viewBox="0 0 512 512"><path d="M0 85.334h512v341.337H0z" style="fill:#fff"/><path d="M0 85.334h512v341.337H0z" style="fill:#fff"/><path d="M301.255 255.997 512 115.499v-30.17h-45.255L256 225.826 45.255 85.329H0v30.17l210.745 140.498L0 396.494v30.169h45.255L256 286.167l210.745 140.496H512v-30.169z" style="fill:#d80027"/><path d="M233.739 166.953 256 172.518l22.261-5.565v-18.922l-8.904 4.453L256 139.127l-13.357 13.357-8.904-4.453z" style="fill:#ffda44"/><path d="M233.739 166.953v13.914c0 17.04 22.261 22.261 22.261 22.261s22.261-5.221 22.261-22.261v-13.914h-44.522z" style="fill:#d80027"/></svg>