<svg xmlns="http://www.w3.org/2000/svg" xml:space="preserve" style="enable-background:new 0 0 512 512" viewBox="0 0 512 512"><path d="M0 85.34h512v341.326H0z" style="fill:#d80027"/><path d="M512 85.334v166.69L0 256.175V85.334z" style="fill:#0052b4"/><path d="M211.478 204.06c0-12.295-9.966-22.261-22.261-22.261a22.173 22.173 0 0 0-14.84 5.672v-13.093h7.421v-14.84h-7.421v-7.421h-14.84v7.421h-7.421v14.84h7.421v13.093a22.175 22.175 0 0 0-14.84-5.672c-12.295 0-22.261 9.966-22.261 22.261 0 6.591 2.867 12.512 7.421 16.589v13.093h74.203v-13.093c4.551-4.077 7.418-9.997 7.418-16.589z" style="fill:#ffda44"/></svg>