<svg xmlns="http://www.w3.org/2000/svg" xml:space="preserve" style="enable-background:new 0 0 512 512" viewBox="0 0 512 512"><path d="M0 85.331h512v341.337H0z" style="fill:#338af3"/><path d="M251.469 348.064a9.435 9.435 0 0 1-8.402-6.173c-2.236 2.916-6.078 4.384-9.864 3.408a9.452 9.452 0 0 1-6.992-7.753c-2.784 2.405-6.841 3.061-10.349 1.341a9.454 9.454 0 0 1-5.278-9.008 9.442 9.442 0 0 1-10.406-.768 9.459 9.459 0 0 1-3.357-9.876 9.43 9.43 0 0 1-10.034-2.841 9.441 9.441 0 0 1-1.317-10.342 9.451 9.451 0 0 1-9.259-4.799 9.434 9.434 0 0 1 .794-10.406 9.446 9.446 0 0 1-8.106-6.569 9.443 9.443 0 0 1 2.885-10.034 9.44 9.44 0 0 1-6.607-8.07 9.444 9.444 0 0 1 4.837-9.234 9.45 9.45 0 0 1-4.863-9.215h.006a9.453 9.453 0 0 1 6.588-8.094c-2.803-2.381-4.075-6.293-2.91-10.022a9.459 9.459 0 0 1 8.094-6.595 9.46 9.46 0 0 1-.819-10.406 9.458 9.458 0 0 1 9.259-4.812 9.451 9.451 0 0 1 1.291-10.356c2.538-2.966 6.519-3.968 10.027-2.859a9.445 9.445 0 0 1 3.338-9.883c3.08-2.4 7.187-2.583 10.392-.794a9.451 9.451 0 0 1 5.259-9.013 9.458 9.458 0 0 1 10.355 1.322 9.449 9.449 0 0 1 6.973-7.772c3.779-.983 7.622.472 9.864 3.383 1.267-3.445 4.491-5.99 8.397-6.185a9.449 9.449 0 0 1 8.976 5.285c1.928-3.124 5.593-4.976 9.454-4.39a9.454 9.454 0 0 1 7.753 6.985 9.448 9.448 0 0 1 10.153-2.4 9.46 9.46 0 0 1 6.18 8.421 9.447 9.447 0 0 1 10.43-.296c3.319 2.059 4.913 5.846 4.346 9.48a9.449 9.449 0 0 1 12.629 11.962 9.448 9.448 0 0 1 9.706 3.83 9.443 9.443 0 0 1 .277 10.425 9.461 9.461 0 0 1 8.736 5.7 9.468 9.468 0 0 1-1.839 10.28 9.442 9.442 0 0 1 7.407 7.351 9.473 9.473 0 0 1-3.874 9.688c3.377 1.43 5.757 4.775 5.763 8.68v.208a9.459 9.459 0 0 1-5.744 8.698c3.023 2.085 4.68 5.846 3.892 9.675-.781 3.83-3.779 6.639-7.388 7.369 2.544 2.658 3.408 6.676 1.864 10.273a9.45 9.45 0 0 1-8.731 5.719c1.952 3.118 1.985 7.225-.252 10.43a9.446 9.446 0 0 1-9.693 3.849 9.459 9.459 0 0 1-2.336 10.167 9.465 9.465 0 0 1-10.267 1.826 9.455 9.455 0 0 1-4.328 9.492c-3.314 2.072-7.42 1.832-10.43-.277a9.455 9.455 0 0 1-6.154 8.434h-.007a9.455 9.455 0 0 1-10.16-2.381 9.452 9.452 0 0 1-7.735 7.01 9.463 9.463 0 0 1-9.466-4.378 9.445 9.445 0 0 1-8.49 5.323c-.153 0-.31-.006-.468-.013z" style="fill:#f3f3f3"/><circle cx="256.033" cy="256.84" r="62.987" style="fill:#338af3"/><path d="M269.823 235.464c3.094-2.295 5.109-5.964 5.109-10.113v-6.299c0-6.958-5.64-12.597-12.597-12.597h-12.597c-6.958 0-12.597 5.64-12.597 12.597v6.299c0 4.149 2.015 7.818 5.109 10.113l-11.408 115.862s6.299 6.3 25.195 6.3 25.195-6.3 25.195-6.3l-11.409-115.862z" style="fill:#bdbcc1"/><path d="m256.034 206.455 10.944 33.682h35.418l-28.652 20.818 10.944 33.683-28.654-20.816-28.651 20.816 10.944-33.683-28.652-20.818h35.416z" style="fill:#fff"/></svg>