<svg xmlns="http://www.w3.org/2000/svg" xml:space="preserve" style="enable-background:new 0 0 512 512" viewBox="0 0 512 512"><path d="M0 85.331h512v341.337H0z" style="fill:#0052b4"/><path d="M512 233.734v44.521H278.261v148.402h-44.522V278.255H0v-44.521h233.739V85.331h44.522v148.403z" style="fill:#fff"/><path d="M386.607 175.885a4.119 4.119 0 0 1 4.115-4.114h8.816c13.936 0 25.274-11.337 25.274-25.273 0-13.935-11.337-25.273-25.274-25.273h-8.372c-2.733-2.052-6.399-3.318-10.443-3.318-8.436 0-15.273 5.471-15.273 12.219 0 6.683 6.707 12.104 15.029 12.209l-.003.049h19.062c2.27 0 4.115 1.845 4.115 4.115s-1.845 4.114-4.115 4.114h-8.816c-13.936 0-25.273 11.337-25.273 25.273 0 13.935 11.336 25.273 25.273 25.273h34.09V180h-34.09a4.12 4.12 0 0 1-4.115-4.115zm-278.261 0a4.119 4.119 0 0 1 4.115-4.114h8.816c13.936 0 25.274-11.337 25.274-25.273 0-13.935-11.337-25.273-25.274-25.273h-8.372c-2.733-2.052-6.399-3.318-10.443-3.318-8.436 0-15.273 5.471-15.273 12.219 0 6.683 6.707 12.104 15.029 12.209l-.003.049h19.062c2.27 0 4.115 1.845 4.115 4.115s-1.845 4.114-4.115 4.114h-8.816c-13.936 0-25.273 11.337-25.273 25.273 0 13.935 11.336 25.273 25.273 25.273h34.09V180h-34.09a4.12 4.12 0 0 1-4.115-4.115zm278.261 192.924a4.119 4.119 0 0 1 4.115-4.114h8.816c13.936 0 25.274-11.337 25.274-25.273 0-13.935-11.337-25.273-25.274-25.273h-8.372c-2.733-2.052-6.399-3.318-10.443-3.318-8.436 0-15.273 5.471-15.273 12.219 0 6.683 6.707 12.104 15.029 12.209l-.003.049h19.062c2.27 0 4.115 1.845 4.115 4.115s-1.845 4.114-4.115 4.114h-8.816c-13.936 0-25.273 11.337-25.273 25.273 0 13.935 11.336 25.273 25.273 25.273h34.09v-21.159h-34.09a4.119 4.119 0 0 1-4.115-4.115zm-278.261 0a4.119 4.119 0 0 1 4.115-4.114h8.816c13.936 0 25.274-11.337 25.274-25.273 0-13.935-11.337-25.273-25.274-25.273h-8.372c-2.733-2.052-6.399-3.318-10.443-3.318-8.436 0-15.273 5.471-15.273 12.219 0 6.683 6.707 12.104 15.029 12.209l-.003.049h19.062c2.27 0 4.115 1.845 4.115 4.115s-1.845 4.114-4.115 4.114h-8.816c-13.936 0-25.273 11.337-25.273 25.273 0 13.935 11.336 25.273 25.273 25.273h34.09v-21.159h-34.09a4.119 4.119 0 0 1-4.115-4.115z" style="fill:#fff"/></svg>