<svg xmlns="http://www.w3.org/2000/svg" xml:space="preserve" style="enable-background:new 0 0 512 512" viewBox="0 0 512 512"><path d="M0 85.337h512v341.326H0z" style="fill:#fff"/><path d="M0 322.783h512v103.88H0z" style="fill:#ffda44"/><path d="M0 85.337h512v104.515H0z" style="fill:#496e2d"/><path d="M0 210.877h512v89.656H0z"/><path d="M256 256.006 0 426.668V85.331z" style="fill:#a2001d"/><path d="m83.477 195.132 15.107 46.498h48.894l-39.554 28.739 15.107 46.499-39.554-28.738-39.555 28.738 15.11-46.499-39.554-28.739H68.37z" style="fill:#ffda44"/><path d="M39.268 256h88.42v40.578h-88.42z" style="fill:#fff"/><path d="m144.443 209.479-14.347-14.347-46.618 46.618-46.617-46.618-14.347 14.347 46.658 46.577-46.658 46.658 14.347 14.154 46.617-46.534 46.618 46.534 14.347-14.154-46.659-46.658z"/></svg>