<svg xmlns="http://www.w3.org/2000/svg" xml:space="preserve" style="enable-background:new 0 0 512 512" viewBox="0 0 512 512"><path d="M0 85.331h512v341.326H0z" style="fill:#d80027"/><path d="M330.207 85.331H512v341.337H330.207z" style="fill:#496e2d"/><path d="M0 85.331h181.793v341.337H0z"/><path d="M256 196.632c-32.785 0-59.362 26.577-59.362 59.362s26.577 59.362 59.362 59.362 59.362-26.577 59.362-59.362-26.577-59.362-59.362-59.362zm0 96.463c-20.491 0-37.101-16.611-37.101-37.101s16.61-37.101 37.101-37.101 37.101 16.61 37.101 37.101-16.61 37.101-37.101 37.101z" style="fill:#ffda44"/><path d="M256 233.734c-8.196 0-14.84 6.644-14.84 14.84v22.261h29.682v-22.261c-.002-8.197-6.646-14.84-14.842-14.84z" style="fill:#ffda44"/></svg>