<svg xmlns="http://www.w3.org/2000/svg" xml:space="preserve" style="enable-background:new 0 0 512 512" viewBox="0 0 512 512"><path d="M0 85.337h512v341.326H0z"/><path d="M88.751 221.865a171.427 171.427 0 0 0-3.417 34.134c0 11.69 1.179 23.105 3.417 34.134L256 300.519l167.249-10.388c2.239-11.029 3.417-22.443 3.417-34.134s-1.179-23.105-3.417-34.134" style="fill:#0052b4"/><path d="M423.249 290.131H88.751c15.813 77.9 84.683 136.534 167.249 136.534s151.436-58.634 167.249-136.534z" style="fill:#fff"/><path d="M330.203 221.865H181.797l30.32-14.262-16.146-29.365 32.923 6.298 4.174-33.26L256 175.738l22.933-24.462 4.172 33.26 32.924-6.298-16.145 29.366z" style="fill:#ffda44"/><path d="M255.997 426.661 0 85.335v341.326zm256.003 0V85.335L256.003 426.661z" style="fill:#a2001d"/></svg>