<svg xmlns="http://www.w3.org/2000/svg" xml:space="preserve" style="enable-background:new 0 0 512 512" viewBox="0 0 512 512"><path d="M0 85.337h512v341.326H0z" style="fill:#d80027"/><path d="M215.864 256.006 0 399.911V112.089zM512 112.089v287.822L296.136 256.006z" style="fill:#6da544"/><path d="M512 112.089 296.136 256.006 512 399.911v26.757h-40.125L256 282.752 40.125 426.668H0v-26.757l215.864-143.905L0 112.089V85.331h40.125L256 229.248 471.875 85.331H512z" style="fill:#0052b4"/><path d="M512 112.089 296.136 256.006 512 399.911v26.757h-40.125L256 282.752 40.125 426.668H0v-26.757l215.864-143.905L0 112.089V85.331h40.125L256 229.248 471.875 85.331H512z" style="fill:#fff"/><circle cx="256" cy="256" r="74.207" style="fill:#fff"/><path d="m256 204.058 6.426 11.13h12.852l-6.426 11.13 6.426 11.131h-12.852L256 248.579l-6.426-11.13h-12.852l6.426-11.131-6.426-11.13h12.852zM223.337 256l6.425 11.13h12.853l-6.426 11.131 6.426 11.13h-12.853l-6.425 11.131-6.427-11.131h-12.852l6.426-11.13-6.426-11.131h12.852zm65.326 0 6.427 11.13h12.852l-6.426 11.131 6.426 11.13H295.09l-6.427 11.131-6.425-11.131h-12.853l6.426-11.13-6.426-11.131h12.853z" style="fill:#d80027"/></svg>