<svg xmlns="http://www.w3.org/2000/svg" xml:space="preserve" style="enable-background:new 0 0 512 512" viewBox="0 0 512 512"><path d="M0 85.334h512v341.337H0z" style="fill:#d80027"/><path d="M0 85.334h256v170.663H0z" style="fill:#fff"/><path d="M144 85.33h-32v69.333H0v32h112v69.334h32v-69.334h112v-32H144z" style="fill:#d80027"/><path d="M0 85.329v15.083l57.377 38.251H80z" style="fill:#d80027"/><path d="M0 107.951v30.712h46.069zm96-22.62v48.913L22.628 85.331z" style="fill:#2e52b2"/><path d="M256 85.329v15.083l-57.377 38.251H176z" style="fill:#d80027"/><path d="M256 107.951v30.712h-46.069zm-96-22.62v48.913l73.372-48.913z" style="fill:#2e52b2"/><path d="M0 85.329v15.083l57.377 38.251H80z" style="fill:#d80027"/><path d="M0 107.951v30.712h46.069zm96-22.62v48.913L22.628 85.331z" style="fill:#2e52b2"/><path d="M256 85.329v15.083l-57.377 38.251H176z" style="fill:#d80027"/><path d="M256 107.951v30.712h-46.069zm-96-22.62v48.913l73.372-48.913z" style="fill:#2e52b2"/><path d="M0 255.997v-15.082l57.377-38.252H80z" style="fill:#d80027"/><path d="M0 233.376v-30.713h46.069zm96 22.618v-48.912l-73.372 48.912z" style="fill:#2e52b2"/><path d="M256 255.997v-15.082l-57.377-38.252H176z" style="fill:#d80027"/><path d="M256 233.376v-30.713h-46.069zm-96 22.618v-48.912l73.372 48.912z" style="fill:#2e52b2"/><path d="M332.058 189.214v81.623c0 39.76 103.884 39.76 103.884 0v-81.623H332.058z" style="fill:#f3f3f3"/><path d="M332.058 270.837c0 39.76 51.942 51.942 51.942 51.942s51.942-12.182 51.942-51.942v.001H332.058v-.001z" style="fill:#6da544"/><path d="m384 238.188-24.116 10.388v22.261L384 285.678l24.116-14.841v-22.261z" style="fill:#a2001d"/><path d="M359.88 226.312h48.228v22.261H359.88z" style="fill:#338af3"/></svg>