<svg xmlns="http://www.w3.org/2000/svg" xml:space="preserve" style="enable-background:new 0 0 512 512" viewBox="0 0 512 512"><path d="M0 85.331h512v341.337H0z" style="fill:#fff"/><path d="M0 312.882h512v113.775H0zm322.783-86.569v-22.261h7.42v-14.84h-14.841v7.419h-14.84v-7.419h-14.84v14.84h7.419v22.261h-14.84v-51.94h7.421v-14.842H270.84v7.42h-7.419v-7.42h-14.842v7.42h-7.419v-7.42h-14.842v14.842h7.421v51.94h-14.84v-22.261h7.419v-14.84h-14.84v7.419h-14.84v-7.419h-14.841v14.84h7.42v22.261h-14.84v59.362h163.246v-59.362z" style="fill:#d80027"/><path d="M256 278.255c-12.295 0-22.261 9.966-22.261 22.261 0 9.691 6.195 17.933 14.84 20.989v30.953h-22.261v29.682h37.101v-60.634c8.646-3.055 14.841-11.297 14.841-20.989.001-12.296-9.965-22.262-22.26-22.262zm0 29.681a7.421 7.421 0 1 1 0-14.842 7.421 7.421 0 0 1 0 14.842z" style="fill:#ffda44"/></svg>