<svg xmlns="http://www.w3.org/2000/svg" xml:space="preserve" style="enable-background:new 0 0 512 512" viewBox="0 0 512 512"><path d="M0 85.331h512v341.337H0z" style="fill:#fff"/><path d="M0 85.331h170.663v341.337H0zm341.337 0H512v341.337H341.337z" style="fill:#338af3"/><path d="m304.083 286.736-31.112-31.112 29.615-29.616-1.342-15.642-8.478-8.48L256 238.652l-36.766-36.766-8.478 8.48-1.342 15.642 29.615 29.616-31.112 31.112 16.97 16.97L256 272.594l31.113 31.112z" style="fill:#acabb1"/><path d="m301.255 210.367-16.971 16.971c7.238 7.239 11.716 17.239 11.716 28.285 0 22.092-17.909 40.001-40.001 40.001s-40.001-17.909-40.001-40.001c0-11.045 4.478-21.045 11.716-28.285l-16.971-16.971C199.162 221.949 192 237.949 192 255.623c0 35.346 28.654 64 64 64s64-28.654 64-64c0-17.674-7.164-33.674-18.745-45.256z" style="fill:#6da544"/></svg>