<svg xmlns="http://www.w3.org/2000/svg" xml:space="preserve" style="enable-background:new 0 0 512 512" viewBox="0 0 512 512"><path d="M0 85.331h512v341.337H0z" style="fill:#fff"/><path d="M0 85.331h512v90.579H0z"/><path d="M0 336.089h512v90.568H0z" style="fill:#496e2d"/><path d="M0 198.606h512v114.799H0z" style="fill:#a2001d"/><path d="m323.265 139.803-25.583-11.809L256 222.376l-41.682-94.382-25.583 11.809 51.749 116.191-51.749 116.192 25.583 11.808L256 289.613l41.682 94.381 25.583-11.808-51.749-116.192z" style="fill:#fff"/><path d="M273.376 150.931C263.472 140.115 256 133.898 256 133.898s-7.472 6.216-17.376 17.032v210.127C248.528 371.873 256 378.091 256 378.091s7.472-6.216 17.376-17.033V150.931z" style="fill:#fff"/><path d="M209.04 191.226v129.535c10.465 18.542 23.274 33.742 32.872 43.818V147.408c-9.599 10.076-22.408 25.275-32.872 43.818zm93.92 0c-10.465-18.543-23.274-33.742-32.872-43.818V364.58c9.599-10.077 22.407-25.276 32.872-43.818V191.226z" style="fill:#a2001d"/><path d="M302.96 191.226v129.535c10.594-18.774 18.784-40.973 18.784-64.767s-8.19-45.993-18.784-64.768zm-93.92 0v129.535c-10.594-18.774-18.784-40.973-18.784-64.767s8.19-45.993 18.784-64.768z"/></svg>