<svg xmlns="http://www.w3.org/2000/svg" xml:space="preserve" style="enable-background:new 0 0 512 512" viewBox="0 0 512 512"><path d="M0 85.333h512V426.67H0z" style="fill:#d80027"/><path d="M512 85.33H0v341.333" style="fill:#6da544"/><path d="M446.679 85.33h-28.845L0 363.887v62.776h94.165L512 148.105V85.33z" style="fill:#ffda44"/><path d="M512 85.33h-65.321L0 383.117v43.546h65.32L512 128.876z"/><path d="m186.241 265.94 18.902 14.53 19.659-13.487-7.977 22.467 18.902 14.53-23.832-.644-7.979 22.467-6.751-22.867-23.833-.644 19.66-13.487zm102.941-70.617 18.902 14.53 19.659-13.487-7.977 22.467 18.902 14.53-23.833-.645-7.978 22.468-6.752-22.867-23.832-.644 19.66-13.487z" style="fill:#fff"/></svg>