<svg xmlns="http://www.w3.org/2000/svg" xml:space="preserve" style="enable-background:new 0 0 512 512" viewBox="0 0 512 512"><path d="M0 85.331h512v341.326H0z" style="fill:#ffda44"/><path d="M330.207 85.331H512v341.337H330.207z" style="fill:#d80027"/><path d="M0 85.331h181.793v341.337H0z" style="fill:#0052b4"/><path d="M315.362 219.607H274.55c0-10.244-8.306-18.551-18.551-18.551-10.246 0-18.551 8.306-18.551 18.551h-40.812c0 10.088 8.787 18.265 18.874 18.265h-.608c0 10.088 8.176 18.266 18.265 18.266 0 8.931 6.414 16.353 14.886 17.939l-14.393 32.495c6.896 2.804 14.434 4.362 22.338 4.362s15.441-1.558 22.338-4.362l-14.392-32.495c8.471-1.586 14.886-9.008 14.886-17.939 10.089 0 18.265-8.179 18.265-18.266h-.609c10.09-.001 18.876-8.179 18.876-18.265z" style="fill:#ff9811"/><path d="m256 244.864-24.116 11.13v22.261L256 293.095l24.116-14.84v-22.261z" style="fill:#0052b4"/><path d="M231.88 233.734h48.228v22.261H231.88z" style="fill:#d80027"/></svg>