<svg xmlns="http://www.w3.org/2000/svg" xml:space="preserve" style="enable-background:new 0 0 512 512" viewBox="0 0 512 512"><path d="M0 85.337h512v341.326H0z" style="fill:#ffda44"/><path d="M0 115.011h512v281.978H0z" style="fill:#a2001d"/><path d="M218.899 211.478h74.202v-29.681l-14.84 7.42L256 166.957l-22.261 22.26-14.84-7.42zM322.783 256h-37.088a17 17 0 0 0 2.3-8.543c0-9.458-7.668-17.124-17.124-17.124-6.534 0-12.209 3.661-15.096 9.041-2.887-5.38-8.562-9.041-15.096-9.041-9.456 0-17.124 7.666-17.124 17.124 0 3.114.846 6.026 2.3 8.543h-36.636c0 11.349 9.885 20.549 21.232 20.549h-.685c0 9.31 6.192 17.168 14.68 19.694l-16.678 16.678 15.741 15.741 22.329-22.329c.875.321 1.78.577 2.714.752l-13.492 30.464c6.466 2.629 13.531 4.088 20.941 4.088s14.475-1.46 20.941-4.088l-13.492-30.464a17.108 17.108 0 0 0 2.714-.752l22.329 22.329 15.741-15.741-16.678-16.678c8.488-2.526 14.68-10.385 14.68-19.694h-.685c11.347 0 21.232-9.2 21.232-20.549z" style="fill:#ffda44"/><path d="m256 267.13-24.116 11.131v22.261L256 315.362l24.116-14.84v-22.261z" style="fill:#6da544"/><path d="M231.88 256h48.228v29.682H231.88z" style="fill:#0052b4"/></svg>