<svg xmlns="http://www.w3.org/2000/svg" xml:space="preserve" style="enable-background:new 0 0 512 512" viewBox="0 0 512 512"><path d="M0 85.333h512V426.67H0z" style="fill:#ffda44"/><path d="M383.875 426.662 256 252.286l26.827 174.376zM133.565 85.33 256 252.286 230.314 85.33zm95.606 341.332L256 252.286 128.124 426.662zM0 85.33V212.9l256 39.386L28.333 85.33zm0 341.332h18.212L256 252.286 0 291.67zm256-174.376L512 212.9V85.33h-28.331zM281.686 85.33 256 252.286 378.434 85.33zM512 426.662V291.671l-256-39.385 237.787 174.376z" style="fill:#d80027"/><circle cx="256" cy="252.29" r="59.359" style="fill:#d80027"/><circle cx="256" cy="252.29" r="44.522" style="fill:#ffda44"/></svg>