<svg xmlns="http://www.w3.org/2000/svg" xml:space="preserve" style="enable-background:new 0 0 512 512" viewBox="0 0 512 512"><path d="M0 85.333h512V426.67H0z" style="fill:#0052b4"/><path d="M334.222 191.996v78.221c0 38.103 49.777 49.779 49.777 49.779s49.778-11.675 49.778-49.779v-78.221h-99.555z" style="fill:#338af3"/><path d="M334.222 270.217c0 38.103 49.777 49.779 49.777 49.779s49.778-11.675 49.778-49.779h-99.555z" style="fill:#a2001d"/><path d="M405.334 227.552H391.11v-14.223h-14.222v14.223h-14.222v14.223h14.222v42.665h14.222v-42.665h14.224z"/><path d="M256 85.333v30.553l-45.167 25.099H256v59.359h-59.103L256 233.179v22.817h-26.68l-73.494-40.826v40.826h-55.652v-48.573l-87.43 48.573H0v-30.554l45.167-25.098H0v-59.359h59.103L0 108.139V85.333h26.68l73.494 40.825V85.333h55.652v48.572l87.43-48.572z" style="fill:#fff"/><path d="M144 85.33h-32v69.332H0v32h112v69.334h32v-69.334h112v-32H144z" style="fill:#d80027"/><path d="M155.826 200.344 256 255.996v-15.737l-71.847-39.915z" style="fill:#0052b4"/><path d="M155.826 200.344 256 255.996v-15.737l-71.847-39.915z" style="fill:#fff"/><path d="M155.826 200.344 256 255.996v-15.737l-71.847-39.915zm-83.98 0L0 240.259v15.737l100.174-55.652z" style="fill:#d80027"/><path d="M100.174 140.982 0 85.33v15.737l71.847 39.915z" style="fill:#0052b4"/><path d="M100.174 140.982 0 85.33v15.737l71.847 39.915z" style="fill:#fff"/><path d="M100.174 140.982 0 85.33v15.737l71.847 39.915zm83.98 0L256 101.067V85.33l-100.174 55.652z" style="fill:#d80027"/></svg>