<svg xmlns="http://www.w3.org/2000/svg" xml:space="preserve" style="enable-background:new 0 0 512 512" viewBox="0 0 512 512"><path d="M0 85.334h512v341.337H0z" style="fill:#ffda44"/><path d="M0 85.334h256v170.663H0z" style="fill:#fff"/><path d="M144 85.33h-32v69.333H0v32h112v69.334h32v-69.334h112v-32H144z" style="fill:#d80027"/><path d="M0 85.329v15.083l57.377 38.251H80z" style="fill:#d80027"/><path d="M0 107.951v30.712h46.069zm96-22.62v48.913L22.628 85.331z" style="fill:#2e52b2"/><path d="M256 85.329v15.083l-57.377 38.251H176z" style="fill:#d80027"/><path d="M256 107.951v30.712h-46.069zm-96-22.62v48.913l73.372-48.913z" style="fill:#2e52b2"/><path d="M0 85.329v15.083l57.377 38.251H80z" style="fill:#d80027"/><path d="M0 107.951v30.712h46.069zm96-22.62v48.913L22.628 85.331z" style="fill:#2e52b2"/><path d="M256 85.329v15.083l-57.377 38.251H176z" style="fill:#d80027"/><path d="M256 107.951v30.712h-46.069zm-96-22.62v48.913l73.372-48.913z" style="fill:#2e52b2"/><path d="M0 255.997v-15.082l57.377-38.252H80z" style="fill:#d80027"/><path d="M0 233.376v-30.713h46.069zm96 22.618v-48.912l-73.372 48.912z" style="fill:#2e52b2"/><path d="M256 255.997v-15.082l-57.377-38.252H176z" style="fill:#d80027"/><path d="M256 233.376v-30.713h-46.069zm-96 22.618v-48.912l73.372 48.912z" style="fill:#2e52b2"/><circle cx="128" cy="170.66" r="22.627" style="fill:#2e52b2"/><path d="m128 154.663 3.97 12.222h12.854l-10.398 7.556 3.971 12.222L128 179.109l-10.398 7.554 3.972-12.222-10.398-7.556h12.853zm0 65.14 2.364 7.278h7.653l-6.19 4.498 2.364 7.278-6.191-4.498-6.191 4.498 2.364-7.278-6.19-4.498h7.652zm0-117.334 2.364 7.278h7.653l-6.19 4.498 2.364 7.278-6.191-4.498-6.191 4.498 2.364-7.278-6.19-4.498h7.652zm69.931 58.667 2.365 7.277h7.653l-6.192 4.499 2.365 7.279-6.191-4.498-6.191 4.498 2.365-7.279-6.191-4.499h7.652zm-139.862 0 2.364 7.277h7.653l-6.191 4.499 2.364 7.279-6.19-4.498-6.191 4.498 2.365-7.279-6.192-4.499h7.653z" style="fill:#ffda44"/></svg>