<svg xmlns="http://www.w3.org/2000/svg" xml:space="preserve" style="enable-background:new 0 0 512 512" viewBox="0 0 512 512"><path d="M0 85.337h512v341.326H0z" style="fill:#fff"/><path d="M0 85.337h512v113.775H0zm0 227.551h512v113.775H0z" style="fill:#d80027"/><path d="M293.991 256c0 20.982-17.01 33.243-37.992 33.243S218.008 276.982 218.008 256s17.01-37.992 37.992-37.992 37.991 17.01 37.991 37.992z" style="fill:#ffda44"/><path d="M293.991 256c0 20.982-17.01 37.992-37.992 37.992s-37.992-17.01-37.992-37.992" style="fill:#0052b4"/><path d="M232.259 246.506h9.498v19h-9.498zm37.988 0h9.498v19h-9.498zm-19-14.247h9.498v33.243h-9.498z" style="fill:#d80027"/></svg>