<svg xmlns="http://www.w3.org/2000/svg" width="512" height="512" fill="none" viewBox="0 0 512 512"><g clip-path="url(#a)"><path fill="#3E5EB9" d="M0 85h512v341.33H0V85Z"/><path fill="#FFD900" d="M0 149h512v213.331H0V149Z"/><path fill="#B10C0C" d="M0 170.333h512v170.665H0V170.333Z"/><path fill="#fff" stroke="#000" stroke-width="1.512" d="m420.565 216.651-20.723 7.314 20.723 7.314 20.723-7.314-20.723-7.314Z"/><path fill="#FFD900" stroke="#000" stroke-width="1.512" d="M406.932 221.532h-299.45c-1.463 0-2.65 1.091-2.65 2.438 0 1.346 1.187 2.438 2.65 2.438h299.45c1.464 0 2.651-1.092 2.651-2.438 0-1.347-1.187-2.438-2.651-2.438Z"/><path fill="#FFD900" d="M402.295 226.404c1.218 0 2.44-1.219 2.44-2.438 0-1.218-1.221-2.438-2.439-2.438l-.001 4.876Zm-2.44 0c1.218 0 2.44-1.219 2.44-2.438 0-1.218-1.222-2.438-2.439-2.438l-.001 4.876Zm-2.441 0c1.218 0 2.44-1.219 2.44-2.438 0-1.218-1.221-2.438-2.439-2.438"/><path stroke="#000" stroke-width="1.512" d="M397.414 226.404c1.218 0 2.44-1.219 2.44-2.438 0-1.218-1.221-2.438-2.439-2.438m4.88 4.876c1.218 0 2.44-1.219 2.44-2.438 0-1.218-1.221-2.438-2.439-2.438l-.001 4.876Zm-2.44 0c1.218 0 2.44-1.219 2.44-2.438 0-1.218-1.222-2.438-2.439-2.438l-.001 4.876Z"/><path fill="#FFD900" stroke="#000" stroke-width="1.62" d="M461.899 252.013H54.644c-1.99 0-3.604 1.637-3.604 3.657 0 2.019 1.613 3.657 3.604 3.657h407.255c1.991 0 3.605-1.638 3.605-3.657 0-2.02-1.614-3.657-3.605-3.657Z"/><path fill="#fff" stroke="#000" stroke-width="1.512" d="M377.899 255.665c-24.381 24.378-56.89 73.139-121.908 73.139-56.89 0-97.519-48.76-121.907-73.139 24.381-24.383 65.014-73.144 121.907-73.144 65.014 0 97.519 48.761 121.908 73.144Z"/><path fill="#000" d="M247.484 207.964c6.486 7.295 1.07 10.237 7.936 10.715 7.24.532 3.135 7.709 9.226 7.959 4.258.186-.425 17.195 3.673 22.808 4.176 5.852 7.673 1.715 7.746 5.942.073 4.372-11.364 3.931-11.564 17.399-.336 7.762-9.651 8.258-10.096 13.253-.553 4.697 18.353 7.334 18.1 11.539-.259 4.193-20.413 3.537-21.29 8.318-.45 4.295 27.687 7.815 29.95 20.235-4.199 1.373-16.145 2.665-25.173 2.672-56.88.041-97.519-48.764-121.899-73.143 24.381-24.383 65.014-73.144 121.908-73.144 0 0-16.887 15.43-8.509 25.442l-.008.005Zm-64.928 41.196v-19.504 19.504Zm11.819-19.504v19.504-19.504Zm11.827 0v19.504Z"/><path stroke="#fff" stroke-width="10.39" d="M206.202 229.656v19.504m-23.646 0v-19.504 19.504Zm11.819-19.504v19.504-19.504Z"/><path fill="#3D5DA7" stroke="#000" stroke-width="1.282" d="M436.352 252.764c-3.693 6.396 2.834-2.128 18.761 8.581 2.951 1.989 5.53 7.244 5.53 10.888-.749-.502-1.306-1.617-2.131-2.341-1.155 1.157 1.103 6.466 1.434 8.974-2.49-1.393-2.251-2.053-3.078-3.766.165 2.07-.427 7.771.563 9.967-1.962-.561-1.831-2.14-2.856-2.457.697 2.484-.607 5.189-.262 7.983-1.146-1.135-2.368-2.024-2.901-2.483-.089 1.33-2.206 4.826-2.253 6.084-.973-.587-1.238-1.504-1.4-2.121-1.209 1.519-5.507 7.132-5.783 8.844-3.312-2.925-11.795-10.048-12.9-13.829-.976 2.146-2.389 2.87-5.182 4.437-1.103-5.992-5.231-12.727-3.023-17.863-1.565.927-2.852 1.855-4.415 2.996 1.481-8.678 9.034-18.855 19.899-23.894h-.003Z"/><path fill="#A70000" d="M422.579 284.439c1.533-3.065 2.946-4.037 3.937-6.011 1.75-3.469 1.999-6.229 3.525-5.824 1.524.404 1.523 1.825-.453 5.236-1.975 3.411-2.915 4.14-7.009 6.599Zm10.368 7.304c-.197-2.334.48-3.308.357-4.811-.211-2.645-1.292-4.459.114-4.588 1.406-.129 2.064.773 2.067 3.438.005 2.665-.407 3.365-2.537 5.962l-.001-.001Zm7.868 4.574c-.615-3.258-.154-4.703-.548-6.802-.684-3.693-2.038-6.124-.736-6.462 1.303-.338 2.091.857 2.583 4.602.494 3.745.233 4.774-1.299 8.662Zm8.183-22.826c-1.921-1.459-3.043-1.557-4.282-2.494-2.183-1.644-3.287-3.405-3.989-2.531-.702.874-.204 1.83 2.083 3.347 2.287 1.517 3.062 1.637 6.189 1.678h-.001Zm-1.356 10.811c-1.013-2.103-2.079-2.636-2.735-3.99-1.157-2.378-1.159-4.435-2.415-3.908-1.256.527-1.357 1.604-.014 3.906s2.047 2.719 5.164 3.992Z"/><path fill="#3D5DA7" stroke="#000" stroke-width="1.601" d="M68.934 258.924c-.206-1.862.193-2.085-.953-3.49 1.668.698 1.731 2.553 3.76 1.237.745-.386 1.07-.398.164-2.467 2.115.098 9.042 2.473 10.151 2.528 2.913.134 8.23-3.06 11.92.867 3.543 3.581 2.36 7.297 2.36 12.256-1.423-.682-.737-1.019-2.248-2.792 1.133 4.335-.06 12.149-.06 16.746-.581-1.108-.496-.628-1.064-1.775-1.51 4.195-3.32 5.059-3.32 10.018-.546-1.944-.02-1.534-.626-2.557-1.468 3.186-11.315 5.908-7.52 9.119-3.425-2.008-4.927-1.797-6.48-3.603-.67.432-1.201 1.249-1.824 2.369-6.021-2.77-3.868-8.746-8.586-12.738-.816 1.673-.444 1.431-1.327 4.155-.955-3.784-1.216-6.188-2.29-8.97-.927 1.542-.844.951-2.527 3.282-.696-4.61-1.83-5.697-1.381-8.747-1.789 1.262-.618.751-2.406 2.304 1.694-11.81 9.01-20.537 14.26-17.742h-.002Z"/><path fill="#A70000" d="M61.526 278.201c1.552-3.802 2.95-4.996 3.953-7.444 1.77-4.303 2.059-7.743 3.546-7.218 1.488.525 1.464 2.297-.526 6.524-1.99 4.228-2.921 5.124-6.973 8.137v.001Zm5.874 9.515c.623-3.409 1.604-4.651 2.007-6.846.717-3.86.317-6.736 1.7-6.584 1.382.152 1.694 1.609.774 5.449-.92 3.841-1.554 4.75-4.481 7.981Zm7.027 6.613c.175-3.305.95-4.595 1.066-6.724.21-3.744-.511-6.424.807-6.44 1.318-.015 1.788 1.331 1.384 5.08-.404 3.749-.891 4.684-3.257 8.084Zm15.088-21.615c-2.885-2.874-4.63-3.411-6.49-5.259-3.28-3.246-4.863-6.294-6.03-5.214-1.168 1.081-.465 2.7 2.986 5.789 3.452 3.089 4.653 3.54 9.534 4.684Zm-1.758 11.111c-1.88-2.886-3.258-3.634-4.472-5.491-2.139-3.263-2.875-6.067-4.087-5.372-1.214.695-.942 2.159 1.377 5.323 2.318 3.162 3.25 3.744 7.182 5.541v-.001Z"/><path fill="#3D5DA7" stroke="#000" stroke-width="1.239" d="M216.576 195.505c-3.378 6.532 5.913-2.172 20.478 8.763 2.7 2.032 6.569 10.058 6.569 13.779-3.101-.66-8.593-3.721-8.593-3.721s6.444 6.455 6.444 13.896c-2.276-1.423-3.415-1.21-4.172-2.958 0 2.409 2.025 3.944 2.025 7.665a30.142 30.142 0 0 0-4.426-2.953c2.148 3.721-3.914 10.938-.88 13.347-5.306-.767-10.735-4.157-12.883-7.877-1.139.766-1.262 1.971-1.306 3.255.167.14-8.077-6.119-7.32-8.523-1.106 1.552-1.261 2.404-1.514 4.153-3.028-2.987-5.804-5.973-6.814-9.835-1.346 1.748-1.43 1.748-2.776 3.497-1.01-6.119-1.01-5.901 1.009-11.145-1.43.947-2.607 1.894-4.038 3.06 1.354-8.862 8.262-19.254 18.198-24.4l-.001-.003Z"/><path fill="#A70000" d="M208.247 227.419c.541-4.501 1.717-6.196 2.069-9.095.627-5.098-.117-8.824 1.689-8.729 1.807.094 2.327 1.974 1.434 7.062-.893 5.086-1.646 6.322-5.192 10.763v-.001Zm9.43 8.244c-.366-3.798.335-5.414.102-7.861-.401-4.304-1.731-7.22-.156-7.488 1.574-.268 2.371 1.176 2.54 5.522.17 4.346-.251 5.504-2.487 9.827h.001Zm14.72 6.724c-1.601-3.287-2.977-4.266-4.01-6.381-1.825-3.717-2.207-6.753-3.615-6.203-1.408.55-1.33 2.12.704 5.759 2.033 3.638 2.952 4.381 6.921 6.825Zm5.094-29.431c-4.077-2.147-6.171-2.174-8.798-3.553-4.627-2.418-7.32-5.15-8.276-3.646-.957 1.504.32 2.999 5.09 5.197s6.235 2.302 11.985 2.002h-.001Zm1.493 12.296c-2.968-2.469-4.724-2.833-6.639-4.422-3.373-2.787-5.051-5.526-6.178-4.416-1.127 1.11-.374 2.576 3.166 5.203 3.541 2.626 4.752 2.952 9.651 3.635Z"/></g><defs><clipPath id="a"><path fill="#fff" d="M0 85h512v341.33H0z"/></clipPath></defs></svg>