<svg width="16" height="16" fill="none" xmlns="http://www.w3.org/2000/svg">
    <defs>
        <linearGradient id="gradient" x1="100%" y1="0%" x2="0%" y2="100%">
            <stop offset="0%" stop-color="#52A5FF" />
            <stop offset="100%" stop-color="#E85BB5" />
        </linearGradient>
    </defs>
    <circle opacity=".15" cx="8" cy="8" r="8" fill="url(#gradient)"/>
    <path fill-rule="evenodd" clip-rule="evenodd"
          d="M 8.5 3.75 A 0.75 0.75 0 0 1 9.25 3 h 2.5 a 0.75 0.75 0 0 1 0.75 0.75 v 2.5 a 0.75 0.75 0 0 1 -1.5 0 V 4.5 H 9.25 A 0.75 0.75 0 0 1 8.5 3.75 z m 2.25 4 a 3 3 0 1 1 -6 0 a 3 3 0 0 1 6 0 z m -1.5 0 a 1.5 1.5 0 1 1 -3 0 a 1.5 1.5 0 0 1 3 0 z M 7.739 10.6743 z m 0 -1.4991 z m -3.001 2.7492 a 0.75 0.75 -45 0 1 0.7502 -0.7502 L 7.727 11.1757 l 2.2627 0 a 0.75 0.75 -45 1 1 0 1.4991 l -1.5132 0 l 0 0.7495 a 0.75 0.75 -45 0 1 -1.4998 0.0007 l 0 -0.7495 l -1.4878 0 a 0.75 0.75 -45 0 1 -0.7495 -0.7495 z"
          fill="url(#gradient)"/>
</svg>