<svg id="svg" xmlns="http://www.w3.org/2000/svg" width="1024" height="1024" version="1.1">
    <g id="svgg">
        <path id="path0"
              d="M 496.64 113.0598 C 491.712 114.4422 486.3053 116.9306 484.6234 118.5869 C 480.448 122.7008 439.319 309.7958 442.0096 312.4224 C 446.8966 317.1891 715.7709 416.6016 717.9341 414.4384 C 723.904 408.4685 810.3706 256.5248 808.7014 254.9402 C 798.3334 245.1021 565.9571 116.5338 553.0547 113.4976 C 536.6451 109.6346 509.5808 109.4246 496.64 113.0598 M 382.72 171.8528 C 194.9389 280.384 201.8739 275.7171 190.0954 301.4451 C 176.4762 331.1949 176.169 334.2131 174.8915 451.84 C 172.8307 641.2723 176.855 673.7869 205.952 702.8198 C 218.1325 714.9722 308.6336 769.3594 319.6774 771.1616 C 325.6986 772.1421 353.8867 658.3859 405.4656 424.96 C 477.0918 100.7974 472.4506 122.8262 469.12 122.9517 C 468.0653 122.9926 429.184 144.9984 382.72 171.8528 M 814.6176 266.3322 C 803.1104 284.7565 718.633 430.0058 696.3021 469.76 C 681.2749 496.512 664.1101 527.04 658.1606 537.6 C 643.1642 564.2163 653.4144 557.8854 498.1709 636.3955 C 420.8691 675.4893 355.0669 709.8598 351.9437 712.7782 C 346.7955 717.5859 332.7206 763.7914 332.7795 775.6851 C 332.7923 777.897 346.6573 787.625 365.44 798.5971 C 383.3933 809.0829 412.329 826.2093 429.7446 836.6515 C 474.6419 863.5776 483.3664 866.4218 520.96 866.391 C 563.5123 866.3578 554.2426 870.8608 769.28 745.7229 C 870.7635 686.6688 867.8554 694.1773 867.8016 491.1514 C 867.7709 376.4122 867.0566 346.4448 864.0538 333.7011 C 855.0579 295.5597 823.3498 252.3469 814.6176 266.3322"
              stroke="none" fill="#323232" fill-rule="evenodd"></path>
    </g>
</svg>

